<svg id="Layer_1" data-name="Layer 1" xmlns="http://www.w3.org/2000/svg" viewBox="0 0 366.51 89.13"><defs><style>.cls-1{fill:#002d3a;}</style></defs><title>Untitled-1</title><path class="cls-1" d="M383.12,400.63a21.22,21.22,0,0,1-8.49-1.71,22.27,22.27,0,0,1-6.94-4.63,21.72,21.72,0,0,1-4.68-6.9,22,22,0,0,1,0-17,22,22,0,0,1,4.68-6.93,22.46,22.46,0,0,1,6.94-4.72,20.9,20.9,0,0,1,8.49-1.74,21.19,21.19,0,0,1,8.42,1.7,23.17,23.17,0,0,1,6.95,4.57A21.8,21.8,0,0,1,403.2,370a19.16,19.16,0,0,1,1.74,8,4.31,4.31,0,0,1-1.07,3.17,4.07,4.07,0,0,1-3,1.08H370.2l.37,1.28a10.4,10.4,0,0,0,1.35,2.86,12.6,12.6,0,0,0,3,3.15,14.86,14.86,0,0,0,3.89,2.08,12.94,12.94,0,0,0,4.32.76,13.31,13.31,0,0,0,5.15-1,12.87,12.87,0,0,0,4.17-2.8,6.27,6.27,0,0,1,1.59-1.05,3.91,3.91,0,0,1,1.66-.4,3.55,3.55,0,0,1,2.75,1.22,4.09,4.09,0,0,1,1.12,2.88,6.53,6.53,0,0,1-.22,1.67,3.12,3.12,0,0,1-.86,1.42,18.07,18.07,0,0,1-6.82,4.75A23,23,0,0,1,383.12,400.63Zm0-35.37a12.94,12.94,0,0,0-4.32.76,13.57,13.57,0,0,0-3.82,2.12,14,14,0,0,0-2.91,3.18,11.48,11.48,0,0,0-1.38,2.84l-.42,1.31H396l-.37-1.28a10.46,10.46,0,0,0-1.35-2.87,13.3,13.3,0,0,0-2.95-3.18,13.68,13.68,0,0,0-3.86-2.12A12.89,12.89,0,0,0,383.12,365.26Z" transform="translate(-294.6 -339.51)"/><path class="cls-1" d="M415.8,400.63a4.13,4.13,0,0,1-3-1.14,4,4,0,0,1-1.21-3.12V343.69a4,4,0,0,1,1.21-3.05,4.16,4.16,0,0,1,3-1.13,4.24,4.24,0,0,1,3.12,1.13,4.07,4.07,0,0,1,1.14,3.05v52.68a3.93,3.93,0,0,1-4.26,4.26Z" transform="translate(-294.6 -339.51)"/><path class="cls-1" d="M432.06,400.63a4.13,4.13,0,0,1-3-1.14,4,4,0,0,1-1.21-3.12V343.69a4,4,0,0,1,1.21-3.05,4.16,4.16,0,0,1,3-1.13,4.24,4.24,0,0,1,3.12,1.13,4.11,4.11,0,0,1,1.14,3.05v52.68a3.93,3.93,0,0,1-4.26,4.26Z" transform="translate(-294.6 -339.51)"/><path class="cls-1" d="M485.9,370.19a22.1,22.1,0,0,0-11.85-11.49,21.43,21.43,0,0,0-8.18-1.63,17.65,17.65,0,0,0-7.41,1.45,14.07,14.07,0,0,0-5.19,3.88V343.73a4.13,4.13,0,0,0-1.15-3.07,4.22,4.22,0,0,0-3.15-1.15,4.29,4.29,0,0,0-3.07,1.15,4,4,0,0,0-1.22,3.07v52.64a4,4,0,0,0,1.2,3.12,4.14,4.14,0,0,0,3,1.14,3.92,3.92,0,0,0,4.26-4.26v-1.29a14.72,14.72,0,0,0,2.23,2,17.84,17.84,0,0,0,3.07,1.81,20,20,0,0,0,3.56,1.26,15.7,15.7,0,0,0,3.89.48,21.25,21.25,0,0,0,8.18-1.63,22.38,22.38,0,0,0,7-4.51,21.83,21.83,0,0,0,4.85-6.9,21.7,21.7,0,0,0,0-17.4Zm-7.81,13.88a13.21,13.21,0,0,1-12.22,8,12,12,0,0,1-5-1,12.89,12.89,0,0,1-4-2.82,13.06,13.06,0,0,1-2.67-4.19,13.74,13.74,0,0,1-1-5.14,14.07,14.07,0,0,1,1-5.19,13.49,13.49,0,0,1,2.67-4.26,12.5,12.5,0,0,1,4-2.85,12,12,0,0,1,5-1,13.17,13.17,0,0,1,5.18,1,12.79,12.79,0,0,1,4.22,2.85,13.53,13.53,0,0,1,2.82,4.26,13.18,13.18,0,0,1,1,5.19A12.87,12.87,0,0,1,478.09,384.07Z" transform="translate(-294.6 -339.51)"/><path class="cls-1" d="M538.21,401.57V361.28a4.09,4.09,0,0,0-1.14-3A4.24,4.24,0,0,0,534,357.1a4.14,4.14,0,0,0-3,1.14,4,4,0,0,0-1.21,3v.48h0V379a13,13,0,0,1-1.12,5.16,13.16,13.16,0,0,1-2.86,4.19,13.62,13.62,0,0,1-4.23,2.82,13,13,0,0,1-5.16,1,13.18,13.18,0,0,1-12.24-8.05A12.86,12.86,0,0,1,503,379V361.76h0v-.48a4.12,4.12,0,0,0-1.13-3,4.28,4.28,0,0,0-3.13-1.13,4.14,4.14,0,0,0-3,1.14,3.94,3.94,0,0,0-1.2,3v17.89a2.64,2.64,0,0,0,0,.28,21.1,21.1,0,0,0,1.68,8,21.72,21.72,0,0,0,4.68,6.9A22.41,22.41,0,0,0,507.9,399a22.08,22.08,0,0,0,17,0,22.7,22.7,0,0,0,4.87-2.87v5.41h0v5.13c0,7.53-6,13-13.66,13.46a4.43,4.43,0,0,0-4.19,4.42,4.18,4.18,0,0,0,4.19,4.06,21.67,21.67,0,0,0,22.14-21.94v-5.13Z" transform="translate(-294.6 -339.51)"/><path class="cls-1" d="M313,400.65a4.25,4.25,0,0,1-4-2.7l-7.1-17.88a4.28,4.28,0,0,1,8-3.16l7.1,17.88a4.28,4.28,0,0,1-2.4,5.55A4.12,4.12,0,0,1,313,400.65Z" transform="translate(-294.6 -339.51)"/><path class="cls-1" d="M340.72,400.65a4.26,4.26,0,0,1-4-2.7l-7.1-17.88a4.28,4.28,0,0,1,8-3.16l7.1,17.88a4.28,4.28,0,0,1-2.4,5.55A4.12,4.12,0,0,1,340.72,400.65Z" transform="translate(-294.6 -339.51)"/><path class="cls-1" d="M340.72,400.65a4.12,4.12,0,0,1-1.58-.31,4.28,4.28,0,0,1-2.4-5.55l13.77-35.1a4.26,4.26,0,0,1,4-2.69,4.28,4.28,0,0,1,4,5.86L344.69,398A4.25,4.25,0,0,1,340.72,400.65Z" transform="translate(-294.6 -339.51)"/><path class="cls-1" d="M334.2,368.36l-3.29-8.3h0a4.26,4.26,0,0,0-2.5-2.76,4.3,4.3,0,0,0-1.58-.3,4.26,4.26,0,0,0-4,2.69L309,394.79a4.28,4.28,0,0,0,2.4,5.55,4.12,4.12,0,0,0,1.58.31,4.26,4.26,0,0,0,4-2.69l9.89-25h0s3.46-5.78,9.24.07Z" transform="translate(-294.6 -339.51)"/><circle class="cls-1" cx="4.28" cy="21.77" r="4.28"/><path class="cls-1" d="M294.92,362.89s3.61,7.78,7.21,6.37c3.4-1.33.72-9.59.72-9.59Z" transform="translate(-294.6 -339.51)"/><circle class="cls-1" cx="4.28" cy="21.77" r="4.28"/><path class="cls-1" d="M583.52,400.63H576.3a30.56,30.56,0,1,1,30.57-30.56v7.22a4,4,0,0,1-8,0v-7.22a22.56,22.56,0,1,0-22.56,22.56h7.22a4,4,0,1,1,0,8Z" transform="translate(-294.6 -339.51)"/><path class="cls-1" d="M605.69,393.8l-16.63-16.63a14.45,14.45,0,0,0,1.86-7.1,14.62,14.62,0,1,0-14.62,14.61,14.44,14.44,0,0,0,7.1-1.85L600,399.46a4,4,0,1,0,5.65-5.66Zm-36-23.73a6.62,6.62,0,1,1,6.61,6.61A6.62,6.62,0,0,1,569.69,370.07Z" transform="translate(-294.6 -339.51)"/><path class="cls-1" d="M643.57,381a20.88,20.88,0,0,0-3.35-41.49H627.13A12.5,12.5,0,0,0,614.64,352v25.29a4,4,0,1,0,8,0V352a4.5,4.5,0,0,1,4.49-4.49h13.09a12.89,12.89,0,0,1,0,25.78h-5.73a4,4,0,0,0-4,4s0,.09,0,.14a4,4,0,0,0,1.16,3l19.06,19.06a4,4,0,1,0,5.65-5.66Z" transform="translate(-294.6 -339.51)"/><circle class="cls-1" cx="324.04" cy="56.08" r="5.05"/></svg>