<svg xmlns="http://www.w3.org/2000/svg" viewBox="0 0 574.72 544"><defs><style>.cls-1{isolation:isolate;}.cls-2{fill:#ff3e4d;}.cls-3{fill:#ececec;}.cls-4{fill:#dcdcdc;}.cls-5{mix-blend-mode:multiply;}.cls-6{fill:#1a2e35;}.cls-7{fill:#ffce00;}.cls-8{fill:#002332;}.cls-9{fill:#375a64;}.cls-10{fill:none;}.cls-11{fill:#fff;}.cls-12{fill:#2b454e;}.cls-13{fill:#c8c8c8;}.cls-14{fill:#a8a8a8;}.cls-15{fill:#c36358;}.cls-16{opacity:0.1;}</style></defs><title>Asset 2</title><g class="cls-1"><g id="Layer_2" data-name="Layer 2"><g id="Layer_1-2" data-name="Layer 1"><rect class="cls-2" width="574.72" height="544" transform="translate(574.72 544) rotate(-180)"/><path class="cls-3" d="M412.57,255.51l14.46-.28,7.13-.11c2.37-.05,4.73,0,7.09-.05l-.44.44-.06-12.12.5.5-14.34-.06c-4.78,0-9.56-.11-14.34-.17l.27-.27c0,2-.08,4-.13,6Zm0,0-.14-6c-.05-2-.11-4.07-.13-6.12v-.27h.28c4.78-.05,9.56-.16,14.34-.17l14.34-.06h.5v.5l-.05,12.12V256h-.45c-2.41,0-4.83,0-7.24-.06l-7.21-.11Z"/><path class="cls-3" d="M428.57,270.79l14.46-.27,7.13-.12c2.37,0,4.73,0,7.09,0l-.44.44-.06-12.12.5.5-14.34-.06c-4.78,0-9.56-.11-14.34-.16l.27-.28c0,2-.08,4-.13,6Zm0,0-.14-6c-.05-2-.11-4.06-.13-6.12v-.27h.28c4.78,0,9.56-.16,14.34-.16l14.34-.07h.5v.5l-.05,12.12v.45h-.44c-2.41,0-4.83,0-7.24-.06l-7.22-.11Z"/><path class="cls-3" d="M16.22,222.36l14.46-.28,7.13-.11c2.37-.05,4.73,0,7.09-.06l-.44.45-.05-12.12.49.5-14.34-.07c-4.78,0-9.56-.11-14.34-.16l.28-.27c0,2-.09,4-.14,6Zm0,0-.14-6c0-2-.11-4.07-.13-6.12V210h.27c4.78-.06,9.56-.16,14.34-.17l14.34-.06h.51v.5l0,12.12v.45H44.9c-2.41,0-4.83,0-7.24-.05l-7.21-.11Z"/><path class="cls-3" d="M32.22,237.64l14.46-.28,7.13-.11c2.37-.05,4.73,0,7.09-.05l-.44.44-.06-12.12.5.5L46.56,226c-4.78,0-9.56-.12-14.34-.17l.28-.27c0,2-.09,4-.14,6Zm0,0-.14-6c0-2-.11-4.07-.13-6.12v-.27h.27c4.78-.05,9.56-.16,14.34-.17L60.9,225h.51v.5l0,12.12v.45H60.9c-2.41,0-4.83,0-7.24-.06l-7.21-.11Z"/><path class="cls-3" d="M48.16,222.36l14.46-.28,7.12-.11c2.38-.05,4.74,0,7.1-.06l-.44.45-.06-12.12.5.5-14.34-.07c-4.78,0-9.56-.11-14.34-.16l.27-.27c0,2-.08,4-.13,6Zm0,0-.14-6c-.05-2-.12-4.07-.13-6.12V210h.28c4.78-.06,9.56-.16,14.34-.17l14.34-.06h.5v.5l0,12.12v.45h-.44c-2.41,0-4.84,0-7.24-.05l-7.22-.11Z"/><path class="cls-3" d="M43.24,315.77l14.45-.28,7.13-.11c2.37-.05,4.73,0,7.1-.06l-.45.45,0-12.12.5.5-14.34-.07c-4.78,0-9.56-.11-14.34-.16l.27-.27c0,2-.09,4-.13,6Zm0,0-.15-6c0-2-.11-4.06-.13-6.11v-.27h.28c4.78-.05,9.56-.16,14.34-.16l14.34-.06h.5v.51l-.06,12.12v.45h-.44c-2.42,0-4.84,0-7.25,0L57.46,316Z"/><path class="cls-3" d="M65.58,74.48,80,74.2l7.13-.11c2.37,0,4.73,0,7.1-.06l-.45.45,0-12.12.5.5L79.92,62.8c-4.78,0-9.56-.12-14.34-.17l.27-.27c0,2-.09,4-.13,6Zm0,0-.15-6c0-2-.11-4.07-.13-6.12v-.27h.28c4.78-.05,9.56-.16,14.34-.17l14.34-.06h.5v.5L94.7,74.48v.45h-.44c-2.42,0-4.84,0-7.25-.06l-7.21-.11Z"/><path class="cls-3" d="M49.58,89.76,64,89.48l7.13-.11c2.37-.05,4.73,0,7.1-.05l-.45.44,0-12.12.5.5-14.34-.06c-4.78,0-9.56-.11-14.34-.16l.27-.28c0,2-.09,4-.13,6Zm0,0-.15-6c0-2-.11-4.06-.13-6.12v-.27h.28c4.78-.05,9.56-.16,14.34-.16l14.34-.07h.5v.5L78.7,89.76v.45h-.44c-2.42,0-4.84,0-7.25-.06L63.8,90Z"/><path class="cls-3" d="M461.19,107.72l14.46-.28,7.13-.11c2.37,0,4.73,0,7.09-.06l-.44.45-.05-12.12.49.5L475.53,96c-4.78,0-9.56-.12-14.34-.17l.28-.27c0,2-.09,4-.14,6Zm0,0-.14-6c0-2-.11-4.07-.13-6.12v-.27h.27c4.78,0,9.56-.16,14.34-.17l14.34-.06h.51v.5l-.05,12.12v.45h-.45c-2.41,0-4.83,0-7.24,0l-7.21-.11Z"/><path class="cls-4" d="M81.14,275.13a2.72,2.72,0,0,1,2.82,0c.24.15.48.28.73.42l.75.37A2.69,2.69,0,0,1,87,278.28l.11,3.47,11.3-.36-.1-3.46a2.67,2.67,0,0,1,1.42-2.44,16.23,16.23,0,0,0,1.43-.89,2.69,2.69,0,0,1,2.81-.18l3,1.64,5.35-10-3-1.64a2.68,2.68,0,0,1-1.41-2.44c0-.56,0-1.12,0-1.68a2.68,2.68,0,0,1,1.24-2.53l3-1.83-6-9.62-3,1.84a2.69,2.69,0,0,1-2.8,0c-.24-.14-.48-.28-.73-.41l-.74-.38A2.69,2.69,0,0,1,97.28,245l-.1-3.47-11.31.35.11,3.46a2.68,2.68,0,0,1-1.42,2.44,16.23,16.23,0,0,0-1.43.89,2.69,2.69,0,0,1-2.81.18l-3-1.63-5.35,10,3,1.63a2.71,2.71,0,0,1,1.4,2.45,15.91,15.91,0,0,0,.06,1.69,2.72,2.72,0,0,1-1.25,2.53l-3,1.82,6,9.61ZM84,257.28a9.27,9.27,0,1,1,3.79,12.54A9.27,9.27,0,0,1,84,257.28Z"/><path class="cls-4" d="M396.42,132.76a1.9,1.9,0,0,1,.92,1.74c0,.2,0,.39,0,.59s0,.39,0,.59a1.91,1.91,0,0,1-.92,1.74l-2.11,1.21,4,6.87,2.11-1.22a1.89,1.89,0,0,1,2,.07,10.38,10.38,0,0,0,1,.59,1.9,1.9,0,0,1,1.05,1.68V149h7.92v-2.42a1.91,1.91,0,0,1,1-1.68,10.38,10.38,0,0,0,1-.59,1.91,1.91,0,0,1,2-.07l2.11,1.22,4-6.87-2.12-1.22a1.88,1.88,0,0,1-.92-1.74c0-.19,0-.39,0-.58s0-.39,0-.59a1.89,1.89,0,0,1,.93-1.74l2.11-1.22-4-6.86-2.1,1.21a1.88,1.88,0,0,1-2-.07,11.48,11.48,0,0,0-1-.59,1.88,1.88,0,0,1-1-1.67v-2.43h-7.92v2.43a1.87,1.87,0,0,1-1.05,1.67c-.35.18-.69.38-1,.59a1.88,1.88,0,0,1-2,.07l-2.1-1.21-4,6.86Zm12-4.17a6.5,6.5,0,1,1-6.49,6.5A6.5,6.5,0,0,1,408.38,128.59Z"/><path class="cls-3" d="M436,200.44a30.86,30.86,0,1,0,30.86-30.86A30.87,30.87,0,0,0,436,200.44Zm16.45,0a14.42,14.42,0,1,1,14.41,14.41A14.41,14.41,0,0,1,452.48,200.44Z"/><polygon class="cls-3" points="460.96 170.86 472.83 170.86 472.17 162.46 461.61 162.46 460.96 170.86"/><polygon class="cls-3" points="483.55 174.86 491.94 183.25 497.42 176.85 489.95 169.38 483.55 174.86"/><polygon class="cls-3" points="496.69 193.66 496.69 205.53 505.09 204.87 505.09 194.32 496.69 193.66"/><polygon class="cls-3" points="492.69 216.25 484.3 224.64 490.71 230.12 498.17 222.66 492.69 216.25"/><polygon class="cls-3" points="473.89 229.4 462.03 229.4 462.68 237.8 473.24 237.8 473.89 229.4"/><polygon class="cls-3" points="451.31 225.4 442.91 217 437.44 223.41 444.9 230.87 451.31 225.4"/><polygon class="cls-3" points="438.16 206.6 438.16 194.73 429.76 195.38 429.76 205.94 438.16 206.6"/><polygon class="cls-3" points="442.16 184.01 450.55 175.62 444.15 170.14 436.68 177.6 442.16 184.01"/><g class="cls-5"><path class="cls-4" d="M120.42,67.16A30.86,30.86,0,1,0,151.28,36.3,30.86,30.86,0,0,0,120.42,67.16Zm16.44,0a14.42,14.42,0,1,1,14.42,14.41A14.43,14.43,0,0,1,136.86,67.16Z"/><polygon class="cls-4" points="145.34 37.58 157.21 37.58 156.56 29.18 146 29.18 145.34 37.58"/><polygon class="cls-4" points="167.93 41.57 176.32 49.97 181.8 43.56 174.34 36.1 167.93 41.57"/><polygon class="cls-4" points="181.08 60.37 181.08 72.24 189.48 71.59 189.48 61.03 181.08 60.37"/><polygon class="cls-4" points="177.08 82.96 168.69 91.35 175.09 96.83 182.56 89.37 177.08 82.96"/><polygon class="cls-4" points="158.28 96.11 146.41 96.11 147.07 104.51 157.62 104.51 158.28 96.11"/><polygon class="cls-4" points="135.69 92.11 127.3 83.72 121.82 90.12 129.29 97.59 135.69 92.11"/><polygon class="cls-4" points="122.55 73.31 122.55 61.44 114.15 62.1 114.15 72.65 122.55 73.31"/><polygon class="cls-4" points="126.55 50.72 134.94 42.33 128.53 36.85 121.07 44.32 126.55 50.72"/></g><g class="cls-5"><ellipse class="cls-4" cx="289.71" cy="483.12" rx="260.2" ry="38.71"/></g><polygon class="cls-6" points="514.35 432.92 457.89 433.16 401.43 433.25 288.5 433.42 175.58 433.25 119.12 433.16 62.66 432.92 119.12 432.67 175.58 432.58 288.5 432.42 401.43 432.59 457.89 432.67 514.35 432.92"/><path class="cls-7" d="M462.47,309.39a48.85,48.85,0,0,0,.95,18.77,51.43,51.43,0,0,0,2.87,8.29c1.49,3.44,3,6.79,2.68,10.54-.36.25.88.21.92-.16,10-5.71,22.91-6.76,30.64-16.11,3.66-4.42,5.5-10,6.38-15.64.95-6.11,1.21-12.87-.36-18.89-1.33-5.1-4.31-10-9.09-12.5-4.94-2.57-11.41-2.36-16.61-.74C469.63,286.43,464.05,298.54,462.47,309.39Z"/><path class="cls-8" d="M457.31,383.71c1.37-4.57,2.74-9.14,4.15-13.69,2.75-8.92,5.62-17.81,8.79-26.6q2.83-7.89,6-15.63a96.76,96.76,0,0,0-1.2-9.71c-.84-3.89-2.06-7.65-3.2-11.46-.07-.23.31-.36.41-.13,2.25,5.24,5.19,12,5.27,18.17q3.68-8.76,7.89-17.27A74.47,74.47,0,0,0,485,293a.17.17,0,0,1,.33-.07,50.86,50.86,0,0,1,1,12.7q3.22-6.39,6.85-12.61c.21-.38.73,0,.54.37-3.77,7.27-7.27,14.68-10.56,22.2a48.45,48.45,0,0,1,15.74-9.12c.25-.09.44.28.19.38a57.61,57.61,0,0,0-17,11.27q-3.54,8.26-6.75,16.65c6.29-6.16,14.88-10.21,23.2-12.39.28-.07.36.36.08.45-9.62,2.89-17.09,8.35-24.41,14.9-.85,2.26-1.69,4.53-2.5,6.8-3.11,8.6-6,17.26-8.86,26q-2,6.25-4,12.53c-1.4,4.5-2.5,9.26-4.33,13.61-.17.41-.92.32-.82-.18A129.43,129.43,0,0,1,457.31,383.71Z"/><path class="cls-8" d="M474,300.6a25.22,25.22,0,0,1,3.61,9c0,.09-.11.14-.14.05a79.2,79.2,0,0,0-3.92-8.84C473.37,300.53,473.8,300.34,474,300.6Z"/><path class="cls-8" d="M491.87,321.52a26.24,26.24,0,0,1,9-3c.09,0,.14.1.05.14-1.45.6-3,1-4.43,1.58s-2.91,1.26-4.4,1.77A.26.26,0,0,1,491.87,321.52Z"/><path class="cls-8" d="M496.92,296.36a17,17,0,0,1,2.9-1.79.15.15,0,0,1,.16.25,17.39,17.39,0,0,1-2.85,1.85C496.94,296.79,496.74,296.48,496.92,296.36Z"/><path class="cls-7" d="M428.62,343.49c7.23,2.14,14.5,4.13,21.73,6.25.63.19,12.85-23.23,8.43-35.3-4.08-11.17-13.43-19.53-24.57-23.32-5.17-1.75-11.51-3.23-17-2-4.85,1.07-8.27,5-9.85,9.6-2.14,6.2-1.43,13.59-.26,19.92,1.08,5.87,3.23,11.65,7.11,16.26S423,341.82,428.62,343.49Z"/><path class="cls-8" d="M418.14,321.23a96.65,96.65,0,0,0,14.18,5.58,60.55,60.55,0,0,1,9.46,3.42c-3-6.8-6.4-13.47-10-20.07-4.67-1.35-9.58-3.46-13.11-6.77a.2.2,0,0,1,.27-.3c3.85,2.72,8.1,4.35,12.36,6.2q-1.44-2.67-2.92-5.33c-.28-.49.4-1,.73-.5a153.58,153.58,0,0,1,10.28,17.25,79.46,79.46,0,0,0,.74-15.81c0-.13.19-.14.21,0a52.75,52.75,0,0,1-.18,17.37c2.54,5.06,4.85,10.25,6.92,15.5.83-3.16,1.9-6.26,2.61-9.44a43.2,43.2,0,0,0,1-13.92.11.11,0,0,1,.21,0,49,49,0,0,1-3,25.55c1.21,3.16,2.36,6.34,3.42,9.51A189.55,189.55,0,0,1,461,399.61a.31.31,0,0,1-.61,0,248.69,248.69,0,0,0-10.77-49.57c-2.1-6.31-4.51-12.43-7.16-18.43-4.27-1.26-8.53-3-12.72-4.43s-8.29-3.06-11.72-5.75C417.84,321.37,418,321.15,418.14,321.23Z"/><path class="cls-8" d="M411.4,314.42c4.42,1.58,8.61,3.78,13,5.37.2.08.08.41-.12.36-4.68-1-9.31-2.41-13.08-5.47C411.08,314.56,411.24,314.37,411.4,314.42Z"/><path class="cls-8" d="M447.5,304.88c-.05-.23.29-.37.37-.12,1.21,4.07,2.05,8.4.87,12.56a.16.16,0,0,1-.32,0C448.21,313.11,448.45,309,447.5,304.88Z"/><path class="cls-8" d="M429.23,295.47a10.78,10.78,0,0,1,1.92,6.93c0,.15-.25.24-.3.06-.53-2.33-1.43-4.46-2.15-6.72A.3.3,0,0,1,429.23,295.47Z"/><path class="cls-7" d="M514.63,353.82c-2.12,6.73-7.16,16-15.14,16.1-5.17.05-10.38-.56-15.56-.64-5.55-.08-11.11-.07-16.65.26-.45,0,.66-16.62,14-24.73,3.74-2.27,8.31-3,12.55-3.91a58.28,58.28,0,0,1,14.83-1.54c3.06.12,5.61.77,6.7,3.91S515.64,350.62,514.63,353.82Z"/><path class="cls-8" d="M508.89,345.4c-3.25.83-6.52,1.79-9.77,2.82a35,35,0,0,1,2.69-2.62c1.4-1.16,2.93-2.09,4.43-3.11.13-.08.05-.32-.11-.26a18.29,18.29,0,0,0-7.87,6.26c-4.05,1.31-8.07,2.75-11.93,4.34a44.8,44.8,0,0,0-7.65,4,31.52,31.52,0,0,1,2.77-4.82c1.77-2.29,4.17-3.57,6.48-5.2a.2.2,0,0,0-.2-.35,19,19,0,0,0-10.41,11.28,44.81,44.81,0,0,0-7.57,6.87c-8.82,10-15.77,23.36-15.8,37,0,.32.52.41.58.07,2.51-13.52,7.85-25.66,16.84-36.15.63-.74,1.28-1.44,1.94-2.12a61.17,61.17,0,0,1,7.29-.54c2.84,0,5.66.42,8.49.65,4.65.37,9.8.43,14-1.91.19-.11.06-.43-.14-.35-9.37,3.4-19.19-.92-28.58,1.11a44.14,44.14,0,0,1,13.84-8.93l.87-.34c6,.72,12.35,2.29,18.2.33a.14.14,0,1,0-.07-.27c-5.66,1.41-11.08-.37-16.66-.65,6.07-2.36,12.27-4.25,18.37-6.6C509.43,345.73,509.44,345.26,508.89,345.4Z"/><path class="cls-8" d="M511.54,351.32a82.89,82.89,0,0,1-8.75.66c-.07,0-.09.11,0,.12a18.12,18.12,0,0,0,8.83-.56A.11.11,0,0,0,511.54,351.32Z"/><path class="cls-8" d="M491.78,345.55a14.18,14.18,0,0,0-4.33,3c-.15.13.05.41.22.28.73-.53,1.49-1,2.25-1.53A20.82,20.82,0,0,0,492,346,.26.26,0,0,0,491.78,345.55Z"/><path class="cls-7" d="M444.67,367.21c.1.22-.22.43-.34.19h0a.36.36,0,0,1-.21.14,134.87,134.87,0,0,1-16.3,2.84c-4.41.39-9.49.64-13.35-1.93-5.23-3.46-8.68-12.74-5.85-18.63,3.35-7,13.43-3.2,18.49-.71A37.13,37.13,0,0,1,444.67,367.21Z"/><path class="cls-8" d="M448.59,370.44a52.47,52.47,0,0,0-9.73-7.41A33.31,33.31,0,0,0,429,353c-.19-.14-.36.17-.18.3a44.67,44.67,0,0,1,8.31,8.75,91.94,91.94,0,0,0-12.2-5.55,16.33,16.33,0,0,0-6.56-6.57c-.06,0-.13,0-.07.09a26.61,26.61,0,0,1,5.92,6.21q-3.72-1.38-7.49-2.62c-.22-.07-.31.27-.1.35,4.46,1.75,9,3.58,13.44,5.7a51.63,51.63,0,0,1-16.27-.05.12.12,0,0,0-.06.24,32,32,0,0,0,17.26.25,82.77,82.77,0,0,1,8.18,4.59,20.35,20.35,0,0,0-6.61.54,50.17,50.17,0,0,1-11.63,1.31c-.15,0-.19.24,0,.27,6.75,1.16,13.13-1.91,19.81-1.11a50.68,50.68,0,0,1,7,5.69,52.31,52.31,0,0,1,10.16,14.32c2.81,5.73,4.34,11.8,6.61,17.72a.22.22,0,0,0,.42-.12C462.9,391.63,457.09,378.76,448.59,370.44Z"/><path class="cls-8" d="M428.25,354.44a7.91,7.91,0,0,0-1.73-2.09,7,7,0,0,0-2-1.5c-.07,0-.11.07-.07.12.55.62,1.32,1.08,1.92,1.69s1.1,1.31,1.71,1.9C428.17,354.65,428.29,354.54,428.25,354.44Z"/><path class="cls-8" d="M417.12,358.06c-1-.25-2.06-.23-3.07-.44a31.09,31.09,0,0,1-3-.89c-.13,0-.2.15-.09.22a10,10,0,0,0,6.15,1.43A.17.17,0,0,0,417.12,358.06Z"/><polygon class="cls-9" points="476.38 388.92 475.49 398.97 472.49 432.92 445.9 432.92 442.15 398.97 441.04 388.92 476.38 388.92"/><polygon class="cls-8" points="476.38 388.92 475.49 398.97 442.15 398.97 441.04 388.92 476.38 388.92"/><rect class="cls-9" x="438.41" y="386.17" width="40.6" height="8.16"/><path class="cls-9" d="M379.05,21.41H195.93a18.7,18.7,0,0,0-18.52,18.87v420a18.71,18.71,0,0,0,18.52,18.87H379.05a18.73,18.73,0,0,0,18.54-18.87v-420A18.71,18.71,0,0,0,379.05,21.41ZM386,448.63c0,9.92-7.43,17.95-16.59,17.95H205.59c-9.18,0-16.61-8-16.61-17.95V54.56c0-20.21,7.43-21.19,16.61-21.19h32.82c1.91,0,3.47,2.16,3.47,4.85v1.16c0,6.29,3.44,6.31,7.67,6.31h75.88c4.27,0,7.69,0,7.69-6.31V38.22c0-2.69,1.54-4.85,3.48-4.85h32.81c9.16,0,16.59,2.68,16.59,21.19Z"/><line class="cls-10" x1="188.98" y1="426.38" x2="188.37" y2="426.38"/><path class="cls-11" d="M386,54.56V448.63c0,9.92-7.43,17.95-16.59,17.95H205.59c-9.18,0-16.61-8-16.61-17.95V54.56c0-20.21,7.43-21.19,16.61-21.19h32.82c1.91,0,3.47,2.16,3.47,4.85v1.16c0,6.29,3.44,6.31,7.67,6.31h75.88c4.27,0,7.69,0,7.69-6.31V38.22c0-2.69,1.54-4.85,3.48-4.85h32.81C378.57,33.37,386,36.05,386,54.56Z"/><path class="cls-7" d="M386,54.56V94.09H189V54.56c0-20.21,7.43-21.19,16.61-21.19h32.82c1.91,0,3.47,2.16,3.47,4.85v1.16c0,6.29,3.44,6.31,7.67,6.31h75.88c4.27,0,7.69,0,7.69-6.31V38.22c0-2.69,1.54-4.85,3.48-4.85h32.81C378.57,33.37,386,36.05,386,54.56Z"/><g id="u5Zjqx"><path class="cls-11" d="M232.75,41.25c-.11.11-.22.21-.32.32l-.18.18a4.31,4.31,0,0,0-6.11,0l-.17-.18-.32-.31h0l0,0c.13-.11.26-.24.4-.35a4.24,4.24,0,0,1,.92-.59,4.57,4.57,0,0,1,1.23-.41l.62-.09h.53l.42,0a5.08,5.08,0,0,1,1.89.62,5.3,5.3,0,0,1,.73.51l.34.3Z"/><path class="cls-11" d="M227.14,42.74l-.5-.49a3.6,3.6,0,0,1,5.11,0l-.51.5a2.9,2.9,0,0,0-4.1,0Z"/><path class="cls-11" d="M230.74,43.24l-.5.5a1.5,1.5,0,0,0-2.1,0l-.49-.49A2.17,2.17,0,0,1,230.74,43.24Z"/><path class="cls-11" d="M229.64,44.19a.45.45,0,1,1-.45-.45A.45.45,0,0,1,229.64,44.19Z"/></g><path class="cls-11" d="M201.83,42.21a1.31,1.31,0,1,1,1.3,1.3A1.31,1.31,0,0,1,201.83,42.21Z"/><path class="cls-11" d="M205.94,42.21a1.31,1.31,0,1,1,2.61,0,1.31,1.31,0,0,1-2.61,0Z"/><path class="cls-11" d="M210.05,42.21a1.31,1.31,0,1,1,1.31,1.3A1.31,1.31,0,0,1,210.05,42.21Z"/><path class="cls-11" d="M214.17,42.21a1.31,1.31,0,1,1,1.3,1.3A1.31,1.31,0,0,1,214.17,42.21Z"/><path class="cls-11" d="M218.28,42.21a1.31,1.31,0,1,1,1.31,1.3A1.31,1.31,0,0,1,218.28,42.21Z"/><path class="cls-11" d="M371.22,45.06H360.59V40.14h10.63Zm-10.08-.54h9.54V40.68h-9.54Z"/><rect class="cls-11" x="361.48" y="40.97" width="6.85" height="3.25"/><rect class="cls-11" x="371.23" y="41.28" width="0.95" height="2.63"/><polygon class="cls-11" points="206.94 82.99 201.12 77.54 206.94 72.08 207.84 73.05 203.05 77.54 207.84 82.03 206.94 82.99"/><path class="cls-11" d="M264.16,79.3a.48.48,0,0,1,.69-.06,3.11,3.11,0,0,0,1.81.73,2.12,2.12,0,0,0,1.19-.35.88.88,0,0,0,.41-.69.51.51,0,0,0-.09-.3.94.94,0,0,0-.28-.29,3.76,3.76,0,0,0-1.3-.44h0a5.38,5.38,0,0,1-1.23-.37,2.05,2.05,0,0,1-.88-.74,1.5,1.5,0,0,1-.22-.78,1.79,1.79,0,0,1,.76-1.39,2.84,2.84,0,0,1,1.64-.5,3.74,3.74,0,0,1,2.07.76.49.49,0,0,1-.54.82,2.7,2.7,0,0,0-1.53-.61,1.83,1.83,0,0,0-1.06.32.75.75,0,0,0-.36.6.47.47,0,0,0,.07.27.82.82,0,0,0,.25.24,3.45,3.45,0,0,0,1.19.42h0a5.44,5.44,0,0,1,1.31.4,2.17,2.17,0,0,1,.95.79,1.52,1.52,0,0,1,.22.8,1.83,1.83,0,0,1-.81,1.47,3,3,0,0,1-1.76.54,4.15,4.15,0,0,1-2.43-.94A.51.51,0,0,1,264.16,79.3Z"/><path class="cls-11" d="M270.7,80.43v-5.6a.51.51,0,0,1,.52-.52h3.1a.53.53,0,0,1,0,1h-2.57V77.1H274a.54.54,0,0,1,.52.52.53.53,0,0,1-.52.53h-2.21V79.9h2.57a.53.53,0,0,1,.52.53.52.52,0,0,1-.52.52h-3.07s0,0,0,0h0A.51.51,0,0,1,270.7,80.43Z"/><path class="cls-11" d="M280.38,75.36h-1.51v5.07a.5.5,0,0,1-.52.52.52.52,0,0,1-.52-.52V75.36h-1.5a.52.52,0,0,1-.52-.53.52.52,0,0,1,.52-.52h4.05a.52.52,0,0,1,.53.52A.53.53,0,0,1,280.38,75.36Z"/><path class="cls-11" d="M286.53,75.36H285v5.07a.5.5,0,0,1-.52.52.52.52,0,0,1-.52-.52V75.36h-1.5a.52.52,0,0,1-.52-.53.52.52,0,0,1,.52-.52h4a.52.52,0,0,1,.52.52A.52.52,0,0,1,286.53,75.36Z"/><path class="cls-11" d="M288.69,74.83a.51.51,0,0,1,.52-.52.53.53,0,0,1,.53.52v5.6a.52.52,0,0,1-.53.52.5.5,0,0,1-.52-.52Z"/><path class="cls-11" d="M292.56,80.43A.52.52,0,0,1,292,81a.52.52,0,0,1-.52-.52V74.92h0a.53.53,0,0,1,.21-.44.52.52,0,0,1,.72.12l3.07,4.24V74.92a.51.51,0,0,1,.51-.51.52.52,0,0,1,.52.51v5.51A.52.52,0,0,1,296,81a.51.51,0,0,1-.39-.19l-.05-.05-3-4.22Z"/><path class="cls-11" d="M298.06,77.55a3.46,3.46,0,0,1,3.5-3.43,3.55,3.55,0,0,1,2.17.74.55.55,0,1,1-.67.86,2.43,2.43,0,0,0-1.5-.52,2.36,2.36,0,0,0-1.71.7,2.26,2.26,0,0,0-.71,1.65,2.29,2.29,0,0,0,.71,1.63,2.35,2.35,0,0,0,1.71.69,2.58,2.58,0,0,0,1.3-.36v-1.3H301.5a.55.55,0,0,1-.54-.54.54.54,0,0,1,.54-.53h1.89a.53.53,0,0,1,.55.53v2.1a.88.88,0,0,1,0,.16l0,0h0a.47.47,0,0,1-.18.22,3.51,3.51,0,0,1-5.66-2.66Z"/><path class="cls-11" d="M305.87,79.3a.48.48,0,0,1,.69-.06,3.11,3.11,0,0,0,1.81.73,2.1,2.1,0,0,0,1.19-.35.88.88,0,0,0,.41-.69.51.51,0,0,0-.09-.3.84.84,0,0,0-.28-.29,3.76,3.76,0,0,0-1.3-.44h0a5.53,5.53,0,0,1-1.23-.37,2.11,2.11,0,0,1-.88-.74A1.5,1.5,0,0,1,306,76a1.79,1.79,0,0,1,.76-1.39,2.85,2.85,0,0,1,1.65-.5,3.7,3.7,0,0,1,2.06.76.49.49,0,0,1-.54.82,2.69,2.69,0,0,0-1.52-.61,1.84,1.84,0,0,0-1.07.32.77.77,0,0,0-.36.6.47.47,0,0,0,.07.27,1,1,0,0,0,.25.24,3.45,3.45,0,0,0,1.19.42h0a5.44,5.44,0,0,1,1.31.4,2.17,2.17,0,0,1,1,.79,1.53,1.53,0,0,1,.23.8,1.84,1.84,0,0,1-.82,1.47,3,3,0,0,1-1.76.54,4.18,4.18,0,0,1-2.43-.94A.52.52,0,0,1,305.87,79.3Z"/><rect class="cls-11" x="364.98" y="73.61" width="8.9" height="1.03"/><rect class="cls-11" x="364.98" y="77.02" width="8.9" height="1.03"/><rect class="cls-11" x="364.98" y="80.44" width="8.9" height="1.03"/><circle class="cls-11" cx="367.02" cy="74.12" r="1.54"/><path class="cls-11" d="M373.07,77.54A1.55,1.55,0,1,1,371.53,76,1.54,1.54,0,0,1,373.07,77.54Z"/><circle class="cls-11" cx="368.44" cy="80.95" r="1.54"/><path class="cls-11" d="M297.85,37.83h-20.7a1.28,1.28,0,0,1-1.28-1.28h0a1.27,1.27,0,0,1,1.28-1.27h20.7a1.27,1.27,0,0,1,1.27,1.27h0A1.27,1.27,0,0,1,297.85,37.83Z"/><path class="cls-9" d="M300.26,157.78a22.92,22.92,0,0,1-6.75,2.83,23.41,23.41,0,1,1,6.75-2.83Z"/><path class="cls-11" d="M295.08,135.21a7.12,7.12,0,1,1-7.12-7.12A7.12,7.12,0,0,1,295.08,135.21Z"/><path class="cls-11" d="M300.26,154.85v2.93a22.92,22.92,0,0,1-6.75,2.83,23.26,23.26,0,0,1-17.86-2.84v-2.92a12.31,12.31,0,1,1,24.61,0Z"/><path class="cls-7" d="M305.7,150.92a9.08,9.08,0,1,0,9.07,9.08A9.07,9.07,0,0,0,305.7,150.92Zm0,13.31a4.24,4.24,0,1,1,4.24-4.23A4.23,4.23,0,0,1,305.7,164.23Z"/><polygon class="cls-7" points="307.44 151.3 303.95 151.3 304.14 148.83 307.25 148.83 307.44 151.3"/><polygon class="cls-7" points="300.8 152.47 298.33 154.94 296.72 153.06 298.92 150.87 300.8 152.47"/><polygon class="cls-7" points="296.94 158 296.94 161.49 294.46 161.3 294.46 158.2 296.94 158"/><polygon class="cls-7" points="298.11 164.64 300.58 167.11 298.69 168.72 296.5 166.53 298.11 164.64"/><polygon class="cls-7" points="303.64 168.51 307.13 168.51 306.94 170.98 303.83 170.98 303.64 168.51"/><polygon class="cls-7" points="310.28 167.33 312.75 164.87 314.36 166.75 312.16 168.94 310.28 167.33"/><polygon class="cls-7" points="314.14 161.81 314.14 158.32 316.62 158.51 316.62 161.61 314.14 161.81"/><polygon class="cls-7" points="312.97 155.16 310.5 152.7 312.38 151.09 314.58 153.28 312.97 155.16"/><rect class="cls-9" x="208.09" y="179.36" width="11.37" height="11.37"/><polygon class="cls-3" points="228.42 195.87 245.73 195.69 263.04 195.58 297.67 195.5 332.29 195.58 349.6 195.69 366.91 195.87 349.6 196.05 332.29 196.16 297.67 196.25 263.04 196.16 245.73 196.05 228.42 195.87"/><rect class="cls-3" x="228.42" y="183.82" width="52.95" height="2.46"/><path class="cls-7" d="M361.23,190.74H349.48a5.69,5.69,0,0,1-5.69-5.69h0a5.69,5.69,0,0,1,5.69-5.69h11.75a5.68,5.68,0,0,1,5.68,5.69h0A5.68,5.68,0,0,1,361.23,190.74Z"/><path class="cls-11" d="M365.8,185.05a4.56,4.56,0,1,1-4.56-4.56A4.56,4.56,0,0,1,365.8,185.05Z"/><rect class="cls-12" x="208.09" y="200.77" width="11.37" height="11.37"/><polygon class="cls-3" points="228.42 217.28 245.73 217.1 263.04 216.99 297.67 216.91 332.29 216.99 349.6 217.1 366.91 217.28 349.6 217.46 332.29 217.57 297.67 217.65 263.04 217.57 245.73 217.46 228.42 217.28"/><rect class="cls-3" x="228.42" y="205.23" width="52.95" height="2.46"/><path class="cls-7" d="M361.23,212.14H349.48a5.68,5.68,0,0,1-5.69-5.68h0a5.69,5.69,0,0,1,5.69-5.69h11.75a5.68,5.68,0,0,1,5.68,5.69h0A5.68,5.68,0,0,1,361.23,212.14Z"/><path class="cls-11" d="M365.8,206.46a4.56,4.56,0,1,1-4.56-4.56A4.56,4.56,0,0,1,365.8,206.46Z"/><rect class="cls-9" x="208.09" y="243.59" width="11.37" height="11.37"/><polygon class="cls-3" points="228.42 260.1 245.73 259.92 263.04 259.81 297.67 259.72 332.29 259.81 349.6 259.91 366.91 260.1 349.6 260.28 332.29 260.39 297.67 260.47 263.04 260.38 245.73 260.28 228.42 260.1"/><rect class="cls-3" x="228.42" y="248.04" width="52.95" height="2.46"/><path class="cls-3" d="M349.48,255h11.75a5.68,5.68,0,0,0,5.68-5.68h0a5.68,5.68,0,0,0-5.68-5.69H349.48a5.69,5.69,0,0,0-5.69,5.69h0A5.68,5.68,0,0,0,349.48,255Z"/><path class="cls-11" d="M344.91,249.28a4.56,4.56,0,1,0,4.55-4.56A4.55,4.55,0,0,0,344.91,249.28Z"/><rect class="cls-12" x="208.09" y="265" width="11.37" height="11.37"/><polygon class="cls-3" points="228.42 281.51 245.73 281.32 263.04 281.22 297.67 281.13 332.29 281.22 349.6 281.32 366.91 281.51 349.6 281.69 332.29 281.8 297.67 281.88 263.04 281.79 245.73 281.69 228.42 281.51"/><rect class="cls-3" x="228.42" y="269.45" width="52.95" height="2.46"/><path class="cls-7" d="M361.23,276.37H349.48a5.68,5.68,0,0,1-5.69-5.68h0a5.69,5.69,0,0,1,5.69-5.69h11.75a5.68,5.68,0,0,1,5.68,5.69h0A5.68,5.68,0,0,1,361.23,276.37Z"/><path class="cls-11" d="M365.8,270.69a4.56,4.56,0,1,1-4.56-4.56A4.56,4.56,0,0,1,365.8,270.69Z"/><rect class="cls-9" x="208.09" y="307.82" width="11.37" height="11.37"/><polygon class="cls-3" points="228.42 324.33 245.73 324.14 263.04 324.04 297.67 323.95 332.29 324.04 349.6 324.14 366.91 324.33 349.6 324.51 332.29 324.61 297.67 324.7 263.04 324.61 245.73 324.51 228.42 324.33"/><rect class="cls-3" x="228.42" y="312.27" width="52.95" height="2.46"/><path class="cls-7" d="M361.23,319.19H349.48a5.69,5.69,0,0,1-5.69-5.69h0a5.68,5.68,0,0,1,5.69-5.68h11.75a5.68,5.68,0,0,1,5.68,5.68h0A5.68,5.68,0,0,1,361.23,319.19Z"/><path class="cls-11" d="M365.8,313.5a4.56,4.56,0,1,1-4.56-4.55A4.56,4.56,0,0,1,365.8,313.5Z"/><rect class="cls-12" x="208.09" y="329.23" width="11.37" height="11.37"/><polygon class="cls-3" points="228.42 345.74 245.73 345.55 263.04 345.45 297.67 345.36 332.29 345.45 349.6 345.55 366.91 345.74 349.6 345.92 332.29 346.02 297.67 346.11 263.04 346.02 245.73 345.92 228.42 345.74"/><rect class="cls-3" x="228.42" y="333.68" width="52.95" height="2.46"/><path class="cls-7" d="M361.23,340.6H349.48a5.69,5.69,0,0,1-5.69-5.69h0a5.68,5.68,0,0,1,5.69-5.68h11.75a5.68,5.68,0,0,1,5.68,5.68h0A5.68,5.68,0,0,1,361.23,340.6Z"/><path class="cls-11" d="M365.8,334.91a4.56,4.56,0,1,1-4.56-4.55A4.56,4.56,0,0,1,365.8,334.91Z"/><rect class="cls-7" x="208.09" y="350.64" width="11.37" height="11.37"/><polygon class="cls-3" points="228.42 367.14 245.73 366.96 263.04 366.86 297.67 366.77 332.29 366.86 349.6 366.96 366.91 367.14 349.6 367.33 332.29 367.43 297.67 367.52 263.04 367.43 245.73 367.33 228.42 367.14"/><rect class="cls-3" x="228.42" y="355.09" width="52.95" height="2.46"/><path class="cls-3" d="M349.48,362h11.75a5.68,5.68,0,0,0,5.68-5.69h0a5.68,5.68,0,0,0-5.68-5.68H349.48a5.68,5.68,0,0,0-5.69,5.68h0A5.69,5.69,0,0,0,349.48,362Z"/><circle class="cls-11" cx="349.46" cy="356.32" r="4.56"/><rect class="cls-9" x="208.09" y="372.05" width="11.37" height="11.37"/><polygon class="cls-3" points="228.42 388.55 245.73 388.37 263.04 388.27 297.67 388.18 332.29 388.26 349.6 388.37 366.91 388.55 349.6 388.74 332.29 388.84 297.67 388.93 263.04 388.84 245.73 388.74 228.42 388.55"/><rect class="cls-3" x="228.42" y="376.5" width="52.95" height="2.46"/><path class="cls-7" d="M361.23,383.42H349.48a5.69,5.69,0,0,1-5.69-5.69h0a5.68,5.68,0,0,1,5.69-5.68h11.75a5.68,5.68,0,0,1,5.68,5.68h0A5.68,5.68,0,0,1,361.23,383.42Z"/><path class="cls-11" d="M365.8,377.73a4.56,4.56,0,1,1-4.56-4.56A4.56,4.56,0,0,1,365.8,377.73Z"/><rect class="cls-7" x="208.08" y="222.18" width="11.37" height="11.37"/><polygon class="cls-3" points="228.41 238.69 245.72 238.51 263.04 238.4 297.66 238.31 332.29 238.4 349.6 238.5 366.91 238.69 349.6 238.87 332.29 238.98 297.66 239.06 263.04 238.98 245.72 238.87 228.41 238.69"/><rect class="cls-3" x="228.41" y="226.64" width="52.95" height="2.46"/><path class="cls-7" d="M361.22,233.55H349.47a5.68,5.68,0,0,1-5.68-5.68h0a5.68,5.68,0,0,1,5.68-5.69h11.75a5.69,5.69,0,0,1,5.69,5.69h0A5.68,5.68,0,0,1,361.22,233.55Z"/><path class="cls-11" d="M365.79,227.87a4.56,4.56,0,1,1-4.55-4.56A4.55,4.55,0,0,1,365.79,227.87Z"/><rect class="cls-7" x="308.22" y="426.29" width="58.7" height="15.99"/><path class="cls-11" d="M327.21,435.67a.46.46,0,0,1,.64-.06,2.8,2.8,0,0,0,1.68.67,1.94,1.94,0,0,0,1.1-.32.78.78,0,0,0,.37-.63.42.42,0,0,0-.08-.28.81.81,0,0,0-.26-.27,3.53,3.53,0,0,0-1.2-.41h0a5.43,5.43,0,0,1-1.14-.34,1.88,1.88,0,0,1-.81-.69,1.29,1.29,0,0,1-.21-.72,1.59,1.59,0,0,1,.71-1.28,2.59,2.59,0,0,1,1.52-.47,3.47,3.47,0,0,1,1.92.7.46.46,0,0,1,.12.63.45.45,0,0,1-.63.13,2.49,2.49,0,0,0-1.41-.56,1.73,1.73,0,0,0-1,.29.72.72,0,0,0-.33.56.51.51,0,0,0,.06.25.88.88,0,0,0,.24.22,3,3,0,0,0,1.1.39h0a5.2,5.2,0,0,1,1.21.37,2,2,0,0,1,.88.73,1.43,1.43,0,0,1,.21.75,1.71,1.71,0,0,1-.76,1.36,2.71,2.71,0,0,1-1.62.5,3.76,3.76,0,0,1-2.25-.88A.46.46,0,0,1,327.21,435.67Z"/><path class="cls-11" d="M336.27,435.75h-2.14l-.43,1.14a.48.48,0,0,1-.45.31.43.43,0,0,1-.17,0,.49.49,0,0,1-.29-.63l1.94-5.18a.5.5,0,0,1,.47-.31.47.47,0,0,1,.46.31l1.95,5.18a.49.49,0,0,1-.29.63.48.48,0,0,1-.62-.28Zm-.36-1-.71-1.89-.71,1.89Z"/><path class="cls-11" d="M340,437.11s0,0-.06,0,0,0,0,0l0-.05h0l0-.07-2.16-5.14a.47.47,0,0,1,.27-.62.47.47,0,0,1,.62.26l1.72,4.07,1.71-4.07a.48.48,0,0,1,.63-.26.49.49,0,0,1,.27.62l-2.18,5.14a.11.11,0,0,1,0,.07h0l0,.05,0,0s0,0-.05,0h0s0,0-.07,0h0l-.07,0h-.21l-.07,0h0s-.05,0-.08-.05Z"/><path class="cls-11" d="M344.35,436.72v-5.19a.48.48,0,0,1,.48-.49h2.88a.49.49,0,0,1,0,1h-2.38v1.61h2a.49.49,0,1,1,0,1h-2v1.61h2.38a.49.49,0,0,1,0,1h-2.88A.48.48,0,0,1,344.35,436.72Z"/><rect class="cls-3" x="208.09" y="426.29" width="58.7" height="15.99"/><path class="cls-11" d="M219.06,436.72v-5.19a.48.48,0,0,1,.49-.49h1a3.08,3.08,0,0,1,0,6.16h-1A.48.48,0,0,1,219.06,436.72Zm1-.5h.54a2.1,2.1,0,1,0,0-4.2H220Z"/><path class="cls-11" d="M225,431.53a.48.48,0,0,1,.48-.49.5.5,0,0,1,.49.49v5.19a.49.49,0,0,1-.49.48.47.47,0,0,1-.48-.48Z"/><path class="cls-11" d="M227.43,435.67a.46.46,0,0,1,.64-.06,2.85,2.85,0,0,0,1.68.67,1.91,1.91,0,0,0,1.1-.32.77.77,0,0,0,.38-.63.49.49,0,0,0-.08-.28.81.81,0,0,0-.26-.27,3.6,3.6,0,0,0-1.21-.41h0a5.25,5.25,0,0,1-1.14-.34,2,2,0,0,1-.82-.69,1.37,1.37,0,0,1-.2-.72,1.61,1.61,0,0,1,.7-1.28,2.62,2.62,0,0,1,1.53-.47,3.44,3.44,0,0,1,1.91.7.45.45,0,0,1-.5.76,2.55,2.55,0,0,0-1.41-.56,1.73,1.73,0,0,0-1,.29.69.69,0,0,0-.33.56.42.42,0,0,0,.06.25.75.75,0,0,0,.24.22,3,3,0,0,0,1.09.39h0a5.29,5.29,0,0,1,1.22.37,2,2,0,0,1,.87.73,1.35,1.35,0,0,1,.22.75,1.71,1.71,0,0,1-.76,1.36,2.72,2.72,0,0,1-1.63.5,3.76,3.76,0,0,1-2.25-.88A.47.47,0,0,1,227.43,435.67Z"/><path class="cls-11" d="M233.22,434a3.23,3.23,0,0,1,3.22-3.16,3.32,3.32,0,0,1,2,.68.53.53,0,0,1,.08.71.52.52,0,0,1-.7.1,2.19,2.19,0,0,0-1.42-.49,2.36,2.36,0,0,0-1.58.63,2.22,2.22,0,0,0-.64,1.53,2.14,2.14,0,0,0,.64,1.53,2.32,2.32,0,0,0,1.58.64,2.21,2.21,0,0,0,1.42-.49.53.53,0,0,1,.7.1.51.51,0,0,1-.08.7,3.32,3.32,0,0,1-2,.69A3.22,3.22,0,0,1,233.22,434Z"/><path class="cls-11" d="M243.28,435.75h-2.14l-.43,1.14a.48.48,0,0,1-.46.31.41.41,0,0,1-.16,0,.5.5,0,0,1-.3-.63l2-5.18a.49.49,0,0,1,.46-.31.49.49,0,0,1,.47.31l1.94,5.18a.49.49,0,0,1-.29.63.38.38,0,0,1-.16,0,.46.46,0,0,1-.45-.31Zm-.36-1-.72-1.89-.71,1.89Z"/><path class="cls-11" d="M249.89,436.47a.5.5,0,0,1-.31.62l-.19,0h0a.62.62,0,0,1-.34-.1.83.83,0,0,1-.29-.3,2.44,2.44,0,0,1-.18-1.06.71.71,0,0,0-.11-.38.78.78,0,0,0-.26-.25,1.75,1.75,0,0,0-.49-.21h-1v1.91a.49.49,0,0,1-1,0v-5.19a.49.49,0,0,1,.49-.49h1.57a1.88,1.88,0,0,1,1.88,1.9,1.86,1.86,0,0,1-.68,1.44,1.58,1.58,0,0,1,.31.32,1.72,1.72,0,0,1,.28.95,2.52,2.52,0,0,0,0,.52A.51.51,0,0,1,249.89,436.47Zm-1.23-3.53a.92.92,0,0,0-.91-.92h-1.08v1.81h1.08A.9.9,0,0,0,248.66,432.94Z"/><path class="cls-11" d="M251.31,436.72v-5.19a.48.48,0,0,1,.49-.49h1a3.08,3.08,0,0,1,0,6.16h-1A.48.48,0,0,1,251.31,436.72Zm1-.5h.54a2.1,2.1,0,1,0,0-4.2h-.54Z"/><rect class="cls-13" x="78.95" y="247.61" width="76" height="15.74" transform="translate(233.9 510.96) rotate(-180)"/><polygon class="cls-13" points="134.56 263.22 136.69 283.33 162.95 471.62 170.47 471.62 149.74 283.33 148.05 263.22 134.56 263.22"/><polygon class="cls-13" points="63.42 471.62 70.95 471.62 97.22 283.33 99.35 263.22 85.86 263.22 84.17 283.33 63.42 471.62"/><rect class="cls-13" x="76.11" y="405.38" width="83.83" height="4.72" transform="translate(236.05 815.49) rotate(-180)"/><polygon class="cls-14" points="149.74 282.62 136.69 282.62 134.56 263.22 148.05 263.22 149.74 282.62"/><polygon class="cls-14" points="84.17 282.62 97.22 282.62 99.35 263.22 85.86 263.22 84.17 282.62"/><path class="cls-15" d="M197.22,429.33c-2.67-.32-68.44-31.69-70.19-34.47-.67-1.05,3.34-10.9,8.52-22.65,1.12-2.54,2.29-5.16,3.49-7.81,7.8-17.21,16.47-35.29,16.47-35.29L199.57,350l-17.68,34.72L178,392.3s19.81,23.28,21.41,26.53S199.88,429.66,197.22,429.33Z"/><path class="cls-11" d="M197.22,429.33c-2.67-.32-68.44-31.69-70.19-34.47-.81-1.28,5.27-15.55,12-30.46l42.85,20.28L178,392.3s19.81,23.28,21.41,26.53S199.88,429.66,197.22,429.33Z"/><path class="cls-7" d="M197.22,429.33c-2.67-.32-68.44-31.69-70.19-34.47-.67-1.05,3.34-10.9,8.52-22.65L178,392.3s19.81,23.28,21.41,26.53S199.88,429.66,197.22,429.33Z"/><path class="cls-8" d="M197.53,426.25c-10.9-5.53-55.37-26.8-66.56-31.43-.09,0-.12,0,0,.07,10.68,5.71,55.32,26.62,66.5,31.54C197.68,426.54,197.76,426.37,197.53,426.25Z"/><path class="cls-8" d="M196.32,414.45a9.82,9.82,0,0,0-7.88-.45,9.44,9.44,0,0,0-5.27,4.71c0,.06.09.12.13.06a11.34,11.34,0,0,1,12.95-4.18A.08.08,0,0,0,196.32,414.45Z"/><path class="cls-8" d="M181.77,395.44c-4.39-2.17-10.25-3.05-14.71-.75-.17.09,0,.34.12.33a67.51,67.51,0,0,1,14.4,1A.31.31,0,0,0,181.77,395.44Z"/><path class="cls-8" d="M184.54,398.39c-4.38-2.16-10.24-3.05-14.71-.74-.17.09,0,.33.12.32a68.26,68.26,0,0,1,14.41,1A.31.31,0,0,0,184.54,398.39Z"/><path class="cls-8" d="M187.31,401.35c-4.38-2.17-10.24-3.05-14.7-.75-.18.09-.05.33.12.33a67.51,67.51,0,0,1,14.4,1A.3.3,0,0,0,187.31,401.35Z"/><path class="cls-8" d="M190.09,404.3c-4.39-2.17-10.25-3.05-14.71-.75-.17.09,0,.33.12.33a67.51,67.51,0,0,1,14.4,1A.31.31,0,0,0,190.09,404.3Z"/><path class="cls-12" d="M168.05,290.13c-.43,12.53-32.72,79.33-32.72,79.33l46.52,20.7s38.17-74.05,35-101.78c-2.71-23.53-44.93-51.38-71.4-79.3H106.08c14.68,31.15,58.58,68.52,61.83,79.49a4.88,4.88,0,0,1,.14,1.53Z"/><path class="cls-8" d="M181.47,381.08c-7.63-3.64-5.39-2.7-13.06-6.26-3.75-1.74-22.59-10.54-26.37-11.58-.08,0-.14.1-.06.15,3.27,2.14,22.3,10.53,26.08,12.21,7.73,3.42,5.55,2.35,13.32,5.69A.11.11,0,1,0,181.47,381.08Z"/><path class="cls-8" d="M115.79,215.65a403.34,403.34,0,0,0,38.79,50.07c3.48,3.81,7.07,7.51,10.65,11.21,3,3.13,6.13,6.61,6.89,11.06.84,4.95-1.1,9.9-2.64,14.52-1.7,5.09-3.41,10.18-5.22,15.23-1.95,5.45-4,10.86-6.33,16.17-1.19,2.71-8.4,16-9.72,18.69-.66,1.32-1.33,2.64-2,3.95-.35.65-2.8,5.16-3.16,5.81-.11.21-.43.48-.13-.07.67-1.23,3.41-6.33,4-7.58,2.47-4.94,10.61-20.65,12.66-25.78s4-10.45,5.8-15.74,3.67-10.45,5.22-15.76a22.41,22.41,0,0,0,1.12-8.4,15.18,15.18,0,0,0-3.17-7.49c-3.11-4.16-7.17-7.68-10.71-11.48q-11-11.79-21-24.5a353.63,353.63,0,0,1-21.18-29.83C115.61,215.65,115.74,215.57,115.79,215.65Z"/><path class="cls-15" d="M168.58,496.71c-2.57.78-75.41-1.14-78.14-3-1-.69-1.38-11.31-1.42-24.16,0-2.78,0-5.64,0-8.55.12-18.9.7-38.94.7-38.94l48.73,1.15-2,38.9-.45,8.54s27.56,13.21,30.34,15.54S171.15,495.92,168.58,496.71Z"/><path class="cls-11" d="M168.58,496.71c-2.57.78-75.41-1.14-78.14-3-1.26-.84-1.5-16.35-1.4-32.71l47.39,1.11-.45,8.54s27.56,13.21,30.34,15.54S171.15,495.92,168.58,496.71Z"/><path class="cls-7" d="M168.58,496.71c-2.57.78-75.41-1.14-78.14-3-1-.69-1.38-11.31-1.42-24.16l47,1.1s27.56,13.21,30.34,15.54S171.15,495.92,168.58,496.71Z"/><path class="cls-8" d="M167.61,493.77c-12.2-.63-61.48-2-73.59-1.67-.09,0-.1.07,0,.08,12.08.88,61.37,1.84,73.59,1.79C167.86,494,167.87,493.78,167.61,493.77Z"/><path class="cls-8" d="M161.71,483.48a9.81,9.81,0,0,0-7.39,2.78,9.53,9.53,0,0,0-2.9,6.45c0,.07.14.08.15,0a11.33,11.33,0,0,1,10.13-9.08C161.8,483.62,161.81,483.48,161.71,483.48Z"/><path class="cls-8" d="M140.69,472c-4.89-.2-10.6,1.38-13.74,5.3-.12.15.09.32.24.25a67.8,67.8,0,0,1,13.57-4.95A.31.31,0,0,0,140.69,472Z"/><path class="cls-8" d="M144.42,473.59c-4.88-.2-10.6,1.38-13.74,5.3-.12.15.1.32.24.25a67.38,67.38,0,0,1,13.57-4.94A.31.31,0,0,0,144.42,473.59Z"/><path class="cls-8" d="M148.16,475.16c-4.89-.19-10.6,1.38-13.74,5.3-.13.15.09.32.24.25a67.3,67.3,0,0,1,13.56-4.94A.31.31,0,0,0,148.16,475.16Z"/><path class="cls-8" d="M151.89,476.73c-4.89-.19-10.6,1.38-13.74,5.3-.12.15.1.32.24.25A67.38,67.38,0,0,1,152,477.34.31.31,0,0,0,151.89,476.73Z"/><path class="cls-12" d="M140.72,469.86l-55.63-.69S98.28,262.13,94.3,255c-6.1-11-10.31-25.9-1.88-46h43.06s-2.28,21.41-2.08,22.29C146.61,289,140.72,469.86,140.72,469.86Z"/><path class="cls-8" d="M138.11,460.19c-11.07-.82-45.65-1.07-49.33-.56-.08,0-.08.15,0,.17,3.65.7,21.84,1.09,49.32.63A.12.12,0,0,0,138.11,460.19Z"/><path class="cls-8" d="M136.26,211.77c-.43,5.46-.22,14.76-3.37,14.9s-2.6-11.24-2.69-13.85c-.08-2.37-.89-2-1,.75-.24,7.59-.05,14.28,4,14s4-12.07,3.9-14.76C137.06,211.4,136.39,210.05,136.26,211.77Z"/><path class="cls-8" d="M133.1,227a23.26,23.26,0,0,0,.12,5.75c.05.15.66,0,.72-.1.38-.78.07-4.52.18-5.52A.51.51,0,0,0,133.1,227Z"/><path class="cls-8" d="M134.43,233.74c1.35,4.77,2.72,13.89,2.4,16.29,0,.22-.36.29-.4.06-.43-2.55-2.33-14.84-2.53-16.13S134.06,232.41,134.43,233.74Z"/><path class="cls-8" d="M126.15,237.5a17.2,17.2,0,0,1,2-1.7c.7-.55,1.41-1.09,2.14-1.61,1.5-1.05,3-2,4.61-2.95s3.11-1.75,4.7-2.56,3.45-1.48,5.13-2.32c.09,0,.18.09.08.15-1.59.87-3,2-4.59,2.93s-3.08,2-4.63,2.92-3,1.91-4.53,2.84c-.79.49-1.59,1-2.4,1.43a18.88,18.88,0,0,1-2.28,1.27C126.16,238,126,237.67,126.15,237.5Z"/><path class="cls-8" d="M94.72,421.11q1.05-11.55,1.93-23.13,1.75-23.14,2.81-46.34t1.39-46.41Q101,293.62,101,282c0-7.68.06-17.93-.34-25.6-.21-3.9-7.07-6.9-8.47-18.26a41.72,41.72,0,0,1,3.22-23.74c0-.1.19,0,.15.08a42.37,42.37,0,0,0-3.33,20.25,34.31,34.31,0,0,0,2.13,10.19c1.84,4.58,6.38,8.3,6.62,10.73.35,3.64.41,6.78.45,10.42,0,3.79.09,7.59.11,11.38q.06,11.61-.07,23.21-.26,23.1-1.22,46.19T97.61,393c-1.12,15.37-2.49,43.13-4.1,58.45-.18,1.76-.39,3.5-.65,5.25,0,.19-.35.15-.34,0C93,448.93,94,428.81,94.72,421.11Z"/><path class="cls-12" d="M188.06,110.71l-9.34,29.77a1.08,1.08,0,0,0,.91,1.66l15.58.89a2.54,2.54,0,0,0,2.26-1.48l9.33-29.77a1.08,1.08,0,0,0-.9-1.66l-15.58-.89A2.54,2.54,0,0,0,188.06,110.71Z"/><path class="cls-9" d="M189.91,110.8l-9.33,29.77a1.08,1.08,0,0,0,.9,1.66l15.58.89a2.53,2.53,0,0,0,2.26-1.48l9.34-29.77a1.08,1.08,0,0,0-.91-1.66l-15.58-.89A2.54,2.54,0,0,0,189.91,110.8Z"/><path class="cls-8" d="M194.11,112.42a1.33,1.33,0,1,1-1.22-1.43A1.33,1.33,0,0,1,194.11,112.42Z"/><path class="cls-15" d="M135.21,153.58c7.57,19.35,25.76,45,33.94,45.69,3.89.31,10.79,1.7,16.19-2.44,11.81-9,22.37-27.1,25-37.68.93-3.76-17-13.22-20-10.3-6.88,6.83-15.26,20.57-16.39,20.41-4.17-.59-19.66-15.32-30.46-25.69C130.37,131,132.19,145.86,135.21,153.58Z"/><path class="cls-15" d="M212.07,139.52c-1.45-7.85-3-9.64-.73-16.92,1.51-4.78-.89-7.79-4.59-4.12-6.05,6-6.31,16.52-5.35,20.2Z"/><path class="cls-15" d="M209.19,162.41s4.16-10.54,3.44-19.06c-.49-5.89-3-18.59-18.9-26.26-3.77-1.82-10.43-1.73-5.35,3.47,3.61,3.7,7,5,8.72,7.49,0,0-8.46,1.11-10.13,5a77.67,77.67,0,0,0-3.66,10.37,16.38,16.38,0,0,0,1.88.86s-1.46,3.65,1,9.13Z"/><path class="cls-15" d="M211.26,137.8c-2.22-2.15-7-6.65-12.22-9-5.78-2.57-17.6-5.95-19.44-1.67-1.36,3.14,3,4.83,3,4.83s-5.18-.37-5.79,2.74c-.55,2.83,2.93,3.93,2.93,3.93s-3.18.32-3.18,3.14c0,3.4,6.66,2.18,9.63,5.63C186.9,148.23,211.26,137.8,211.26,137.8Z"/><path class="cls-8" d="M197.35,135.4a25.2,25.2,0,0,0-14.61-3.47c-.13,0-.18.12-.06.13a61.59,61.59,0,0,1,14.64,3.4A0,0,0,0,0,197.35,135.4Z"/><path class="cls-8" d="M194.59,141.16c-2.24-1.24-9.05-3.43-14.79-2.6-.13,0-.18.13-.06.14a66.73,66.73,0,0,1,14.83,2.51S194.62,141.17,194.59,141.16Z"/><path class="cls-7" d="M210,167s-17.17,28.94-26.21,31.82-14.27,1.76-17.52,1.05a8.9,8.9,0,0,1-3.35-1.91c-8.47-6.93-22.88-30.43-28.5-43.48-4.22-9.8-3.11-18.35,4.05-15.1a24.77,24.77,0,0,1,6.49,4.79c12.75,12.21,27.72,24,28.48,23.7s9.36-12.13,9.36-12.13Z"/><path class="cls-8" d="M205.86,172.21c-1-.63-10.23-5-12.27-5.86s-10.31-4.65-12.48-5.4a.08.08,0,0,0-.07.14c2,1.14,10.33,4.95,12.38,5.91s11.31,5,12.39,5.35C205.9,172.38,205.92,172.25,205.86,172.21Z"/><path class="cls-3" d="M166.78,163.23a141.62,141.62,0,0,1-19.88,14.23c-2-3.16-3.94-6.41-5.71-9.56a123.49,123.49,0,0,0,17-11.74C161.4,158.88,164.33,161.3,166.78,163.23Z"/><path class="cls-16" d="M185.64,197.94a9,9,0,0,1-1.87.89c-9,2.88-14.28,1.75-17.53,1a8.9,8.9,0,0,1-3.35-1.91c-8.47-6.93-22.88-30.44-28.5-43.48-2.17-5-2.93-9.73-2.18-12.68C145.9,156,171.55,183.19,185.64,197.94Z"/><path class="cls-7" d="M153.68,215.48c-1.58,1.41-68.66,4.61-69,4.16s15.76-72.27,40-82c3.84-1.53,14-.89,15.19.54C149.47,150.15,154.68,214.6,153.68,215.48Z"/><path class="cls-15" d="M135.86,148.14c-3.76.31-9.17-6.19-11-11.06-.12-.34.84-3.52,1.83-7.44.59-2.39,1.19-5,1.57-7.53l14.94,6.11a39.79,39.79,0,0,0-2.93,9.27,6.07,6.07,0,0,0,0,1,1,1,0,0,1,0,.17C140.29,140.67,139.5,147.83,135.86,148.14Z"/><path class="cls-8" d="M143.25,128.22a39.57,39.57,0,0,0-2.93,9.28,5.05,5.05,0,0,0,0,1,.48.48,0,0,1,0,.17,7.83,7.83,0,0,1-1.61-.16c-9-1.56-9.85-13.12-9.92-16.24Z"/><path class="cls-15" d="M126.5,104.53c-1.64,5.58,1.47,21.61,5.47,25.15,5.79,5.14,15.18,5.53,19.52-1.41,4.21-6.73-.22-27.56-4.67-30.77C140.26,92.78,128.92,96.28,126.5,104.53Z"/><path class="cls-8" d="M125.65,119.83c4.44-.24,6.08-5.77,4.52-9.86,0,0,11.89.09,11.28-9.36a9.3,9.3,0,0,0,8.13,3.26l1.73,3.3c1.16-.5,2-4.07-1.26-6.37,0,0-.78-4.66-4.58-7a6.46,6.46,0,0,0-7-.1,9.72,9.72,0,0,0-7.26-.86A8.33,8.33,0,0,0,125.68,98s-5.65,1.83-6.12,6.06a8.61,8.61,0,0,0,2,6.74s-1.25,1.79-.07,5.21C122.23,118.25,124.32,119.9,125.65,119.83Z"/><path class="cls-8" d="M141.09,99.8a11.26,11.26,0,0,1,.31,2.29,9.53,9.53,0,0,1-.15,2.27,5.91,5.91,0,0,1-2.29,3.71,9.54,9.54,0,0,1-4.17,1.62c-.76.07-1.52.2-2.29.23s-1.55,0-2.33,0c.77.09,1.55.14,2.33.21s1.56-.05,2.35-.07a9.58,9.58,0,0,0,4.44-1.6,6.22,6.22,0,0,0,2.37-4.08A9.44,9.44,0,0,0,141.09,99.8Z"/><path class="cls-8" d="M125.68,98a10.84,10.84,0,0,0-4.19,1.47A6.56,6.56,0,0,0,118.6,103a7.33,7.33,0,0,0-.28,2.27,6.8,6.8,0,0,0,.39,2.23,6.14,6.14,0,0,0,2.84,3.38,6.79,6.79,0,0,1-2.44-3.51,7.5,7.5,0,0,1,0-4.2,5.53,5.53,0,0,1,1-1.84,8,8,0,0,1,1.59-1.43A13.72,13.72,0,0,1,125.68,98Z"/><path class="cls-8" d="M138.47,93.66a11,11,0,0,1,3.36-1.09,6.72,6.72,0,0,1,3.39.32,6.8,6.8,0,0,1,2.72,2,11.74,11.74,0,0,1,1.8,3,8.89,8.89,0,0,0-1.46-3.3,6.47,6.47,0,0,0-2.87-2.29,6.36,6.36,0,0,0-3.66-.22A8.39,8.39,0,0,0,138.47,93.66Z"/><path class="cls-8" d="M147.79,104.48A12.1,12.1,0,0,1,144,103a7.5,7.5,0,0,1-1.55-1.26,9.23,9.23,0,0,1-1.21-1.65,5,5,0,0,0,.89,1.92,5.34,5.34,0,0,0,1.58,1.45,6.53,6.53,0,0,0,2,.82A6.22,6.22,0,0,0,147.79,104.48Z"/><path class="cls-8" d="M142.67,114.38s-.07.06-.06.11c.27,1.06.39,2.32-.5,2.88,0,0,0,.07,0,.06C143.27,117,143.09,115.34,142.67,114.38Z"/><path class="cls-8" d="M141.48,113.47c-1.75.24-1.14,3.71.48,3.49S142.94,113.26,141.48,113.47Z"/><path class="cls-8" d="M149,113.26c0-.05.1,0,.1.08.16,1.08.52,2.29,1.55,2.48,0,0,0,.06,0,.06C149.43,115.92,149,114.31,149,113.26Z"/><path class="cls-8" d="M149.76,112c1.7-.43,2.45,3,.87,3.42S148.32,112.33,149.76,112Z"/><path class="cls-8" d="M139.83,110.71a13.07,13.07,0,0,0,1.26-.71,2.38,2.38,0,0,0,1.15-1,.74.74,0,0,0-.27-.87,1.85,1.85,0,0,0-1.87.14,2.66,2.66,0,0,0-1.34,1.42A.8.8,0,0,0,139.83,110.71Z"/><path class="cls-8" d="M151,110.69a13.94,13.94,0,0,1-1.45-.08,2.25,2.25,0,0,1-1.46-.36.74.74,0,0,1-.14-.9,1.84,1.84,0,0,1,1.74-.7,2.68,2.68,0,0,1,1.83.68A.8.8,0,0,1,151,110.69Z"/><path class="cls-8" d="M143.2,124.08c.26.27.51.62.91.66a2.91,2.91,0,0,0,1.18-.25,0,0,0,0,1,0,.06,1.5,1.5,0,0,1-1.4.57,1.17,1.17,0,0,1-.84-1C143.08,124.07,143.16,124.05,143.2,124.08Z"/><path class="cls-8" d="M144,120.75a3.69,3.69,0,0,0,2.73,1.2,4.58,4.58,0,0,0,1.33-.17,3.82,3.82,0,0,0,.48-.15.27.27,0,0,0,.17-.28h0l-.47-2.29c.33.1,2,.52,1.89.09a55.5,55.5,0,0,0-3.36-10.84.1.1,0,0,0-.19.06c.67,3.44,1.95,6.74,2.68,10.18a6.74,6.74,0,0,0-1.82-.22c-.06,0,.65,2.79.65,2.82a5.2,5.2,0,0,1-4-.51C144,120.59,143.93,120.68,144,120.75Z"/><path class="cls-7" d="M148.6,114c-.48-2.94.71-5.6,2.65-5.92s3.92,1.82,4.4,4.76-.7,5.59-2.65,5.91S149.08,117,148.6,114Zm.72-.12c.41,2.54,2,4.41,3.57,4.15s2.47-2.53,2.05-5.08-2-4.41-3.57-4.15S148.9,111.37,149.32,113.92Z"/><path class="cls-7" d="M136.83,116.24a5.06,5.06,0,1,1,5.86,4.51A5.24,5.24,0,0,1,136.83,116.24Zm.72-.12a4.34,4.34,0,1,0,3.5-5.32A4.52,4.52,0,0,0,137.55,116.12Z"/><path class="cls-7" d="M146.43,114.09c1.63-1.12,2.56-.48,2.56-.47l.21-.54s-1.14-.85-3,.44Z"/><path class="cls-7" d="M137.29,115.53l0-.63c-.41,0-10.12.72-11.15.93s-3.17,2.28-3.41,2.51l.44.46a11.67,11.67,0,0,1,3.06-2.33h0C127,116.3,133.81,115.78,137.29,115.53Z"/><path class="cls-15" d="M130.73,118.55s-3.8-5.08-6.11-3.71.64,8.81,3.44,9.75a2.82,2.82,0,0,0,3.73-1.63Z"/><path class="cls-8" d="M125.52,117a0,0,0,0,0,0,.07c2,.73,3,2.5,3.81,4.34A1.55,1.55,0,0,0,127,121s0,.11.06.1a1.71,1.71,0,0,1,1.92.54,8,8,0,0,1,1,1.52c.1.17.41.06.34-.13l0-.05C130.21,120.52,128.18,117.12,125.52,117Z"/><path class="cls-8" d="M141.17,143.51s0,0,0,0c.2,3.08.45,10.21-4.37,9.79a10.43,10.43,0,0,1-5.21-2.57,27.27,27.27,0,0,1-4.1-4.15,39.75,39.75,0,0,1-3.82-5.32c-.05-.08-.17,0-.12.08,1.15,1.88,2.11,3.83,3.43,5.6a23.51,23.51,0,0,0,4.43,4.59c1.59,1.22,3.48,2.43,5.54,2.51a3.88,3.88,0,0,0,3.95-2.94A17.11,17.11,0,0,0,141.17,143.51Z"/><path class="cls-3" d="M140.11,138.35l-3.73,9.1-11.26-11.63-3.24,3.69s11,18.42,11,17.59l3.82-7.84,5.39,5.51L141.79,141Z"/><path class="cls-8" d="M142.34,148c-.13-2.27-.2-4.55-.44-6.81,0-.08-.13-.12-.15,0-.47,2.18.08,10.85.06,12.93l0,0c-.23-.24-5-4.85-5-4.78-.82,1.25-3.63,7-3.82,7.48-1.73-2.93-9.1-14.47-11.15-17.24-.06-.08-.19,0-.14.07,1.53,3.09,11,18.32,11.18,18.28a88.68,88.68,0,0,0,4-8.29c.81,1,5.62,6.21,5.64,5.87A68.77,68.77,0,0,0,142.34,148Z"/><path class="cls-15" d="M120.76,153c-5.49,18.72-18.33,39.74-26.58,45.52-5,3.52-20.43,2.67-20.55-7.33s34.51-40.45,39.82-45.81C119.09,139.65,125.72,136.09,120.76,153Z"/><path class="cls-7" d="M121.63,153.48c-5.5,18.72-19.2,39.24-27.45,45-5,3.52-20.43,2.67-20.55-7.33s33.87-41.29,39.4-46.41C119.59,138.69,126.59,136.59,121.63,153.48Z"/><path class="cls-3" d="M116.17,167.65c-1.58,3.36-3.32,6.63-5.14,9.74A139.15,139.15,0,0,1,94,163.26c2.69-2.79,5.38-5.46,7.87-7.89A123.21,123.21,0,0,0,116.17,167.65Z"/><path class="cls-8" d="M81.44,199.19a20.64,20.64,0,0,0,6.27.4,16.91,16.91,0,0,0,5.89-1.74c3.9-1.95,6.63-5.47,9.08-9q4-5.74,7.61-11.77c2.39-4,4.61-8.14,6.76-12.29,1.09-2.1,2.09-4.23,3.13-6.34s2-4.21,3-6.36c.23-.54.45-1.08.67-1.63,0-.05.1,0,.08,0-.84,2.23-1.65,4.48-2.55,6.69-.11.28-.24.56-.36.85.9-1.65,1.81-3.29,2.76-4.91.05-.1.19,0,.14.1q-1.29,2.53-2.66,5c-.45.81-.91,1.62-1.36,2.44-.45,1-.9,2-1.38,3.05q-3,6.49-6.65,12.68c-2.41,4.12-5,8.16-7.7,12.08-2.5,3.61-5.18,7.33-9,9.61a16.17,16.17,0,0,1-12.25,1.75,12.77,12.77,0,0,1-1.47-.51A.1.1,0,0,1,81.44,199.19Z"/><path class="cls-15" d="M94.15,125.66c3.13-6.53,8.11-15.43,11.19-16.64s14.77-5.3,17.75-5.37,13.34,3.62,15.13,5.6c1.43,1.58-1.41,5-7.38,4.13-5.58-.8-6.88-1.26-8.51-1.1s-6.69,3.76-6.4,6.16c.17,1.42,3.29,4,5.85,3.72s4.23-2.69,7.44-4,7.63.42,7.5,1.72-1.79,1.39-5.41,4.78c-2.33,2.18-4.18,6.66-9,10.15a83.4,83.4,0,0,0-7.31,6.92Z"/><path class="cls-15" d="M105.34,109c3.25-2.72,10.77-7.08,17-7.44,4.17-.23,15,10.08,13.81,12.41s-3.34,1.64-6.45.22c-1.13-.52-6.65-4.75-8.13-3.78-2.13,1.39-6.12,7.19-6.12,7.19Z"/><path class="cls-8" d="M136.09,112.93c-.74-3.12-3.77-5.63-6.87-7.83a0,0,0,1,0-.06.07c.79.56,5.6,5,6.88,7.79C136.06,113,136.1,113,136.09,112.93Z"/><path class="cls-15" d="M105.34,109c3.25-2.72,10.77-7.08,17-7.44,4.17-.23,11.74,11,10.59,13.3s-4.36,1.52-7.44-.8c-1-.75-3.91-4.6-5.4-3.63-2.12,1.39-7.34,4.87-7.34,4.87Z"/><path class="cls-8" d="M115.77,113.11l1.23-1c.53-.42,1.06-.82,1.61-1.2a5.14,5.14,0,0,1,1.54-.84,2.55,2.55,0,0,1,1.63.19,8.88,8.88,0,0,1,2.84,2.52c.93,1,3,2.83,4.83,3.22a3.86,3.86,0,0,0,1.55.07,2.55,2.55,0,0,0,1.08-.41c1.21-1.08.71-2.92,0-4.31a24.11,24.11,0,0,0-5.33-6.84c-.5-.49-1-1-1.54-1.43a5.71,5.71,0,0,0-2-1.33c-1.26-.41-3.73.21-4.49.39-.06,0-.07-.08,0-.09.92-.24,3.34-1.19,5.34-.44A6.51,6.51,0,0,1,126,103c.61.53,1.2,1.08,1.78,1.64a29.23,29.23,0,0,1,3.14,3.53,12.66,12.66,0,0,1,2.21,4,3.71,3.71,0,0,1-.94,3.69,3.27,3.27,0,0,1-2.67.49,6.46,6.46,0,0,1-1.59-.53,27.45,27.45,0,0,1-3.16-2.13c-1-.79-1.71-1.85-2.73-2.55a2.2,2.2,0,0,0-1.68-.42,5.82,5.82,0,0,0-1.58.73,17.22,17.22,0,0,0-2.83,1.77C115.7,113.42,115.55,113.29,115.77,113.11Z"/><path class="cls-15" d="M102.78,111.47c1.31-1.36,4.79-7.61,6.73-9.25s10.1-6.84,12.75-5.65c3.33,1.49-2.26,6.56-4.89,8.55s-3.71,6.44-3.71,6.44Z"/><path class="cls-8" d="M121.25,101.67c-.9.61-1.76,1.33-2.59,2a21,21,0,0,0-2.36,2,9.26,9.26,0,0,0-1.58,2.63c-.2.46-.37.94-.53,1.42s-.29,1.07-.47,1.59c0,.06.06.09.08,0a25.48,25.48,0,0,1,1.29-2.75,13.09,13.09,0,0,1,1.78-2.57c1.39-1.55,3.08-2.79,4.48-4.33C121.41,101.71,121.32,101.63,121.25,101.67Z"/><path class="cls-8" d="M120.51,122.06a4.52,4.52,0,0,0,3.26-.9c.86-.57,1.69-1.2,2.56-1.77a10.87,10.87,0,0,1,2.75-1.42,12.44,12.44,0,0,1,3.44-.37,6.78,6.78,0,0,1,3.26.67c.82.44,1.65,1.36,1.14,2.36a4.11,4.11,0,0,1-1,1.15,10.48,10.48,0,0,1-1.22.88c-.86.55-1.77,1-2.58,1.65a16.56,16.56,0,0,0-2.67,3.11c-.3.4-2.26,3.15-3,4.07a17.07,17.07,0,0,1-2.06,2.19,23.79,23.79,0,0,1-2.31,1.67,14.55,14.55,0,0,0-2.42,1.93s-.08,0-.06-.05a12.78,12.78,0,0,1,4.09-3.5c1.93-1.26,6.43-8.08,7.23-9,1.32-1.53,3.24-2.18,4.73-3.49.35-.3.87-.73.89-1.23a1.4,1.4,0,0,0-.79-1.12,5.66,5.66,0,0,0-3.19-.56,14.16,14.16,0,0,0-3.31.35,10.57,10.57,0,0,0-2.7,1.22c-1,.58-1.89,1.2-2.89,1.71a4.47,4.47,0,0,1-3.17.52S120.46,122.05,120.51,122.06Z"/><path class="cls-8" d="M136.51,108.27c-.72-.41-1.43-.84-2.16-1.23,0,0,0,0,0,0,.87.41,1.77.75,2.65,1.15a2.8,2.8,0,0,1,1.65,1.51,2.1,2.1,0,0,1-.53,2,5.66,5.66,0,0,1-2,1.21s-.06,0,0-.06c1.11-.56,2.86-1.72,2.06-3.2A3.81,3.81,0,0,0,136.51,108.27Z"/><path class="cls-8" d="M132.5,115.24a4.73,4.73,0,0,0,2.55-.3,1.93,1.93,0,0,0,.8-.75,1.85,1.85,0,0,0,.19-.56.88.88,0,0,0,0-.62s.05-.08.06,0a2.19,2.19,0,0,0,.12.33,1,1,0,0,1,0,.3,1.48,1.48,0,0,1-.08.59,1.92,1.92,0,0,1-.81,1,3.18,3.18,0,0,1-2.85.1S132.46,115.23,132.5,115.24Z"/><path class="cls-15" d="M116.37,140c-2.55,7.49-20.88,49.05-25.68,54.51s-15.67,6.09-18.1-4.43,18.3-57.94,22.07-65.49C96.76,120.4,117.29,137.3,116.37,140Z"/><path class="cls-7" d="M119.6,147.24,90.68,128.18S73.63,168.28,72,186.79c-.87,10.19,11,18.53,21.51,5.29S119.6,147.24,119.6,147.24Z"/><path class="cls-8" d="M115,152.6c-4.26-2.44-21.27-13-24.77-15.58-.24-.18-.18-.38.1-.23,13,7,20.74,13,24.78,15.63C115.2,152.49,115.1,152.66,115,152.6Z"/><path class="cls-8" d="M103.5,176.49c3.68-6.05,7.23-12.17,10.47-18.46.9-1.76,1.8-3.53,2.67-5.31s1.69-3.42,2.45-5.17c-.63-.5-3.42-2.55-3.71-2.86-.09-.09,0-.25.14-.2.38.17,3.62,2.3,4.3,2.87.1.08-1.53,3.48-2.28,5.1s-1.51,3.24-2.29,4.84q-2.34,4.77-4.91,9.41-2.78,5-5.78,9.86C102.83,179.34,98.76,184.27,103.5,176.49Z"/></g></g></g></svg>