<svg id="Layer_1" data-name="Layer 1" xmlns="http://www.w3.org/2000/svg" viewBox="0 0 576.52 210.5"><defs><style>.cls-1{fill:#fff;}.cls-2{fill:#002d3a;}</style></defs><title>LogoInHeroSection</title><path class="cls-1" d="M286.31,414.85c-.63-.63-2.89.56-5.37,2.73-2.48-2.17-4.74-3.36-5.38-2.73s.56,2.88,2.74,5.35c-2.18,2.47-3.37,4.72-2.74,5.35s2.9-.55,5.38-2.72c2.48,2.17,4.74,3.36,5.37,2.72s-.56-2.88-2.74-5.35C285.75,417.73,287,415.48,286.31,414.85Z" transform="translate(-194 -281)"/><path class="cls-1" d="M420.07,478.33c-.78,0-1.43,2.12-1.62,5-2.87.18-5,.84-5,1.62s2.12,1.43,5,1.61c.19,2.86.84,5,1.62,5s1.44-2.11,1.62-5c2.87-.18,5-.83,5-1.61s-2.13-1.44-5-1.62C421.51,480.45,420.86,478.33,420.07,478.33Z" transform="translate(-194 -281)"/><path class="cls-1" d="M599.41,457.85c-.78,0-1.44,2.11-1.62,5-2.87.18-5,.84-5,1.61s2.13,1.44,5,1.62c.18,2.86.84,5,1.62,5s1.44-2.11,1.62-5c2.87-.18,5-.84,5-1.62s-2.12-1.43-5-1.61C600.85,460,600.19,457.85,599.41,457.85Z" transform="translate(-194 -281)"/><path class="cls-1" d="M628.2,402c-2.16,0-4,5.84-4.48,13.73-7.92.51-13.79,2.31-13.79,4.46s5.87,4,13.79,4.46c.51,7.89,2.32,13.73,4.48,13.73s4-5.84,4.48-13.73c7.92-.5,13.79-2.31,13.79-4.46s-5.87-3.95-13.79-4.46C632.17,407.85,630.36,402,628.2,402Z" transform="translate(-194 -281)"/><path class="cls-1" d="M756.78,288c-1.62,0-3,4.39-3.37,10.33-6,.37-10.37,1.73-10.37,3.35s4.41,3,10.37,3.35c.38,5.94,1.75,10.33,3.37,10.33s3-4.39,3.37-10.33c6-.37,10.37-1.73,10.37-3.35s-4.41-3-10.37-3.35C759.77,292.41,758.4,288,756.78,288Z" transform="translate(-194 -281)"/><path class="cls-1" d="M645,281c-.83,0-1.53,2.25-1.72,5.3-3.06.19-5.33.89-5.33,1.72s2.27,1.52,5.33,1.72c.19,3,.89,5.3,1.72,5.3s1.54-2.26,1.73-5.3c3.06-.2,5.32-.89,5.32-1.72s-2.26-1.53-5.32-1.72C646.56,283.25,645.86,281,645,281Z" transform="translate(-194 -281)"/><path class="cls-1" d="M203.71,305.72c-1.15,0-2.11,3.1-2.38,7.29-4.21.27-7.33,1.23-7.33,2.37s3.12,2.1,7.33,2.37c.27,4.19,1.23,7.3,2.38,7.3s2.11-3.11,2.38-7.3c4.21-.27,7.33-1.22,7.33-2.37s-3.12-2.1-7.33-2.37C205.82,308.82,204.86,305.72,203.71,305.72Z" transform="translate(-194 -281)"/><path class="cls-2" d="M357,386.77a20.72,20.72,0,0,1-8.1-1.6,21.5,21.5,0,0,1-6.62-4.35,20.15,20.15,0,0,1-4.45-6.46,20.25,20.25,0,0,1,0-15.92,20.83,20.83,0,0,1,4.45-6.5,21.69,21.69,0,0,1,6.62-4.42,20.95,20.95,0,0,1,16.13,0,22.05,22.05,0,0,1,6.62,4.28,20.42,20.42,0,0,1,4.49,6.25,17.83,17.83,0,0,1,1.66,7.54,4,4,0,0,1-1,3,3.94,3.94,0,0,1-2.88,1H344.67l.36,1.2a9.63,9.63,0,0,0,1.28,2.69,11.7,11.7,0,0,0,2.85,2.94,14,14,0,0,0,3.71,1.95A12.23,12.23,0,0,0,357,379a12.89,12.89,0,0,0,4.91-.92,12.36,12.36,0,0,0,4-2.62,5.94,5.94,0,0,1,1.52-1,3.82,3.82,0,0,1,1.58-.37,3.39,3.39,0,0,1,2.62,1.14,3.78,3.78,0,0,1,1.07,2.7,5.83,5.83,0,0,1-.21,1.57,3,3,0,0,1-.82,1.33,17.34,17.34,0,0,1-6.5,4.45A22.34,22.34,0,0,1,357,386.77Zm0-33.14a12.48,12.48,0,0,0-4.12.71,12.71,12.71,0,0,0-3.64,2,13.33,13.33,0,0,0-2.78,3,10.79,10.79,0,0,0-1.31,2.66l-.4,1.22h24.5l-.36-1.2a9.7,9.7,0,0,0-1.28-2.68,13,13,0,0,0-2.81-3,13.35,13.35,0,0,0-3.68-2A12.48,12.48,0,0,0,357,353.63Z" transform="translate(-194 -281)"/><path class="cls-2" d="M388.14,386.77a4,4,0,0,1-2.84-1.07,3.72,3.72,0,0,1-1.15-2.92V333.43a3.66,3.66,0,0,1,1.15-2.86,4,4,0,0,1,2.84-1.06,4.07,4.07,0,0,1,3,1.06,3.83,3.83,0,0,1,1.08,2.86v49.35a3.93,3.93,0,0,1-1.08,2.93A4.11,4.11,0,0,1,388.14,386.77Z" transform="translate(-194 -281)"/><path class="cls-2" d="M403.64,386.77a4,4,0,0,1-2.84-1.07,3.72,3.72,0,0,1-1.15-2.92V333.43a3.66,3.66,0,0,1,1.15-2.86,4,4,0,0,1,2.84-1.06,4.07,4.07,0,0,1,3,1.06,3.79,3.79,0,0,1,1.08,2.86v49.35a3.89,3.89,0,0,1-1.08,2.92A4.07,4.07,0,0,1,403.64,386.77Z" transform="translate(-194 -281)"/><path class="cls-2" d="M455,358.25a20.73,20.73,0,0,0-4.62-6.49,21,21,0,0,0-6.68-4.27,20.61,20.61,0,0,0-7.8-1.53,17.2,17.2,0,0,0-7.06,1.35,13.33,13.33,0,0,0-4.95,3.65v-17.5a3.82,3.82,0,0,0-1.09-2.87,4.61,4.61,0,0,0-5.93,0,3.69,3.69,0,0,0-1.17,2.87v49.32a3.75,3.75,0,0,0,1.15,2.92,4,4,0,0,0,2.84,1.07,4.07,4.07,0,0,0,3-1.07,3.91,3.91,0,0,0,1.08-2.92v-1.21a14.7,14.7,0,0,0,2.12,1.87,17.14,17.14,0,0,0,2.93,1.7,19.92,19.92,0,0,0,3.39,1.18,15.26,15.26,0,0,0,3.71.45,20.61,20.61,0,0,0,7.8-1.53,21.56,21.56,0,0,0,6.68-4.23,20.49,20.49,0,0,0,4.62-6.46,20.06,20.06,0,0,0,0-16.3Zm-7.45,13a12.7,12.7,0,0,1-11.65,7.53,11.32,11.32,0,0,1-4.73-1,11.92,11.92,0,0,1-6.36-6.55,12.77,12.77,0,0,1-.92-4.83,12.92,12.92,0,0,1,.92-4.85,12.31,12.31,0,0,1,2.54-4,11.94,11.94,0,0,1,3.82-2.68,11.63,11.63,0,0,1,4.73-1,12.83,12.83,0,0,1,4.94,1,12.2,12.2,0,0,1,4,2.68,12.67,12.67,0,0,1,2.68,4,12.06,12.06,0,0,1,1,4.85A11.93,11.93,0,0,1,447.52,371.26Z" transform="translate(-194 -281)"/><path class="cls-2" d="M504.83,387.65V349.91a3.79,3.79,0,0,0-1.08-2.86,4.52,4.52,0,0,0-5.82,0,3.69,3.69,0,0,0-1.15,2.86v.44h0v16.14a11.92,11.92,0,0,1-1.07,4.83,12.19,12.19,0,0,1-2.72,3.93,12.85,12.85,0,0,1-4,2.64,12.44,12.44,0,0,1-4.91,1,12.62,12.62,0,0,1-5-1,12.42,12.42,0,0,1-6.69-6.57,11.92,11.92,0,0,1-1.07-4.83V350.35h0v-.44a3.79,3.79,0,0,0-1.08-2.86,4.07,4.07,0,0,0-3-1.06,4,4,0,0,0-2.84,1.06,3.66,3.66,0,0,0-1.15,2.86v16.75a2.28,2.28,0,0,0,0,.26,19.47,19.47,0,0,0,1.61,7.53,20.2,20.2,0,0,0,4.45,6.47,21.18,21.18,0,0,0,6.62,4.34,21.3,21.3,0,0,0,16.2,0,21.68,21.68,0,0,0,4.64-2.68v5.07h0v4.8c0,7.06-5.7,12.19-13,12.61a4.18,4.18,0,0,0-4,4.14,3.94,3.94,0,0,0,4,3.8c12.34,0,21.11-9.31,21.11-20.55v-4.8Z" transform="translate(-194 -281)"/><path class="cls-2" d="M290.09,386.78a4.05,4.05,0,0,1-3.79-2.53l-6.77-16.74a4,4,0,0,1,2.29-5.21,4.13,4.13,0,0,1,5.3,2.25l6.76,16.74a3.9,3.9,0,0,1,0,3.07,4.05,4.05,0,0,1-2.24,2.14A4.12,4.12,0,0,1,290.09,386.78Z" transform="translate(-194 -281)"/><path class="cls-2" d="M316.57,386.78a4.08,4.08,0,0,1-3.8-2.53L306,367.51a4,4,0,0,1,2.28-5.21,4.12,4.12,0,0,1,1.51-.28,4.05,4.05,0,0,1,3.79,2.53l6.77,16.74a3.9,3.9,0,0,1-.05,3.07,4,4,0,0,1-2.24,2.14A4.07,4.07,0,0,1,316.57,386.78Z" transform="translate(-194 -281)"/><path class="cls-2" d="M316.56,386.78a4.08,4.08,0,0,1-3.74-2.42,3.94,3.94,0,0,1-.05-3.07l13.13-32.88a4.07,4.07,0,0,1,3.79-2.52,4.14,4.14,0,0,1,1.51.29,4,4,0,0,1,2.28,5.2l-13.13,32.88A4,4,0,0,1,316.56,386.78Z" transform="translate(-194 -281)"/><path class="cls-2" d="M310.35,356.54l-3.14-7.78h0a4,4,0,0,0-2.39-2.58,4.14,4.14,0,0,0-1.51-.29,4.07,4.07,0,0,0-3.79,2.52L286.3,381.29a3.94,3.94,0,0,0,0,3.07,4.09,4.09,0,0,0,2.24,2.14,4.16,4.16,0,0,0,1.51.28,4.06,4.06,0,0,0,3.79-2.52l9.42-23.44h0s3.3-5.41,8.81.07Z" transform="translate(-194 -281)"/><ellipse class="cls-2" cx="82.69" cy="68.9" rx="4.08" ry="4.01"/><path class="cls-2" d="M272.91,351.42s3.43,7.28,6.87,6c3.24-1.24.69-9,.69-9Z" transform="translate(-194 -281)"/><ellipse class="cls-2" cx="82.69" cy="68.9" rx="4.08" ry="4.01"/><path class="cls-2" d="M548,386.77h-6.88c-16.07,0-29.14-12.85-29.14-28.63s13.07-28.63,29.14-28.63,29.14,12.84,29.14,28.63v6.76a3.82,3.82,0,0,1-7.63,0v-6.76a21.51,21.51,0,1,0-21.51,21.13H548a3.75,3.75,0,1,1,0,7.5Z" transform="translate(-194 -281)"/><path class="cls-2" d="M569.17,380.37l-15.86-15.58a13.32,13.32,0,0,0,1.77-6.65,13.93,13.93,0,1,0-13.93,13.69,14,14,0,0,0,6.77-1.74l15.85,15.58a3.86,3.86,0,0,0,5.4,0A3.7,3.7,0,0,0,569.17,380.37Zm-34.32-22.23a6.3,6.3,0,1,1,6.3,6.19A6.25,6.25,0,0,1,534.85,358.14Z" transform="translate(-194 -281)"/><path class="cls-2" d="M605.27,368.37a19.53,19.53,0,0,0-3.19-38.86H589.61a11.82,11.82,0,0,0-11.91,11.7V364.9a3.82,3.82,0,0,0,7.63,0V341.21a4.25,4.25,0,0,1,4.28-4.21h12.47a12.08,12.08,0,1,1,0,24.16h-5.46a3.78,3.78,0,0,0-3.82,3.74.51.51,0,0,0,0,.13,3.68,3.68,0,0,0,1.1,2.79l18.17,17.85a3.85,3.85,0,0,0,5.39,0,3.7,3.7,0,0,0,0-5.3Z" transform="translate(-194 -281)"/><ellipse class="cls-2" cx="387.51" cy="101.04" rx="4.81" ry="4.73"/></svg>