<svg id="Layer_1" data-name="Layer 1" xmlns="http://www.w3.org/2000/svg" viewBox="0 0 20 20"><defs><style>.cls-1{fill:#32cc36;}</style></defs><title>AlertIcon</title><path class="cls-1" d="M317.57,374.07a10,10,0,1,0,10,10A10,10,0,0,0,317.57,374.07Zm0,18.46a8.46,8.46,0,1,1,8.46-8.46A8.47,8.47,0,0,1,317.57,392.53Z" transform="translate(-307.57 -374.07)"/><circle class="cls-1" cx="10" cy="5.45" r="1.35"/><path class="cls-1" d="M317.57,382.2a1.35,1.35,0,0,0-1.34,1.35v5.63a1.35,1.35,0,1,0,2.69,0v-5.63A1.36,1.36,0,0,0,317.57,382.2Z" transform="translate(-307.57 -374.07)"/></svg>