<svg id="Layer_1" data-name="Layer 1" xmlns="http://www.w3.org/2000/svg" viewBox="0 0 40.01 40"><defs><style>.cls-1{fill:#5a5a5a;}</style></defs><title>AllergiesIcon</title><path class="cls-1" d="M317.5,404.07a20.08,20.08,0,0,1-20-20.08,20,20,0,0,1,34.2-14,19.79,19.79,0,0,1,5.81,14.13,20.07,20.07,0,0,1-20,19.92Zm-8.13-12.21a3.25,3.25,0,0,1,.27.95c0,.12-.32.44-.44.56l-3,3-1.26,1.24.22.22a17.43,17.43,0,0,0,12.24,4.77,18.83,18.83,0,0,0,13.39-5.5,18.56,18.56,0,0,0,.5-25.51l-.24-.25-.48.58a6.2,6.2,0,0,1-.46.54l-5.16,5.17-1.42,1.42a2.12,2.12,0,0,1-1.37.59.6.6,0,0,1-.49-.18c-.27-.4-.13-.55.37-.93a4.26,4.26,0,0,0,.38-.32c1.57-1.61,3.17-3.21,4.77-4.8l2.1-2.1c.16-.16.3-.33.44-.49l.37-.44-.21-.2a17.35,17.35,0,0,0-12.15-4.72,18.74,18.74,0,0,0-14.1,6.23c-7,7.9-5.54,19.14.18,24.69l.21.21,1.34-1.34c1-1.06,2.09-2.12,3.16-3.15a2.56,2.56,0,0,1,.7-.38l.11,0Z" transform="translate(-297.52 -364.07)"/><path class="cls-1" d="M317,396.86a9.64,9.64,0,0,1-1.52-.12c-2.07-.34-3.49-2-3.87-4.45a3.38,3.38,0,0,0-1.68-2.64,5.26,5.26,0,0,1-1.56-6.89,2,2,0,0,0,.09-1.51c-1.32-3.43-.38-6.13,2.78-8a17,17,0,0,0,1.69-1.21l.54-.41.46.84c.48.86,1,1.73,1.42,2.62a5.56,5.56,0,0,1,.19,5.42,1.23,1.23,0,0,0,.19,1.26c1.52,1.32,2,3,1.38,5.33a1.34,1.34,0,0,0,.83,1.84c2.42,1.16,3.61,3.24,3.77,6.56a.81.81,0,0,1-.37.45A11.11,11.11,0,0,1,317,396.86ZM316,390a2.65,2.65,0,0,0-1.92.76,2.27,2.27,0,0,0-.63,1.65,3.32,3.32,0,0,0,3.31,3,2.45,2.45,0,0,0,2.6-2.38,2.85,2.85,0,0,0-.86-2,3.51,3.51,0,0,0-2.46-1h0Zm-3.86-8.08a2.85,2.85,0,0,0-1,.18,3,3,0,0,0-1.83,3.12,6.31,6.31,0,0,0,1,2.61,2.93,2.93,0,0,0,2.43,1.33h0a2.61,2.61,0,0,0,1-.18,3.64,3.64,0,0,0,2.14-3.08v-.09l0-.09-.33-.77a9.25,9.25,0,0,0-.88-1.75A3,3,0,0,0,312.15,381.91Zm-.06-7.05a2.52,2.52,0,0,0-1.79.78,3.09,3.09,0,0,0-.81,2.26,2.67,2.67,0,0,0,2.39,2.76h0a2.44,2.44,0,0,0,1.71-.77,3.42,3.42,0,0,0,1-2.4,2.44,2.44,0,0,0-2.41-2.63h0Z" transform="translate(-297.52 -364.07)"/><path class="cls-1" d="M325.73,392.94a6.48,6.48,0,0,1-2.9-.63c-.29-.15-.32-.23-.32-.24a8,8,0,0,0-4.17-4.48,7.14,7.14,0,0,0-.36-5,9.9,9.9,0,0,1-.62-3.65c.05-.79,0-1.59,0-2.44v-.42l.21.23a15.17,15.17,0,0,1,1.51,1.88c.66,1,1.08,1.86,0,2.74l-.74.6.95-.06.81,0c2.52,0,3.78.87,4.16,2.89l-1.51,1.1h.94l1.18,0c.39,0,.77,0,1.16,0a10.71,10.71,0,0,1,1.36.08A5.47,5.47,0,0,1,332,389.1a1.35,1.35,0,0,1-.15,1.07A7.74,7.74,0,0,1,325.73,392.94Z" transform="translate(-297.52 -364.07)"/></svg>