<svg id="Layer_1" data-name="Layer 1" xmlns="http://www.w3.org/2000/svg" viewBox="0 0 43.25 43.25"><defs><style>.cls-1{fill:#3c3c3c;}.cls-2{fill:#fff;}</style></defs><title>CallIcon</title><path class="cls-1" d="M339.2,384.09a21.63,21.63,0,1,1-21.66-21.65A21.59,21.59,0,0,1,339.2,384.09Z" transform="translate(-295.95 -362.44)"/><path class="cls-2" d="M322.38,396.79a10.93,10.93,0,0,1-5.52-1.79,27.43,27.43,0,0,1-10.21-10.19c-1.27-2.24-2.22-4.55-1.57-7.21a6.08,6.08,0,0,1,2.05-3.32,3.06,3.06,0,0,1,3.13-.5,1.93,1.93,0,0,1,1,1.06c.56,1.4,1,2.85,1.5,4.28a1.62,1.62,0,0,1-.42,1.83l-.26.27c-1.64,1.7-1.64,1.7-.38,3.69a17.62,17.62,0,0,0,6.37,5.82,1,1,0,0,0,1.44-.17c2.16-2.32,2-2,4.82-1l1.88.64a2.57,2.57,0,0,1,1.2,4.31A6.27,6.27,0,0,1,322.38,396.79Z" transform="translate(-295.95 -362.44)"/><path class="cls-2" d="M330.28,386.83c-.11.52.33,1.49-.67,1.51s-.68-.95-.72-1.54a14.51,14.51,0,0,0-14.33-14.06c-.19,0-.43.06-.56,0a6.18,6.18,0,0,1-.74-.71c.27-.21.54-.62.79-.61a24.72,24.72,0,0,1,4.13.43A15.9,15.9,0,0,1,330.28,386.83Z" transform="translate(-295.95 -362.44)"/><path class="cls-2" d="M326.64,386c-.32.33-.6.89-.95.93-.7.09-.66-.57-.67-1.08a9.34,9.34,0,0,0-9.21-9.19c-.51,0-1.1,0-1.1-.7s.64-.73,1.18-.71A11.19,11.19,0,0,1,326.64,386Z" transform="translate(-295.95 -362.44)"/><path class="cls-2" d="M316.6,379.14a5.77,5.77,0,0,1,5.87,5.63c0,.33-.4.64-.62,1-.24-.3-.65-.58-.7-.91-.41-2.69-1.65-3.94-4.33-4.34-.33-.05-.61-.45-.91-.69Z" transform="translate(-295.95 -362.44)"/></svg>