<svg id="Layer_1" data-name="Layer 1" xmlns="http://www.w3.org/2000/svg" viewBox="0 0 20 14.22"><defs><style>.cls-1{fill:#fff;}</style></defs><title>CheckIcon</title><path class="cls-1" d="M664.45,396.51a1.72,1.72,0,0,0-2.19.4q-4.66,4.65-9.32,9.32l-.27.26-.18-.16c-.85-.77-1.68-1.55-2.53-2.31-.66-.61-1.3-1.24-2-1.8a1.63,1.63,0,0,0-2.63,1.11,1.78,1.78,0,0,0,.66,1.59l5.47,5a1.71,1.71,0,0,0,2.63,0l10.56-10.48a2.5,2.5,0,0,0,.27-.29A1.7,1.7,0,0,0,664.45,396.51Z" transform="translate(-645.32 -396.27)"/></svg>