<svg id="Layer_1" data-name="Layer 1" xmlns="http://www.w3.org/2000/svg" viewBox="0 0 49.02 39.42"><defs><style>.cls-1{fill:#5a5a5a;}</style></defs><title>CityIcon</title><path class="cls-1" d="M321.45,382.32c-.64-1.12-1.2-2.05-1.72-3a9.81,9.81,0,0,1,6.13-14.27,9.84,9.84,0,0,1,11.27,14,41.62,41.62,0,0,1-2.63,4.33,1.6,1.6,0,0,0-.13,1.72q3.69,8.55,7.34,17.11c.68,1.6.5,1.87-1.22,1.87H294.58c-1.63,0-1.82-.3-1.18-1.8,2.67-6.25,5.36-12.49,8-18.75a1.77,1.77,0,0,1,1.95-1.25c5.55,0,11.1,0,16.65,0ZM306.12,384a8.5,8.5,0,0,0,1.35,1.48,19.68,19.68,0,0,0,2.2,1.11c2.24,1.12,2.79,2.8,1.28,4.78-2.07,2.7-1,3.49,1.61,4.21.19,0,.38.12.57.15,2.29.32,4.58.7,6.88.94,4,.41,7.47,1.64,8.95,5.83h11.18L333,385.82c-1.35,2.15-2.59,4.14-3.85,6.12-.78,1.23-1.21,1.22-2-.06-1.44-2.39-2.88-4.78-4.27-7.19a1.48,1.48,0,0,0-1.49-.84c-4.68,0-9.36,0-14,0C307.09,383.87,306.79,383.91,306.12,384ZM295,402.46h32.32c-1.36-2.8-3.68-3.77-6.41-4.17a88,88,0,0,1-9.61-1.62c-3.25-.84-3.83-3-1.93-5.7,1.32-1.91,1.22-2.33-1-3.29-1.76-.78-3.44-1.62-3.68-3.77-1.77-.08-1.77-.08-2.37,1.34l-3.06,7.14C297.89,395.71,296.47,399,295,402.46Zm33.22-11.86c2.58-4.16,5.14-8.07,7.47-12.12a8.14,8.14,0,0,0-2.08-10.4,8.32,8.32,0,0,0-12.5,10.51c1.31,2.36,2.74,4.66,4.12,7Z" transform="translate(-293.06 -364.68)"/><path class="cls-1" d="M328.42,369.94a4.15,4.15,0,1,1-4.21,4.16A4.15,4.15,0,0,1,328.42,369.94Zm-2.66,4.2a2.62,2.62,0,1,0,2.56-2.69A2.65,2.65,0,0,0,325.76,374.14Z" transform="translate(-293.06 -364.68)"/></svg>