<svg id="Layer_1" data-name="Layer 1" xmlns="http://www.w3.org/2000/svg" viewBox="0 0 70.94 75"><defs><style>.cls-1{fill:#32cc36;}</style></defs><title>CompanyPoliciesIcon</title><path class="cls-1" d="M438.57,403.71c-6.35-2.56-11.2-6.73-14-13.09a39,39,0,0,1-3.09-13.53c-.13-2,0-4,0-6.2,1.67-.11,3.35-.16,5-.35a23.29,23.29,0,0,0,11.3-4.52,1.54,1.54,0,0,1,2,0,32.6,32.6,0,0,0,12.78,4.9c1.09.13,2.19.15,3.28.22,1.31,10.91-1.67,26.69-16.92,32.57Zm-2.66-10.85,12.34-17.74c-3.38-.49-3.69-.48-6,2.13s-4.27,5.08-6.48,7.73a5.73,5.73,0,0,0-5.7-2.25c-.41.08-1,.35-1.08.67s.24.82.52,1.13c1.49,1.66,3.11,3.22,4.5,5A22.27,22.27,0,0,1,435.91,392.86Z" transform="translate(-385.16 -328.71)"/><path class="cls-1" d="M410,365.81H398.33c-1.05,0-2.07-.14-2.24-1.4s.51-1.91,1.84-1.9c4.44,0,8.89,0,13.33,0,3.79,0,7.58,0,11.37,0,1.1,0,2,.18,2.12,1.48s-.88,1.71-1.89,1.72c-4.28.05-8.56,0-12.84,0Z" transform="translate(-385.16 -328.71)"/><path class="cls-1" d="M417.45,386.31c-6.7,0-13.28,0-19.86-.07-.52,0-1.35-.89-1.46-1.48-.23-1.16.66-1.62,1.74-1.62h18.81Z" transform="translate(-385.16 -328.71)"/><path class="cls-1" d="M415.5,372.76v3.3H397.81c-1,0-1.7-.47-1.74-1.54a1.54,1.54,0,0,1,1.7-1.76C403.61,372.74,409.46,372.76,415.5,372.76Z" transform="translate(-385.16 -328.71)"/><path class="cls-1" d="M405,352.2c2.3,0,4.6,0,6.9,0,1.1,0,1.86.42,1.87,1.57s-.67,1.62-1.81,1.61c-4.71,0-9.42,0-14.13,0-1.11,0-1.8-.44-1.78-1.63s.84-1.55,1.89-1.55Z" transform="translate(-385.16 -328.71)"/><path class="cls-1" d="M401.53,345.78a22.25,22.25,0,0,1-3.92-.07,2.12,2.12,0,0,1-1.44-1.47,2.08,2.08,0,0,1,1.35-1.58,67.65,67.65,0,0,1,8.18,0c.49,0,1.23,1,1.27,1.64s-.81,1.32-1.35,1.4A26.56,26.56,0,0,1,401.53,345.78Z" transform="translate(-385.16 -328.71)"/><path class="cls-1" d="M389.35,400.23c-3.26,0-4.15-.9-4.15-4.2V379.79q0-23.49,0-47c0-2.12.64-3.32,2.2-4.11h34.11c1.67,1.62,3.32,3.25,5,4.89,4.34,4.26,8.82,8.68,13.43,12.81a6.63,6.63,0,0,1,2.41,6c-.12,2-.09,4-.06,6.05,0,.52,0,1.05,0,1.58h0a23.46,23.46,0,0,1-2.44-1.48,2,2,0,0,1-.16-.83c0-1.41,0-2.83,0-4.33v-2.52H422c-2,0-2.35-.34-2.35-2.4q0-5.08,0-10.16v-6.8H388v66h16.76c5.08,0,10.15,0,15.23,0,1.38,0,1.91.27,2.35,1.15a9,9,0,0,0,1.06,1.57h-34Zm33.08-52.16H437.8l-15.37-14.38Z" transform="translate(-385.16 -328.71)"/></svg>