<svg id="Layer_1" data-name="Layer 1" xmlns="http://www.w3.org/2000/svg" viewBox="0 0 40.33 40"><defs><style>.cls-1{fill:#5a5a5a;}</style></defs><title>companyIcon</title><path class="cls-1" d="M297.41,366.15a3.23,3.23,0,0,1,.91-1.48,3.07,3.07,0,0,1,2.61-.47q6.65,1,13.3,2l4.47.69a2.5,2.5,0,0,1,2.24,2.65v9.48l2.39.49L335.67,382a2.47,2.47,0,0,1,2.06,2.55q0,8.44,0,16.89a2.5,2.5,0,0,1-2,2.63l-.1.05H299.53a2.63,2.63,0,0,1-1.63-1,9.25,9.25,0,0,1-.49-1Zm6.71,36.27v-7.31a2.53,2.53,0,0,1,2.74-2.75h4.6a2.5,2.5,0,0,1,2.74,2.74c0,2.28,0,4.56,0,6.85v.47h5V369.81c0-.11,0-.21,0-.32a.82.82,0,0,0-.77-.92c-.85-.14-1.71-.26-2.57-.39l-15.63-2.36c-.81-.12-1.19.19-1.19,1v34.53c0,.76.31,1.07,1.08,1.07h3.58ZM321,380.78v21.66h13.92c.9,0,1.17-.28,1.17-1.18V384.8c0-.87-.18-1.07-1-1.24l-10.26-2Zm-8.44,21.64v-7.36c0-.72-.31-1-1-1h-4.6c-.82,0-1.08.27-1.08,1.09,0,2.29,0,4.59,0,6.89v.41Z" transform="translate(-297.41 -364.11)"/><path class="cls-1" d="M305,372.2h1.61a.83.83,0,0,1,.89.84.85.85,0,0,1-.91.83h-3.22a.85.85,0,0,1-.91-.83.82.82,0,0,1,.89-.84Z" transform="translate(-297.41 -364.11)"/><path class="cls-1" d="M305,378.91h-1.57a.85.85,0,0,1-.93-.84.82.82,0,0,1,.9-.83h3.22a.83.83,0,0,1,.92.81.86.86,0,0,1-.92.86Z" transform="translate(-297.41 -364.11)"/><path class="cls-1" d="M305,382.28h1.57a.84.84,0,1,1,0,1.67h-3.19a.84.84,0,0,1-.92-.85.83.83,0,0,1,.91-.82Z" transform="translate(-297.41 -364.11)"/><path class="cls-1" d="M305,387.32h1.61a.82.82,0,0,1,.87.82.84.84,0,0,1-.89.85h-3.26a.85.85,0,0,1-.89-.85.82.82,0,0,1,.87-.82Z" transform="translate(-297.41 -364.11)"/><path class="cls-1" d="M313.36,373.87h-1.58a.84.84,0,0,1-.92-.85.8.8,0,0,1,.89-.82H315a.84.84,0,0,1,.91.82.84.84,0,0,1-.92.85Z" transform="translate(-297.41 -364.11)"/><path class="cls-1" d="M313.34,378.91h-1.57a.83.83,0,0,1-.91-.82.81.81,0,0,1,.91-.85H315a.83.83,0,0,1,.9.83.84.84,0,0,1-.9.84Z" transform="translate(-297.41 -364.11)"/><path class="cls-1" d="M313.39,382.28H315a.83.83,0,0,1,.89.84.85.85,0,0,1-.91.83h-3.22a.83.83,0,0,1-.9-.83.81.81,0,0,1,.88-.84Z" transform="translate(-297.41 -364.11)"/><path class="cls-1" d="M313.41,387.32H315a.83.83,0,0,1,.87.82.84.84,0,0,1-.89.85h-3.26a.82.82,0,0,1-.88-.85.8.8,0,0,1,.86-.82Z" transform="translate(-297.41 -364.11)"/><path class="cls-1" d="M328.5,387.32h1.61a.84.84,0,1,1,0,1.67h-3.26a.82.82,0,0,1-.87-.82.81.81,0,0,1,.87-.85Z" transform="translate(-297.41 -364.11)"/><path class="cls-1" d="M328.48,392.36h1.65a.84.84,0,1,1,0,1.67q-1.65,0-3.3,0a.83.83,0,0,1-.86-.83.81.81,0,0,1,.85-.84Z" transform="translate(-297.41 -364.11)"/><path class="cls-1" d="M328.49,397.4h1.65a.84.84,0,1,1,0,1.67h-3.26a.84.84,0,1,1,0-1.67Z" transform="translate(-297.41 -364.11)"/></svg>