<svg id="Layer_1" data-name="Layer 1" xmlns="http://www.w3.org/2000/svg" viewBox="0 0 30.04 30.03"><defs><style>.cls-1,.cls-2{fill:#44b549;}.cls-2{fill-rule:evenodd;}</style></defs><title>ContactIcon</title><path class="cls-1" d="M595.33,399a15,15,0,1,1,15-15A15,15,0,0,1,595.33,399Zm0-28.08A13.06,13.06,0,1,0,608.4,384,13.07,13.07,0,0,0,595.33,370.94Z" transform="translate(-580.31 -368.98)"/><path class="cls-2" d="M588.31,388.41a2.85,2.85,0,0,0,.23-.26c.78-1,1.55-2,2.32-3a.65.65,0,0,1,1-.12,17.68,17.68,0,0,0,1.75,1.27,3.8,3.8,0,0,0,2.67.38,2.18,2.18,0,0,0,.91-.49l1.42-1.19a.61.61,0,0,1,1,.12l2.49,3.29.23.26,0,0-.11-.32c-.57-1.4-1.14-2.79-1.72-4.19a1,1,0,0,1,.24-1.2c.78-.77,1.56-1.54,2.33-2.32.12-.11.23-.26.4-.19s.14.27.14.42v8a1.14,1.14,0,0,1-1.11,1.23H588.3a1.87,1.87,0,0,1-.73-.18,1,1,0,0,1-.59-1v-8.15a1.34,1.34,0,0,1,0-.2c0-.19.17-.24.34-.14l.18.15,2.29,2.26a1,1,0,0,1,.24,1.24c-.55,1.29-1.1,2.58-1.64,3.87l-.15.38.06,0" transform="translate(-580.31 -368.98)"/><path class="cls-2" d="M595.28,377.87h7.11a1.46,1.46,0,0,1,.46.06c.7.22.92.73.43,1.35a7.65,7.65,0,0,1-.82.79l-5.3,4.79a2.7,2.7,0,0,1-3.57.1c-.91-.77-1.76-1.58-2.63-2.37-1.13-1-2.24-2.06-3.35-3.09a1.87,1.87,0,0,1-.37-.47.74.74,0,0,1,.57-1.13,2.08,2.08,0,0,1,.44,0h7" transform="translate(-580.31 -368.98)"/></svg>