<svg id="Layer_1" data-name="Layer 1" xmlns="http://www.w3.org/2000/svg" viewBox="0 0 47.5 47.5"><defs><style>.cls-1{fill:#3c3c3c;}.cls-2{fill:#fff;}</style></defs><title>EditIcon</title><rect class="cls-1" x="1.5" y="1.5" width="44.5" height="44.5" rx="7.56"/><path class="cls-2" d="M670.12,379.65H640.74a9.07,9.07,0,0,0-9.06,9.06v29.38a9.07,9.07,0,0,0,9.06,9.06h29.38a9.08,9.08,0,0,0,9.06-9.06V388.71A9.08,9.08,0,0,0,670.12,379.65Zm6.56,38.44a6.57,6.57,0,0,1-6.56,6.56H640.74a6.56,6.56,0,0,1-6.56-6.56V388.71a6.56,6.56,0,0,1,6.56-6.56h29.38a6.57,6.57,0,0,1,6.56,6.56Z" transform="translate(-631.68 -379.65)"/><path class="cls-2" d="M665.41,391.25a4.1,4.1,0,0,0-4.65,1l-15.2,15.2a5.19,5.19,0,0,0-1.44,2.49c-.37,1.51-.76,3-1.13,4.54-.25,1.06.33,1.66,1.38,1.4,1.55-.37,3.12-.7,4.64-1.19a5.65,5.65,0,0,0,2.23-1.25c5.2-5.12,10.34-10.29,15.49-15.45a4,4,0,0,0,1.19-2.73A4.17,4.17,0,0,0,665.41,391.25ZM661.82,400c-3.86,3.86-7.72,7.7-11.56,11.57a4.5,4.5,0,0,1-2.33,1.31c-.83.17-1.64.4-2.61.64.61-1.78.58-3.61,2-5,3.87-3.75,7.64-7.6,11.45-11.41.17-.17.31-.36.47-.55l3,3C662.13,399.64,662,399.81,661.82,400Zm3.56-3.59c-.48.56-1,1.05-1.49,1.53-1-1-1.95-2-3-3,.48-.47,1-1,1.53-1.49a2.08,2.08,0,0,1,2.92,2.93Z" transform="translate(-631.68 -379.65)"/></svg>