<svg id="Layer_1" data-name="Layer 1" xmlns="http://www.w3.org/2000/svg" viewBox="0 0 29.16 40"><defs><style>.cls-1{fill:#5a5a5a;}</style></defs><title>EmployeeIDIcon</title><path class="cls-1" d="M313.94,367.65v-3.58h7.25v3.58h6.65c2.9,0,4.3,1.39,4.31,4.26v27.84c0,2.88-1.43,4.31-4.28,4.32H307.23c-2.79,0-4.23-1.45-4.23-4.24q0-14,0-27.95c0-2.81,1.42-4.21,4.24-4.22ZM330.29,386c0-4.73,0-9.46,0-14.19,0-1.82-.53-2.35-2.33-2.35H307.22c-1.84,0-2.37.52-2.37,2.31v28.17c0,1.77.51,2.27,2.28,2.27H328c1.82,0,2.31-.5,2.31-2.35C330.3,395.24,330.29,390.62,330.29,386Zm-14.47-18.41h3.48v-1.65h-3.48Z" transform="translate(-302.99 -364.07)"/><path class="cls-1" d="M320.52,384.71c.55.13,1.12.23,1.66.41a29.41,29.41,0,0,1,3.07,1.09c2.19,1,3.59,2.54,3.27,5.2a28.35,28.35,0,0,0,0,3.46H306.73a37,37,0,0,1,.08-5.47,3.71,3.71,0,0,1,1.78-2.32,37.54,37.54,0,0,1,5-1.95,9,9,0,0,1,1.15-.23l.33-.43a4.69,4.69,0,0,1-1-.56,6.65,6.65,0,0,1-.5-8.84,4.92,4.92,0,0,1,5.05-1.84,5.72,5.72,0,0,1,4.39,4.52,6,6,0,0,1-1.72,6,2.29,2.29,0,0,1-.4.36,4.52,4.52,0,0,1-.49.25Zm-12,8.37h18.38c0-.74-.06-1.43,0-2.11a2.63,2.63,0,0,0-1.6-2.82,9.61,9.61,0,0,0-1.89-.83c-1.46-.4-2.95-.7-4.49-1.05-.05-.22-.12-.5-.17-.79a2.24,2.24,0,0,1,.89-2.64,4.71,4.71,0,0,0,.27-6.89,3.13,3.13,0,0,0-4.5-.11,4.58,4.58,0,0,0,.32,7,2.06,2.06,0,0,1,.94,2.53c-.08.35-.15.69-.22,1a9.7,9.7,0,0,0-1.35.23,48.87,48.87,0,0,0-5.13,1.69,2.93,2.93,0,0,0-1.4,1.78A12.47,12.47,0,0,0,308.47,393.08Z" transform="translate(-302.99 -364.07)"/><path class="cls-1" d="M306.68,398.52v-1.68h21.74v1.68Z" transform="translate(-302.99 -364.07)"/></svg>