<svg id="Layer_1" data-name="Layer 1" xmlns="http://www.w3.org/2000/svg" viewBox="0 0 49.23 38"><defs><style>.cls-1{fill:#5a5a5a;}</style></defs><title>HrManagerIcon</title><path class="cls-1" d="M678.33,385.58h-5.15c-.63,1.54-.9,3.47-2,4.51s-3,1-4.52,1.48l-.42-1a16.11,16.11,0,0,1,2.13-1c2.86-.93,3.76-3.58,1.61-5.81-3.74-3.87-3.25-8.45-2.38-13,.52-2.78,2.57-4.5,5.47-5,3.5-.64,9.37,1.44,11.21,4.08,1.58-.76,3.8-.79,3.47-3.57,0-.32.83-1,1.34-1.09a16,16,0,0,1,3.72,0c.47.06,1.26.7,1.23,1-.3,3,2.27,2.84,3.67,3.66,1.1-.6,2.39-1.76,2.88-1.48a14.6,14.6,0,0,1,3.67,3.36c.24.28,0,1.27-.37,1.74a3.22,3.22,0,0,0,2.23,5.09,1.57,1.57,0,0,1,1.64,1.84c0,.88,0,1.76,0,2.64,0,1.32-.45,2.21-1.89,2.06-2-.21-1.72,1.58-2.39,2.56s-.29,1.74.51,2.44c1,.86.93,1.72,0,2.58-.33.29-.62.62-.93.93-2.31,2.34-2.31,2.34-4.82.21a18.15,18.15,0,0,0-2.7,1.16,4.92,4.92,0,0,0-1.15,1.57c-.46.72-.91,1.44-1.29,2.19a3.39,3.39,0,0,0-.46,1.5c.08,2.17-1.16,2.82-3,2.82H675.94c-4.69,0-9.39,0-14.08,0-2.93,0-3.67-.9-3.17-3.79a45.24,45.24,0,0,1,1.34-5.75c.21-.67,1-1.16,1.55-1.74l.61.37-.39,1.48c-.57,2.18-1.23,4.34-1.64,6.54-.07.37.9,1.31,1.42,1.33,3.15.13,6.3.12,9.45,0,1.62,0,2.84-3.46,1.79-5.07a3.44,3.44,0,0,1,.56-4.56c1-.77,3.07-.4,4.61-.17.87.13,1.4,3.7.68,4.52-1.45,1.65,0,3.06.39,4.46.15.48,1.54.78,2.38.81,2.56.11,5.13,0,7.7.05,1.58,0,1.89-.56,1.78-2.13-.32-4.46-2-7.49-6.92-7.88a3.71,3.71,0,0,1-.64-.15C678.86,390.08,678.86,390.08,678.33,385.58Zm14,11.62c.13-2.56,1.35-3.46,3.38-4.21s3.46-1.72,4.65.4l2.48-1.93a5.08,5.08,0,0,1,3.22-8.26v-3.31c-2.76.92-3.08-1.05-4-2.8-1-1.93-1.48-3.44.41-4.58L700.63,370a5.11,5.11,0,0,1-8.36-3.09h-3.13c.48,2.46-.82,3.37-2.86,3.82-1.86.41-2.45,1.7-2.31,3.6.28,3.58-.21,6.87-3,9.69-2,2.05-.91,4.77,1.86,5.57l1.27.34C688,390.86,692.17,391.48,692.32,397.2ZM668.9,375.74c-.6,4.53,2,8.05,6.21,8.37a6.84,6.84,0,0,0,7.31-7c0-1.58-2.67-4.07-4.22-3.73C675.1,374.11,672,375,668.9,375.74Zm0-1.87c2.33-.4,4.67-.34,6.55-1.23a5.78,5.78,0,0,1,6.41.53c.09.06.28,0,.42,0,.54-3.9.24-4.31-3.66-5.11-.92-.19-1.81-.55-2.74-.74C671.77,366.46,668.73,369.15,668.88,373.87Zm9,27.51-2.24-3.66-2,3.66Zm.42-6.67a11.6,11.6,0,0,0-2.47-1.57c-1.09-.3-2,.24-1.77,1.43a2.38,2.38,0,0,0,1.62,1.51C676.3,396.16,677,395.43,678.3,394.71Z" transform="translate(-658.54 -365.01)"/><path class="cls-1" d="M685.06,381.89a5.94,5.94,0,0,1,11.88,0,5.94,5.94,0,1,1-11.88,0Zm6,4.31a4.28,4.28,0,0,0,4.29-4.29,4.37,4.37,0,0,0-4.42-4.43,4.44,4.44,0,0,0-4.32,4.35A4.31,4.31,0,0,0,691.06,386.2Z" transform="translate(-658.54 -365.01)"/></svg>