<svg id="Layer_1" data-name="Layer 1" xmlns="http://www.w3.org/2000/svg" viewBox="0 0 27.2 40"><defs><style>.cls-1{fill:#5a5a5a;}</style></defs><title>LocationIcon</title><path class="cls-1" d="M318.63,402c-4.85-6.23-9.49-12.3-12.6-19.4-3.34-7.64,2-16.62,10.24-17.93A13.57,13.57,0,0,1,332.08,376a11.62,11.62,0,0,1-.84,6.37,61.46,61.46,0,0,1-7.44,12.73C322.16,397.4,320.42,399.62,318.63,402Zm0-2.55c1.29-1.74,2.52-3.34,3.69-5a63.75,63.75,0,0,0,7.31-12.39,10.92,10.92,0,0,0,.44-7.45,12,12,0,0,0-15.36-7.85c-6,2.07-9.86,9.11-7,15.46S314.43,393.9,318.61,399.45Z" transform="translate(-305.02 -364.48)"/><path class="cls-1" d="M313.76,397.81c-1.47.31-2.59.52-3.69.79a6.48,6.48,0,0,0-1.64.63c-.37.22-.83.64-.84,1a1.43,1.43,0,0,0,.82,1,15.72,15.72,0,0,0,3.17,1,38.76,38.76,0,0,0,15.25-.25,6.69,6.69,0,0,0,1.82-.65,1.89,1.89,0,0,0,1-1.1c0-.3-.53-.83-.93-1a27.11,27.11,0,0,0-3.1-.95c-.59-.15-1.2-.21-1.82-.32.59-1.44.72-1.58,2.12-1.17a20.71,20.71,0,0,1,3.89,1.46c2.16,1.15,2.14,2.8,0,4.05a15.46,15.46,0,0,1-6,1.83,32.9,32.9,0,0,1-13.47-.67,12.9,12.9,0,0,1-3.44-1.57c-1.41-.91-1.41-2.15-.12-3.19a10.91,10.91,0,0,1,5.51-2.05C312.65,396.55,313.15,397.29,313.76,397.81Z" transform="translate(-305.02 -364.48)"/><path class="cls-1" d="M318.62,370.43a7.65,7.65,0,1,1-7.68,7.69A7.63,7.63,0,0,1,318.62,370.43Zm-.05,1.67a6,6,0,1,0,6,5.94A6,6,0,0,0,318.57,372.1Z" transform="translate(-305.02 -364.48)"/></svg>