<svg id="Layer_1" data-name="Layer 1" xmlns="http://www.w3.org/2000/svg" viewBox="0 0 366.51 89.13"><defs><style>.cls-1{fill:#002d3a;}</style></defs><title>LogoInHeroSection</title><path class="cls-1" d="M588.22,400.56a21.23,21.23,0,0,1-8.5-1.71,22.24,22.24,0,0,1-6.94-4.64,21.47,21.47,0,0,1-4.67-6.9,22,22,0,0,1,0-17,22.09,22.09,0,0,1,4.67-6.94,22.72,22.72,0,0,1,6.94-4.71,21,21,0,0,1,8.5-1.74,21.22,21.22,0,0,1,8.42,1.7,23.13,23.13,0,0,1,6.94,4.57,21.51,21.51,0,0,1,4.71,6.68,19.17,19.17,0,0,1,1.75,8,4.29,4.29,0,0,1-1.08,3.17,4.1,4.1,0,0,1-3,1.08H575.3l.37,1.27a10.58,10.58,0,0,0,1.34,2.87,12.64,12.64,0,0,0,3,3.15,14.86,14.86,0,0,0,3.89,2.08,12.88,12.88,0,0,0,4.32.75,13.31,13.31,0,0,0,5.15-1,13,13,0,0,0,4.16-2.8,6.33,6.33,0,0,1,1.6-1.05,3.87,3.87,0,0,1,1.65-.4,3.56,3.56,0,0,1,2.76,1.22,4.08,4.08,0,0,1,1.11,2.87,6.14,6.14,0,0,1-.22,1.68,3.1,3.1,0,0,1-.85,1.42,18.15,18.15,0,0,1-6.82,4.75A23,23,0,0,1,588.22,400.56Zm0-35.37a12.89,12.89,0,0,0-4.32.76,13.25,13.25,0,0,0-3.83,2.12,14,14,0,0,0-2.91,3.18,11.28,11.28,0,0,0-1.37,2.84l-.42,1.31h25.69l-.37-1.28a10.43,10.43,0,0,0-1.34-2.87,13.72,13.72,0,0,0-3-3.18,14,14,0,0,0-3.86-2.12A12.94,12.94,0,0,0,588.22,365.19Z" transform="translate(-499.7 -339.44)"/><path class="cls-1" d="M620.89,400.56a4.14,4.14,0,0,1-3-1.14,4,4,0,0,1-1.2-3.12V343.62a4,4,0,0,1,1.2-3.05,4.18,4.18,0,0,1,3-1.13,4.28,4.28,0,0,1,3.13,1.13,4.09,4.09,0,0,1,1.13,3.05V396.3a3.92,3.92,0,0,1-4.26,4.26Z" transform="translate(-499.7 -339.44)"/><path class="cls-1" d="M637.15,400.56a4.14,4.14,0,0,1-3-1.14,4,4,0,0,1-1.2-3.12V343.62a4,4,0,0,1,1.2-3.05,4.18,4.18,0,0,1,3-1.13,4.28,4.28,0,0,1,3.13,1.13,4.09,4.09,0,0,1,1.13,3.05V396.3a3.92,3.92,0,0,1-4.26,4.26Z" transform="translate(-499.7 -339.44)"/><path class="cls-1" d="M691,370.11a22.43,22.43,0,0,0-4.85-6.92,22.11,22.11,0,0,0-7-4.56A21.3,21.3,0,0,0,671,357a17.84,17.84,0,0,0-7.41,1.44,14.14,14.14,0,0,0-5.18,3.89V343.66a4.16,4.16,0,0,0-1.15-3.07,4.78,4.78,0,0,0-6.22,0,4,4,0,0,0-1.23,3.07V396.3a4,4,0,0,0,1.21,3.12,4.13,4.13,0,0,0,3,1.14,3.93,3.93,0,0,0,4.26-4.26V395a14.58,14.58,0,0,0,2.22,2,17.35,17.35,0,0,0,3.08,1.82,19.86,19.86,0,0,0,3.55,1.26,15.76,15.76,0,0,0,3.89.48,21.3,21.3,0,0,0,8.19-1.63,22.34,22.34,0,0,0,7-4.52,21.83,21.83,0,0,0,4.85-6.89,20.68,20.68,0,0,0,1.82-8.66A20.93,20.93,0,0,0,691,370.11ZM683.18,384a13,13,0,0,1-7,7,13,13,0,0,1-5.19,1,11.76,11.76,0,0,1-5-1,12.68,12.68,0,0,1-6.67-7,13.74,13.74,0,0,1-1-5.14,14.07,14.07,0,0,1,1-5.19,13.15,13.15,0,0,1,2.67-4.26,12.39,12.39,0,0,1,4-2.85,11.92,11.92,0,0,1,5-1,13.18,13.18,0,0,1,5.19,1,12.89,12.89,0,0,1,4.22,2.85,13.5,13.5,0,0,1,2.81,4.26,13,13,0,0,1,1,5.19A12.7,12.7,0,0,1,683.18,384Z" transform="translate(-499.7 -339.44)"/><path class="cls-1" d="M743.3,401.5V361.21a4.11,4.11,0,0,0-1.13-3A4.26,4.26,0,0,0,739,357a4.14,4.14,0,0,0-3,1.13,4,4,0,0,0-1.21,3v.48h0v17.23a13.59,13.59,0,0,1-4,9.35,13.7,13.7,0,0,1-4.22,2.82,13.49,13.49,0,0,1-10.39,0,13.26,13.26,0,0,1-4.2-2.82,13.67,13.67,0,0,1-2.82-4.19,13,13,0,0,1-1.12-5.16V361.69h0v-.48a4.11,4.11,0,0,0-1.14-3,4.24,4.24,0,0,0-3.12-1.13,4.16,4.16,0,0,0-3,1.13,4,4,0,0,0-1.21,3V379.1c0,.1,0,.18,0,.28a21.3,21.3,0,0,0,1.69,8,21.53,21.53,0,0,0,4.67,6.9A22.21,22.21,0,0,0,713,399a22,22,0,0,0,17,0,22.73,22.73,0,0,0,4.88-2.86v5.41h0v5.13c0,7.53-6,13-13.67,13.46a4.42,4.42,0,0,0-4.18,4.42,4.17,4.17,0,0,0,4.18,4.05,21.67,21.67,0,0,0,22.14-21.93V401.5Z" transform="translate(-499.7 -339.44)"/><path class="cls-1" d="M518.05,400.58a4.27,4.27,0,0,1-4-2.71L507,380a4.28,4.28,0,1,1,7.95-3.16l7.1,17.87a4.28,4.28,0,0,1-2.4,5.56A4.3,4.3,0,0,1,518.05,400.58Z" transform="translate(-499.7 -339.44)"/><path class="cls-1" d="M545.82,400.58a4.25,4.25,0,0,1-4-2.71L534.74,380a4.28,4.28,0,0,1,2.4-5.56,4.28,4.28,0,0,1,5.55,2.4l7.1,17.87a4.27,4.27,0,0,1-2.39,5.56A4.32,4.32,0,0,1,545.82,400.58Z" transform="translate(-499.7 -339.44)"/><path class="cls-1" d="M545.81,400.58a4.32,4.32,0,0,1-1.58-.31,4.27,4.27,0,0,1-2.39-5.56l13.77-35.09a4.26,4.26,0,0,1,4-2.69,4.28,4.28,0,0,1,4,5.86l-13.77,35.09A4.25,4.25,0,0,1,545.81,400.58Z" transform="translate(-499.7 -339.44)"/><path class="cls-1" d="M539.3,368.29,536,360h0a4.23,4.23,0,0,0-2.5-2.76,4.3,4.3,0,0,0-1.58-.3,4.25,4.25,0,0,0-4,2.69l-13.85,35.09a4.28,4.28,0,1,0,8,3.17l9.88-25h0s3.46-5.77,9.25.08Z" transform="translate(-499.7 -339.44)"/><circle class="cls-1" cx="4.28" cy="21.77" r="4.28"/><path class="cls-1" d="M500,362.82s3.6,7.78,7.21,6.37c3.39-1.33.72-9.59.72-9.59Z" transform="translate(-499.7 -339.44)"/><circle class="cls-1" cx="4.28" cy="21.77" r="4.28"/><path class="cls-1" d="M788.62,400.56H781.4A30.56,30.56,0,1,1,812,370v7.22a4,4,0,0,1-8,0V370a22.56,22.56,0,1,0-22.56,22.56h7.22a4,4,0,0,1,0,8Z" transform="translate(-499.7 -339.44)"/><path class="cls-1" d="M810.79,393.73,794.16,377.1a14.63,14.63,0,1,0-5.66,5.66l16.63,16.63a4,4,0,1,0,5.66-5.66Zm-36-23.73a6.62,6.62,0,1,1,6.62,6.61A6.62,6.62,0,0,1,774.78,370Z" transform="translate(-499.7 -339.44)"/><path class="cls-1" d="M848.66,380.93a20.88,20.88,0,0,0-3.34-41.49H832.23a12.5,12.5,0,0,0-12.49,12.49v25.29a4,4,0,0,0,8,0V351.93a4.49,4.49,0,0,1,4.49-4.49h13.09a12.89,12.89,0,0,1,0,25.78h-5.74a4,4,0,0,0-4,4,.68.68,0,0,0,0,.14,4,4,0,0,0,1.15,3l19.06,19.06a4,4,0,1,0,5.66-5.66Z" transform="translate(-499.7 -339.44)"/><circle class="cls-1" cx="324.04" cy="56.08" r="5.05"/></svg>