<svg id="Layer_1" data-name="Layer 1" xmlns="http://www.w3.org/2000/svg" viewBox="0 0 341.11 3357.17"><defs><style>.cls-1{fill:#5a5a5a;}</style></defs><title>MedCompany</title><path class="cls-1" d="M112.66,3686h-6.23c-.56,0-1.11-.07-1.2-.75s.28-1,1-1c2.37,0,4.75,0,7.12,0,2,0,4,0,6.06,0,.58,0,1.06.09,1.13.79s-.47.91-1,.92c-2.28,0-4.56,0-6.85,0Z" transform="translate(-99.4 -347.14)"/><path class="cls-1" d="M116.62,3696.89c-3.57,0-7.08,0-10.58,0-.28,0-.72-.48-.79-.8-.12-.61.36-.86.93-.86h10Z" transform="translate(-99.4 -347.14)"/><path class="cls-1" d="M115.59,3689.66v1.76h-9.44c-.55,0-.91-.24-.93-.81a.82.82,0,0,1,.91-.94Z" transform="translate(-99.4 -347.14)"/><path class="cls-1" d="M110,3678.7c1.23,0,2.45,0,3.68,0,.59,0,1,.22,1,.83s-.36.87-1,.87h-7.53c-.59,0-1-.23-1-.86s.44-.83,1-.83Z" transform="translate(-99.4 -347.14)"/><path class="cls-1" d="M108.13,3675.27a11.22,11.22,0,0,1-2.09,0c-.31-.06-.77-.51-.76-.79a1.12,1.12,0,0,1,.72-.84,37.31,37.31,0,0,1,4.36,0c.26,0,.66.55.68.87s-.43.7-.73.75A14.39,14.39,0,0,1,108.13,3675.27Z" transform="translate(-99.4 -347.14)"/><path class="cls-1" d="M101.64,3704.32c-1.74,0-2.22-.49-2.22-2.24v-8.67q0-12.52,0-25a2.11,2.11,0,0,1,1.18-2.19h18.19l2.66,2.61c2.31,2.27,4.7,4.63,7.16,6.83a3.55,3.55,0,0,1,1.28,3.23c-.06,1.06,0,2.11,0,3.22,0,.28,0,.56,0,.85h0c-.48-.27-.91-.51-1.3-.78a1.21,1.21,0,0,1-.08-.45c0-.75,0-1.51,0-2.31V3678H119c-1.07,0-1.25-.18-1.25-1.28,0-1.81,0-3.62,0-5.42v-3.63H100.9v35.19h5.78l8.12,0c.74,0,1,.14,1.26.61a4.72,4.72,0,0,0,.56.84h-15Zm17.64-27.82h8.2l-8.2-7.67Z" transform="translate(-99.4 -347.14)"/><path class="cls-1" d="M119.26,3702.85V3692c0-.45.09-.59.52-.75l8.83-3.44a1,1,0,0,1,1.08.16c.8.65,1.62,1.27,2.44,1.9a.93.93,0,0,1,.39.78q0,6.63,0,13.26c0,.3-.13.44-.43.44H118.63a.74.74,0,0,1-.81-.74.73.73,0,0,1,.81-.73Zm8.25-7h0v-.22c0-.28-.12-.39-.4-.32l-5.12,1.24a.46.46,0,0,0-.36.46,3.68,3.68,0,0,0,0,.47c0,.28.12.38.39.32l.61-.15,4.45-1.08a.47.47,0,0,0,.43-.54Zm0,2.49h0v-.16c0-.35-.12-.44-.45-.36l-5,1.22a.46.46,0,0,0-.39.48c0,.14,0,.29,0,.44,0,.3.12.4.42.33l1.25-.3,3.77-.91a.49.49,0,0,0,.44-.56Zm-5.88-3.61a1.62,1.62,0,0,0,0,.22c0,.29.12.39.41.32l.87-.21,4.18-1a.48.48,0,0,0,.42-.55v-.36c0-.29-.12-.39-.41-.33l-.81.2-4.21,1a.5.5,0,0,0-.45.59Z" transform="translate(-99.4 -347.14)"/><path class="cls-1" d="M134,3695.66c0-2.69,0-5.37,0-8.06a.92.92,0,0,0-.42-.84c-.48-.33-.95-.69-1.43-1a.79.79,0,0,0-.68-.13l-6.71,1.73a.48.48,0,0,0-.39.51v.61a.74.74,0,0,1-1.47,0v-1.55a.53.53,0,0,1,.46-.59l5.15-1.39,3.16-.86a.84.84,0,0,1,.78.14c.86.63,1.73,1.27,2.6,1.89a.92.92,0,0,1,.4.79q0,7.77,0,15.54c0,.37.1.48.46.48h1.51a.71.71,0,1,1,0,1.41h-2.95c-.38,0-.48-.1-.48-.48v-8.15Z" transform="translate(-99.4 -347.14)"/><path class="cls-1" d="M415,366.93H408.8c-.56,0-1.11-.08-1.2-.75s.27-1,1-1h7.12c2,0,4,0,6.06,0,.58,0,1.06.1,1.13.8s-.47.91-1,.91c-2.28,0-4.56,0-6.85,0Z" transform="translate(-99.4 -347.14)"/><path class="cls-1" d="M419,377.86c-3.57,0-7.08,0-10.59,0-.27,0-.72-.47-.78-.79-.12-.61.36-.86.93-.86h10Z" transform="translate(-99.4 -347.14)"/><path class="cls-1" d="M418,370.63v1.76h-9.44c-.55,0-.91-.25-.93-.82a.82.82,0,0,1,.91-.93Z" transform="translate(-99.4 -347.14)"/><path class="cls-1" d="M412.36,359.67H416c.59,0,1,.22,1,.83s-.36.87-1,.87h-7.53c-.59,0-1-.23-1-.87s.44-.82,1-.82Z" transform="translate(-99.4 -347.14)"/><path class="cls-1" d="M410.5,356.24a12.13,12.13,0,0,1-2.09,0c-.31-.06-.77-.51-.77-.79s.45-.83.72-.84a37.48,37.48,0,0,1,4.37,0c.26,0,.65.56.68.88s-.44.7-.73.75A14.39,14.39,0,0,1,410.5,356.24Z" transform="translate(-99.4 -347.14)"/><path class="cls-1" d="M404,385.28c-1.74,0-2.22-.48-2.22-2.23v-8.67q0-12.53,0-25.05a2.11,2.11,0,0,1,1.18-2.19h18.19l2.65,2.61c2.32,2.27,4.71,4.63,7.17,6.83a3.55,3.55,0,0,1,1.28,3.23c-.06,1.06-.05,2.11,0,3.22,0,.28,0,.56,0,.85h0a14,14,0,0,1-1.3-.79,1.09,1.09,0,0,1-.08-.44c0-.75,0-1.51,0-2.31V359h-9.4c-1.07,0-1.25-.19-1.25-1.29,0-1.8,0-3.61,0-5.41v-3.63H403.27v35.18h5.78l8.12,0c.74,0,1,.14,1.26.61a5.12,5.12,0,0,0,.56.84H404Zm17.64-27.81h8.2l-8.2-7.67Z" transform="translate(-99.4 -347.14)"/><path class="cls-1" d="M421.63,383.82V372.94c0-.45.09-.59.52-.75l8.83-3.44a1,1,0,0,1,1.08.16c.8.65,1.62,1.27,2.44,1.9a.92.92,0,0,1,.38.78v13.26c0,.3-.13.44-.43.44H423.2c-.74,0-1.47,0-2.2,0a.73.73,0,1,1,0-1.46Zm8.25-7h0v-.22c0-.29-.12-.39-.4-.32l-5.12,1.23a.46.46,0,0,0-.36.47,3.68,3.68,0,0,0,0,.47c0,.27.12.38.38.32l.62-.15,4.45-1.08a.49.49,0,0,0,.43-.54Zm0,2.49h0v-.16c0-.35-.12-.44-.46-.36l-5,1.22a.45.45,0,0,0-.38.48,3.09,3.09,0,0,0,0,.43c0,.31.12.41.42.34l1.25-.3,3.77-.92a.48.48,0,0,0,.44-.56ZM424,375.74V376c0,.29.13.39.42.32l.87-.21,4.18-1a.48.48,0,0,0,.42-.55v-.36c0-.3-.12-.39-.42-.33l-.8.19-4.21,1a.52.52,0,0,0-.46.59Z" transform="translate(-99.4 -347.14)"/><path class="cls-1" d="M436.33,376.63c0-2.69,0-5.37,0-8.06a.94.94,0,0,0-.42-.84l-1.43-1a.79.79,0,0,0-.68-.13l-6.72,1.73a.48.48,0,0,0-.38.51v.61a.74.74,0,0,1-.75.72.72.72,0,0,1-.72-.73v-1.55a.54.54,0,0,1,.46-.6l5.15-1.39L434,365a.85.85,0,0,1,.78.14c.86.63,1.73,1.27,2.6,1.89a.92.92,0,0,1,.4.79q0,7.77,0,15.54c0,.37.11.47.47.48h1.51a.73.73,0,0,1,.76.69.72.72,0,0,1-.75.71h-2.95c-.38,0-.48-.1-.48-.48v-8.15Z" transform="translate(-99.4 -347.14)"/></svg>