<svg id="Layer_1" data-name="Layer 1" xmlns="http://www.w3.org/2000/svg" viewBox="0 0 38.74 38.14"><defs><style>.cls-1{fill:#5a5a5a;}</style></defs><title>c</title><path class="cls-1" d="M877.18,384.79h-6.24c-.56,0-1.11-.08-1.19-.75s.27-1,1-1c2.37,0,4.74,0,7.11,0,2,0,4,0,6.06,0,.59,0,1.06.1,1.13.79s-.47.91-1,.92c-2.28,0-4.56,0-6.84,0Z" transform="translate(-863.92 -365)"/><path class="cls-1" d="M881.14,395.72c-3.58,0-7.09,0-10.59,0-.28,0-.72-.48-.78-.79-.13-.62.35-.86.92-.86h10Z" transform="translate(-863.92 -365)"/><path class="cls-1" d="M880.1,388.49v1.76h-9.44c-.55,0-.9-.25-.92-.82a.82.82,0,0,1,.9-.94Z" transform="translate(-863.92 -365)"/><path class="cls-1" d="M874.5,377.53c1.23,0,2.46,0,3.68,0,.59,0,1,.23,1,.84s-.36.87-1,.86c-2.51,0-5,0-7.53,0-.59,0-1-.23-.95-.87s.45-.82,1-.82Z" transform="translate(-863.92 -365)"/><path class="cls-1" d="M872.65,374.1a12.24,12.24,0,0,1-2.1,0,1.12,1.12,0,0,1-.76-.78c0-.3.44-.83.72-.84a35.24,35.24,0,0,1,4.36,0c.26,0,.66.56.68.88s-.43.7-.72.74A14.43,14.43,0,0,1,872.65,374.1Z" transform="translate(-863.92 -365)"/><path class="cls-1" d="M866.15,403.14c-1.74,0-2.21-.48-2.21-2.24v-8.66q0-12.53,0-25.05a2.1,2.1,0,0,1,1.17-2.19h18.19l2.66,2.6c2.31,2.28,4.7,4.63,7.16,6.84a3.52,3.52,0,0,1,1.28,3.23c-.06,1.05,0,2.11,0,3.22,0,.28,0,.56,0,.85h0a12.75,12.75,0,0,1-1.3-.79,1.07,1.07,0,0,1-.09-.44c0-.76,0-1.51,0-2.31v-1.35h-9.4c-1.07,0-1.25-.18-1.25-1.28v-9H865.41V401.7h5.78c2.71,0,5.42,0,8.12,0,.74,0,1,.15,1.26.62a4.61,4.61,0,0,0,.57.84h-15Zm17.65-27.82H892l-8.19-7.67Z" transform="translate(-863.92 -365)"/><path class="cls-1" d="M883.77,401.68V390.8c0-.45.1-.59.52-.76q4.43-1.71,8.83-3.44a1,1,0,0,1,1.08.17c.8.64,1.62,1.27,2.44,1.9a.93.93,0,0,1,.39.78c0,4.42,0,8.84,0,13.25,0,.31-.13.44-.44.44H883.14a.73.73,0,0,1-.81-.73.74.74,0,0,1,.82-.73Zm8.25-7h0v-.22c0-.29-.12-.39-.4-.32l-5.12,1.23a.47.47,0,0,0-.36.46c0,.16,0,.32,0,.48s.12.37.39.32l.61-.16,4.45-1.07a.48.48,0,0,0,.43-.55Zm0,2.48h0V397c0-.34-.12-.44-.45-.36l-5,1.23a.46.46,0,0,0-.39.48c0,.14,0,.29,0,.43,0,.31.12.41.42.34l1.25-.31,3.77-.91a.49.49,0,0,0,.44-.56Zm-5.88-3.6v.21c0,.3.12.39.41.33l.87-.21,4.18-1a.47.47,0,0,0,.42-.55V392c0-.3-.12-.4-.41-.33l-.81.19-4.2,1c-.35.08-.46.23-.46.59Z" transform="translate(-863.92 -365)"/><path class="cls-1" d="M898.47,394.48v-8.05a.91.91,0,0,0-.42-.84l-1.43-1a.75.75,0,0,0-.68-.12l-6.71,1.73a.47.47,0,0,0-.39.5c0,.21,0,.41,0,.62a.74.74,0,0,1-1.47,0v-1.54a.54.54,0,0,1,.47-.6l5.14-1.39,3.16-.86a.84.84,0,0,1,.78.15l2.6,1.89a.89.89,0,0,1,.4.79v15.54c0,.36.1.47.46.47s1,0,1.51,0a.71.71,0,1,1,0,1.41H899c-.38,0-.48-.11-.48-.48v-8.16Z" transform="translate(-863.92 -365)"/></svg>