<svg id="Layer_1" data-name="Layer 1" xmlns="http://www.w3.org/2000/svg" viewBox="0 0 42.53 45"><defs><style>.cls-1{fill:#5a5a5a;}</style></defs><title>MedicalConditionsIcon</title><path class="cls-1" d="M328.07,383.68V390a8.57,8.57,0,0,0,3.91-4.19A21.07,21.07,0,0,0,333,382c.13-.56,0-1.29.83-1.22s.66.82.64,1.37a11.45,11.45,0,0,1-22.8.64,3.15,3.15,0,0,1,0-1.14,3.29,3.29,0,0,1,.66-.91c.25.28.64.52.73.84.42,1.47.62,3,1.17,4.42a8,8,0,0,0,3.92,4c0-2,0-3.88,0-5.77,0-.19-.6-.53-.91-.52-2.54,0-2.22-.08-2.24-2.3,0-.84,0-1.69,0-2.54-.26-4.18,1.2-7.38,5.17-9.17-2-2.86-2-5.28,0-7a4.53,4.53,0,0,1,6.1.26c1.8,1.8,1.73,4.25-.09,6.51a42.23,42.23,0,0,1,3.25,2.83,7.42,7.42,0,0,1,1.81,5c.06,1.69,0,3.39,0,5.09,0,.95-.36,1.34-1.29,1.3C329.35,383.66,328.75,383.68,328.07,383.68Zm1.62-1.49c0-2,.13-3.82,0-5.65a6.46,6.46,0,0,0-5.11-5.72,6.55,6.55,0,0,0-7.16,3c-1.63,2.64-.67,5.53-.93,8.28h1.7v-2.85a30,30,0,0,1,0-3c0-.44.39-1.17.67-1.2.84-.08.71.69.75,1.25,0,.27,0,.54,0,.81v12c0,1.84.12,2,2,2.12h.71c0-2.42,0-4.8,0-7.17,0-.69-.4-1.84.77-1.8s.63,1.15.64,1.79c.05,2.38,0,4.76,0,7.22.43,0,.73,0,1-.07,1.72-.23,1.72-.23,1.72-2q0-6.3,0-12.61a2.27,2.27,0,0,1,.05-.91c.14-.3.47-.5.71-.75.24.25.64.48.69.76a10.36,10.36,0,0,1,0,1.85v4.58ZM323,363.09a3,3,0,0,0,0,6.07,3.07,3.07,0,0,0,3.06-3A3.11,3.11,0,0,0,323,363.09Z" transform="translate(-295.18 -361.65)"/><path class="cls-1" d="M310.21,388.56c-2.07-4.16-2.49-8.26-.78-12.37a26.66,26.66,0,0,1,3-4.76,1.3,1.3,0,0,1,1.22-.36c.63.43.18.93-.19,1.34A13,13,0,0,0,310,382.83,13.2,13.2,0,1,0,332.8,372.5c-.38-.43-1-.88-.31-1.44s1,.09,1.42.5c6.11,6.38,4.64,17.62-2.93,22.24a14.4,14.4,0,0,1-13.92,1,1.37,1.37,0,0,0-1.77.37c-.7.64-1.13,1.86-2.52,1.4-.16-.06-.51.41-.75.65-2.84,2.83-5.66,5.67-8.52,8.48a3.29,3.29,0,0,1-4.14.39,3.26,3.26,0,0,1-1.15-4.09,7.08,7.08,0,0,1,1.34-1.71c2.66-2.68,5.34-5.34,8-8a2.6,2.6,0,0,0,.38-.93,3.72,3.72,0,0,1,.52-1.18A19,19,0,0,1,310.21,388.56Zm-1,4.29a1.13,1.13,0,0,0-.29.15c-3,3-6,6-9,9a1.83,1.83,0,0,0,0,2.69,1.89,1.89,0,0,0,2.7-.16c2-2,4-4,6-6,1-1,2.14-2,3.25-3Zm4.31,2,1.09-1.31-.25.39-3.75-3.8L311,390l-1.28.94Z" transform="translate(-295.18 -361.65)"/><path class="cls-1" d="M297.84,381.09c.28-2.73.28-2.73,2.86-2.73h.23c2.76,0,2.76,0,3.06,2.61.09,0,.2.11.3.1,2.62-.06,2.27.09,2.3,2.35v.93c0,2.55,0,2.55-2.69,2.77v1.54c0,.77-.35,1.12-1.13,1.1-1.2,0-2.39-.06-3.58,0-1,.05-1.33-.37-1.27-1.29,0-.42,0-.83,0-1.36a10.61,10.61,0,0,0-1.43-.08c-1,.09-1.36-.4-1.31-1.37a29.52,29.52,0,0,0,0-3.12c-.06-1.1.36-1.59,1.47-1.47A11.68,11.68,0,0,0,297.84,381.09Zm-1.15,4.28c.91.17,1.94.06,2.39.52s.31,1.48.44,2.34h2.77c.39-2.48.39-2.48,2.75-2.8V382.7c-.87-.15-1.9,0-2.34-.5s-.31-1.48-.42-2.23h-3c.83,2.61-.77,2.78-2.57,2.63Z" transform="translate(-295.18 -361.65)"/></svg>