<svg id="Layer_1" data-name="Layer 1" xmlns="http://www.w3.org/2000/svg" viewBox="0 0 38.09 38.14"><defs><style>.cls-1{fill:#5a5a5a;}</style></defs><title>Untitled-1</title><path class="cls-1" d="M877.5,384.79h-6.23c-.56,0-1.11-.08-1.2-.75s.27-1,1-1c2.37,0,4.74,0,7.11,0,2,0,4,0,6.06,0,.59,0,1.07.1,1.14.79s-.47.91-1,.92c-2.28,0-4.57,0-6.85,0Z" transform="translate(-864.24 -365)"/><path class="cls-1" d="M881.46,395.72c-3.57,0-7.08,0-10.59,0-.27,0-.72-.48-.78-.79-.12-.62.36-.86.93-.86h10Z" transform="translate(-864.24 -365)"/><path class="cls-1" d="M880.43,388.49v1.76H871c-.56,0-.91-.25-.93-.82a.83.83,0,0,1,.91-.94Z" transform="translate(-864.24 -365)"/><path class="cls-1" d="M874.83,377.53c1.22,0,2.45,0,3.68,0,.59,0,1,.23,1,.84s-.36.87-1,.86c-2.51,0-5,0-7.54,0-.58,0-1-.23-.94-.87s.44-.82,1-.82Z" transform="translate(-864.24 -365)"/><path class="cls-1" d="M873,374.1a12.12,12.12,0,0,1-2.09,0c-.31-.05-.77-.51-.77-.78a1.11,1.11,0,0,1,.72-.84,35.4,35.4,0,0,1,4.37,0c.26,0,.65.56.68.88s-.44.7-.73.74A14.38,14.38,0,0,1,873,374.1Z" transform="translate(-864.24 -365)"/><path class="cls-1" d="M866.47,403.14c-1.73,0-2.21-.48-2.21-2.24v-8.66c0-8.35,0-16.7,0-25.05a2.11,2.11,0,0,1,1.18-2.19h18.19c.89.86,1.77,1.73,2.65,2.6,2.32,2.28,4.71,4.63,7.17,6.84a3.55,3.55,0,0,1,1.28,3.23c-.06,1.05-.05,8.2,0,9.32,0,.27,0,.55,0,.84h0a12.75,12.75,0,0,1-1.3-.78,1.16,1.16,0,0,1-.08-.45c0-.75,0-7.6,0-8.4v-1.35h-9.4c-1.08,0-1.25-.18-1.25-1.28,0-1.8,0-3.61,0-5.42v-3.62H865.73V401.7h8.94c2.71,0,5.42,0,8.13,0,.73,0,1,.15,1.25.62a4.61,4.61,0,0,0,.57.84H866.47Zm17.65-27.82h8.2l-8.2-7.66Z" transform="translate(-864.24 -365)"/><path class="cls-1" d="M888.19,403.14a6,6,0,0,1-1-.39,3.12,3.12,0,0,1-1.68-2.93c0-3.3,0-6.61,0-9.92a3.14,3.14,0,0,1,3.33-3.3c.84,0,1.68,0,2.59,0v.45a2,2,0,0,0,1.61,1.93,5.44,5.44,0,0,0,1.61,0,2.05,2.05,0,0,0,1.75-2.05v-.29a26.25,26.25,0,0,1,3.44,0,3,3,0,0,1,2.44,2.71,6.45,6.45,0,0,1,0,.76v9c0,2.36-.51,3.12-2.67,3.95Zm5.69-1.58h5.19a1.55,1.55,0,0,0,1.67-1.57c0-3.42,0-6.85,0-10.28a1.57,1.57,0,0,0-1.56-1.55c-.33,0-.66,0-1,0a.49.49,0,0,0-.57.35,3.49,3.49,0,0,1-2.68,2.05,8.22,8.22,0,0,1-1.49.05,3.21,3.21,0,0,1-2.93-1.64,1.45,1.45,0,0,0-1.63-.82,1.64,1.64,0,0,0-1.79,1.78v9.79a1.61,1.61,0,0,0,1.82,1.84Z" transform="translate(-864.24 -365)"/><path class="cls-1" d="M894.13,400.37c-1-.08-1.82-.09-2.61-.22a1.44,1.44,0,0,1-1.15-2.24,7.39,7.39,0,0,1,1.24-1.51.43.43,0,0,1,.41,0,3.14,3.14,0,0,0,3.82,0c.08-.06.25-.12.3-.07a3.11,3.11,0,0,1,1.53,2.32,1.21,1.21,0,0,1-1,1.4C895.77,400.24,894.86,400.28,894.13,400.37Z" transform="translate(-864.24 -365)"/><path class="cls-1" d="M896.08,393.9a2.16,2.16,0,1,1-2.13-2.15A2.11,2.11,0,0,1,896.08,393.9Z" transform="translate(-864.24 -365)"/></svg>