<svg id="Layer_1" data-name="Layer 1" xmlns="http://www.w3.org/2000/svg" viewBox="0 0 489.56 338.9"><defs><style>.cls-1{fill:#c5c9c9;}.cls-2{fill:#ff7f04;}.cls-3{fill:#00c55e;}.cls-4{fill:#db4a28;}.cls-5{fill:#ff9e06;}.cls-6{fill:#fff;}.cls-7{fill:#decf78;}.cls-8{fill:#ffc800;}.cls-9{fill:#e35f64;}.cls-10{fill:#ffa402;opacity:0.5;}.cls-11{fill:#f8e86d;}.cls-12{fill:#007846;}.cls-13{fill:#3c3c3c;}.cls-14{fill:#1a2e35;}.cls-15{font-size:69.71px;}.cls-15,.cls-16,.cls-17,.cls-21{fill:#2b454e;}.cls-15,.cls-16,.cls-17{font-family:Quicksand-Bold, Quicksand Bold;font-weight:700;}.cls-16{font-size:61.47px;}.cls-17{font-size:61.47px;}.cls-18{fill:#ff9581;}.cls-19{fill:#efefef;}.cls-20{fill:#a8a8a8;}.cls-22{fill:none;stroke:#ffa89e;stroke-linecap:round;stroke-linejoin:round;stroke-width:0;}.cls-23{fill:#ff99bc;}</style></defs><title>pageNotFoundImage</title><ellipse class="cls-1" cx="244.78" cy="322.96" rx="244.78" ry="15.94"/><path class="cls-2" d="M611.9,243.06l3.32,1.07-3.32,1.07a4.43,4.43,0,0,0-2.84,2.85L608,251.36l-1.07-3.31a4.45,4.45,0,0,0-2.85-2.85l-3.31-1.07,3.31-1.07a4.45,4.45,0,0,0,2.85-2.85L608,236.9l1.08,3.31A4.43,4.43,0,0,0,611.9,243.06Z" transform="translate(-350.55 -219.78)"/><path class="cls-3" d="M772.24,440.57l3.31,1.07-3.31,1.07a4.45,4.45,0,0,0-2.85,2.85l-1.07,3.31-1.08-3.31a4.43,4.43,0,0,0-2.84-2.85l-3.32-1.07,3.32-1.07a4.43,4.43,0,0,0,2.84-2.85l1.08-3.31,1.07,3.31A4.45,4.45,0,0,0,772.24,440.57Z" transform="translate(-350.55 -219.78)"/><path class="cls-2" d="M527.71,429.31l3.31,1.08-3.31,1.07a4.45,4.45,0,0,0-2.85,2.85l-1.07,3.31-1.07-3.31a4.45,4.45,0,0,0-2.85-2.85l-3.31-1.07,3.31-1.08a4.41,4.41,0,0,0,2.85-2.84l1.07-3.31,1.07,3.31A4.41,4.41,0,0,0,527.71,429.31Z" transform="translate(-350.55 -219.78)"/><path class="cls-3" d="M676.47,328.58l1.92.62-1.92.63a2.52,2.52,0,0,0-1.65,1.65l-.63,1.92-.62-1.92a2.56,2.56,0,0,0-1.65-1.65L670,329.2l1.93-.62a2.61,2.61,0,0,0,1.65-1.65l.62-1.93.63,1.93A2.56,2.56,0,0,0,676.47,328.58Z" transform="translate(-350.55 -219.78)"/><path class="cls-3" d="M559.06,287.19l1.92.63-1.92.62a2.6,2.6,0,0,0-1.66,1.65l-.62,1.93-.62-1.93a2.6,2.6,0,0,0-1.66-1.65l-1.92-.62,1.92-.63a2.56,2.56,0,0,0,1.66-1.65l.62-1.92.62,1.92A2.56,2.56,0,0,0,559.06,287.19Z" transform="translate(-350.55 -219.78)"/><path class="cls-3" d="M534.87,412.58l1.92.62-1.92.62a2.58,2.58,0,0,0-1.65,1.65l-.63,1.93-.62-1.93a2.58,2.58,0,0,0-1.65-1.65l-1.92-.62,1.92-.62a2.58,2.58,0,0,0,1.65-1.66l.62-1.92.63,1.92A2.58,2.58,0,0,0,534.87,412.58Z" transform="translate(-350.55 -219.78)"/><path class="cls-4" d="M716,325.86a2.53,2.53,0,0,0-2.52-2.22,7.1,7.1,0,0,0-2.72.86c-.44.24-.86.5-1.28.77a19.46,19.46,0,0,0-2.89,2.32,11,11,0,0,0-2.17,2.86,10.85,10.85,0,0,0-.73,1.89,3.12,3.12,0,0,0,0,1.66,2.12,2.12,0,0,0,2,1.66,2.67,2.67,0,0,0,1.73-.76,5.4,5.4,0,0,0,.67-.9c.23-.36.49-.7.74-1s.52-.64.77-1c-.14.17-.27.35-.41.53a14.61,14.61,0,0,1,2.32-2.33,15.39,15.39,0,0,1,2.21-1.38,2.32,2.32,0,0,1,.45-.13,2.6,2.6,0,0,0,1.54-1.18A2.66,2.66,0,0,0,716,325.86Z" transform="translate(-350.55 -219.78)"/><path class="cls-4" d="M724.4,324.56a1.09,1.09,0,0,0-.15-.56,1.07,1.07,0,0,0-.29-.49.75.75,0,0,0-.21-.26l-.45-.35-.09-.06a2.7,2.7,0,0,0-.72-.31,3.86,3.86,0,0,0-.49-.1c-.33-.06-.66-.11-1-.14a2,2,0,0,0-.49,0,8,8,0,0,0-1,.14l-.23.06a2.48,2.48,0,0,0-.35.13,1.9,1.9,0,0,0-.69.46,2.06,2.06,0,0,0-.58,1.41,2,2,0,0,0,.58,1.42,2.44,2.44,0,0,0,.93.55l.19,0a3.86,3.86,0,0,1,.49.09c.19.05.38.07.56.11a5.12,5.12,0,0,1,.56.15l.26.09a1.46,1.46,0,0,0,.3.07h0a1.18,1.18,0,0,0,.25,0,2.2,2.2,0,0,0,.36,0,1,1,0,0,0,.34,0,2.39,2.39,0,0,0,1-.44,1.08,1.08,0,0,0,.24-.18l0,0a2,2,0,0,0,.57-1.82Z" transform="translate(-350.55 -219.78)"/><path class="cls-5" d="M553,413.32h54.36a6.37,6.37,0,0,1,4.66,1.93l7.68,8.27a4.21,4.21,0,0,0,3.1,1.29h84.86c3,0,5.45,2.12,5.45,4.72v103c0,5.63-5.26,10.19-11.74,10.19H555.63c-4.54,0-8.22-3.2-8.22-7.14V418.13C547.41,415.47,549.89,413.32,553,413.32Z" transform="translate(-350.55 -219.78)"/><polygon class="cls-6" points="242.25 132.02 219.38 154.89 219.38 242.53 331.5 242.53 331.5 132.02 242.25 132.02"/><polygon class="cls-7" points="242.25 154.89 242.25 132.02 219.38 154.89 242.25 154.89"/><path class="cls-8" d="M533.88,439.14H684.51c3.55,0,6.6,2.19,7.25,5.22l19.66,90.79c.85,3.94-2.64,7.59-7.26,7.59H553.53c-3.55,0-6.6-2.2-7.25-5.22l-19.65-90.8C525.77,442.78,529.26,439.14,533.88,439.14Z" transform="translate(-350.55 -219.78)"/><path class="cls-9" d="M630.57,398.73l8.59-8.73a4.59,4.59,0,1,0-6.5-6.49l-8.7,8.57c-2.87-2.87-5.75-5.73-8.66-8.55a4.64,4.64,0,1,0-6.56,6.56c2.81,2.91,5.66,5.78,8.52,8.64-2.85,2.86-5.7,5.73-8.52,8.63a4.69,4.69,0,0,0,0,6.57,4.75,4.75,0,0,0,6.57,0c2.91-2.83,5.78-5.68,8.65-8.55l8.7,8.56a4.59,4.59,0,0,0,6.49-6.49Z" transform="translate(-350.55 -219.78)"/><path class="cls-10" d="M675,371.6h-1a8.92,8.92,0,0,0-.56-1.35l.69-.7a1.68,1.68,0,0,0,0-2.38l-1.65-1.66a1.69,1.69,0,0,0-2.39,0l-.69.7a8.51,8.51,0,0,0-1.36-.57v-1a1.68,1.68,0,0,0-1.68-1.68h-2.35a1.68,1.68,0,0,0-1.68,1.68v1a8.14,8.14,0,0,0-1.36.57l-.7-.7a1.68,1.68,0,0,0-2.38,0l-1.66,1.66a1.7,1.7,0,0,0,0,2.38l.7.7a10.12,10.12,0,0,0-.57,1.35h-1a1.69,1.69,0,0,0-1.68,1.69v2.34a1.69,1.69,0,0,0,1.68,1.69h1a10.84,10.84,0,0,0,.57,1.36l-.7.69a1.7,1.7,0,0,0,0,2.38l1.66,1.66a1.68,1.68,0,0,0,2.38,0l.7-.69a9,9,0,0,0,1.36.56v1a1.69,1.69,0,0,0,1.68,1.69h2.35a1.69,1.69,0,0,0,1.68-1.69v-1a9.48,9.48,0,0,0,1.36-.56l.69.69a1.69,1.69,0,0,0,2.39,0l1.65-1.66a1.68,1.68,0,0,0,0-2.38l-.69-.69a9.48,9.48,0,0,0,.56-1.36h1a1.69,1.69,0,0,0,1.69-1.69v-2.34A1.69,1.69,0,0,0,675,371.6Zm-9.8,8.75a5.89,5.89,0,1,1,5.9-5.89A5.89,5.89,0,0,1,665.23,380.35Z" transform="translate(-350.55 -219.78)"/><path class="cls-10" d="M729,399h-1a10.25,10.25,0,0,0-.57-1.36l.7-.7a1.7,1.7,0,0,0,0-2.38l-1.66-1.66a1.7,1.7,0,0,0-2.38,0l-.7.7a10.25,10.25,0,0,0-1.36-.57v-1a1.68,1.68,0,0,0-1.68-1.68H718a1.68,1.68,0,0,0-1.68,1.68v1a10.84,10.84,0,0,0-1.36.57l-.69-.7a1.71,1.71,0,0,0-2.39,0l-1.65,1.66a1.68,1.68,0,0,0,0,2.38l.69.7a9,9,0,0,0-.56,1.36h-1a1.69,1.69,0,0,0-1.69,1.68v2.35a1.69,1.69,0,0,0,1.69,1.68h1a9.48,9.48,0,0,0,.56,1.36l-.69.69a1.68,1.68,0,0,0,0,2.38l1.65,1.66a1.69,1.69,0,0,0,2.39,0l.69-.69a9.48,9.48,0,0,0,1.36.56v1a1.69,1.69,0,0,0,1.68,1.69h2.35a1.69,1.69,0,0,0,1.68-1.69v-1a9,9,0,0,0,1.36-.56l.7.69a1.68,1.68,0,0,0,2.38,0l1.66-1.66a1.7,1.7,0,0,0,0-2.38l-.7-.69a10.84,10.84,0,0,0,.57-1.36h1a1.68,1.68,0,0,0,1.68-1.68v-2.35A1.68,1.68,0,0,0,729,399Zm-9.8,8.75a5.9,5.9,0,1,1,5.89-5.9A5.9,5.9,0,0,1,719.18,407.79Z" transform="translate(-350.55 -219.78)"/><path class="cls-10" d="M701.5,354.19l-1.29-.49a13,13,0,0,0-.07-2.07l1.27-.57a2.38,2.38,0,0,0,1.18-3.14l-1.35-3a2.37,2.37,0,0,0-3.14-1.19l-1.26.57a13.5,13.5,0,0,0-1.51-1.42l.49-1.3a2.38,2.38,0,0,0-1.38-3.06l-3.09-1.17a2.38,2.38,0,0,0-3.06,1.38L687.8,340a13,13,0,0,0-2.07.07l-.57-1.26a2.37,2.37,0,0,0-3.14-1.19L679,339a2.37,2.37,0,0,0-1.19,3.13l.57,1.27a13.46,13.46,0,0,0-1.42,1.5l-1.29-.49a2.38,2.38,0,0,0-3.06,1.38l-1.17,3.09a2.37,2.37,0,0,0,1.37,3.06l1.3.49a13,13,0,0,0,.06,2.07l-1.26.57a2.38,2.38,0,0,0-1.19,3.14l1.36,3a2.37,2.37,0,0,0,3.14,1.19l1.26-.57a12,12,0,0,0,1.51,1.42l-.49,1.3a2.37,2.37,0,0,0,1.38,3.06l3.09,1.17A2.39,2.39,0,0,0,686,367.4l.49-1.3a13,13,0,0,0,2.07-.06l.57,1.26a2.36,2.36,0,0,0,3.13,1.19l3-1.36A2.36,2.36,0,0,0,696.5,364l-.56-1.27a12.73,12.73,0,0,0,1.42-1.51l1.29.49a2.37,2.37,0,0,0,3.06-1.37l1.17-3.09A2.37,2.37,0,0,0,701.5,354.19Zm-17.28,6.63A8.3,8.3,0,1,1,694.93,356,8.29,8.29,0,0,1,684.22,360.82Z" transform="translate(-350.55 -219.78)"/><polygon class="cls-6" points="228.28 64.81 222.09 77.93 235.37 114.9 270.12 102.42 253.38 55.8 228.28 64.81"/><polygon class="cls-11" points="231.74 74.46 228.28 64.81 222.09 77.93 231.74 74.46"/><path class="cls-12" d="M598.45,303.86q1.29-2.78,2.57-5.56a2.29,2.29,0,1,0-4.15-2c-.89,1.84-1.77,3.67-2.65,5.51q-2.76-1.31-5.53-2.57a2.33,2.33,0,0,0-2,4.21q2.73,1.33,5.48,2.62-1.31,2.75-2.56,5.51a2.33,2.33,0,0,0,4.21,2c.89-1.82,1.76-3.65,2.63-5.49l5.54,2.57a2.3,2.3,0,0,0,2-4.16Z" transform="translate(-350.55 -219.78)"/><polygon class="cls-6" points="300.94 40.12 289.37 44.85 276.24 76.08 305.6 88.42 322.15 49.03 300.94 40.12"/><polygon class="cls-11" points="297.52 48.27 300.94 40.12 289.37 44.85 297.52 48.27"/><path class="cls-13" d="M652.73,283.59l4.87-2a2,2,0,0,0,1.09-2.58,2,2,0,0,0-2.59-1.09l-4.89,2q-1-2.43-2-4.85a2,2,0,0,0-2.61-1.1,2,2,0,0,0-1.1,2.61q1,2.44,1.95,4.86c-1.61.66-3.23,1.33-4.83,2a2,2,0,1,0,1.51,3.71c1.63-.63,3.25-1.29,4.87-1.95q1,2.43,2,4.86a2,2,0,1,0,3.67-1.5Z" transform="translate(-350.55 -219.78)"/><circle class="cls-14" cx="226.42" cy="270.39" r="9.68"/><circle class="cls-14" cx="302.91" cy="270.39" r="9.68"/><path class="cls-14" d="M637.63,509.24l-.86-1.63c-.08-.15-8.16-15.09-24.42-15.09-14.84,0-18.45,14.06-18.6,14.66l-.44,1.8-3.59-.87.43-1.8c.05-.17,4.41-17.49,22.2-17.49,18.53,0,27.33,16.37,27.7,17.07l.86,1.64Z" transform="translate(-350.55 -219.78)"/><text class="cls-15" transform="translate(123.82 63.44) rotate(-13.9)">?</text><text class="cls-16" transform="translate(102.7 87.7) rotate(-40.89)">?</text><text class="cls-17" transform="translate(154.45 60.29) rotate(24.63)">?</text><path class="cls-18" d="M549.27,544.46c-1.77.6-52.71.78-54.66-.44-.74-.46-1.2-7.87-1.5-16.85-.06-1.94-.12-3.94-.16-6L488.82,494l34.05-.21L526.08,521l-.13,6s19.54,8.65,21.53,10.22S551.05,543.86,549.27,544.46Z" transform="translate(-350.55 -219.78)"/><path class="cls-19" d="M549.27,544.46c-1.77.6-52.71.78-54.66-.44-.9-.56-1.39-11.39-1.66-22.83l33.13-.21-.13,6s19.54,8.65,21.53,10.22S551.05,543.86,549.27,544.46Z" transform="translate(-350.55 -219.78)"/><path class="cls-20" d="M549.27,544.46c-1.77.6-52.71.78-54.66-.44-.74-.46-1.2-7.87-1.5-16.85L526,527s19.54,8.65,21.53,10.22S551.05,543.86,549.27,544.46Z" transform="translate(-350.55 -219.78)"/><path class="cls-14" d="M548.54,542.43c-8.54-.18-43-.1-51.46.37-.07,0-.07.05,0,.05,8.46.37,42.92,0,51.46-.28C548.72,542.56,548.72,542.43,548.54,542.43Z" transform="translate(-350.55 -219.78)"/><path class="cls-14" d="M544.2,535.36a6.85,6.85,0,0,0-5.11,2.1A6.71,6.71,0,0,0,537.2,542c0,.05.1.05.11,0a7.9,7.9,0,0,1,6.89-6.56C544.26,535.46,544.26,535.36,544.2,535.36Z" transform="translate(-350.55 -219.78)"/><path class="cls-14" d="M529.27,527.8c-3.42,0-7.38,1.18-9.49,4-.08.11.07.23.17.17a47.16,47.16,0,0,1,9.38-3.73A.21.21,0,0,0,529.27,527.8Z" transform="translate(-350.55 -219.78)"/><path class="cls-14" d="M531.91,528.81c-3.42,0-7.38,1.19-9.49,4-.08.11.07.23.18.17a47.47,47.47,0,0,1,9.37-3.74A.21.21,0,0,0,531.91,528.81Z" transform="translate(-350.55 -219.78)"/><path class="cls-14" d="M534.55,529.83c-3.42,0-7.37,1.19-9.49,4-.08.11.08.22.18.17a47.47,47.47,0,0,1,9.37-3.74A.21.21,0,0,0,534.55,529.83Z" transform="translate(-350.55 -219.78)"/><path class="cls-14" d="M537.19,530.85c-3.41,0-7.37,1.19-9.49,4-.08.11.08.22.18.17a47.71,47.71,0,0,1,9.37-3.74A.21.21,0,0,0,537.19,530.85Z" transform="translate(-350.55 -219.78)"/><path class="cls-14" d="M499.23,534.68c-3.84,0-3.8,6,0,6S503.07,534.66,499.23,534.68Z" transform="translate(-350.55 -219.78)"/><path class="cls-14" d="M532.93,518.66c-1.74-1.43-3.91,0-5,1.48a17.92,17.92,0,0,0-3.08,8.75.09.09,0,0,0,.11.09.42.42,0,0,0,.62.28c2.42-1.69,5.23-3.2,7.06-5.59C533.75,522.28,534.57,520,532.93,518.66Zm-4.17,7.28c-1.17.86-2.38,1.66-3.52,2.56a52.62,52.62,0,0,1,1.91-5.07,19,19,0,0,1,1.24-2.31c.74-1.13,4.08-4,4.43-.28C533,522.89,530.16,524.91,528.76,525.94Z" transform="translate(-350.55 -219.78)"/><path class="cls-14" d="M516.4,530.18c3,.45,6-.41,9-.87a.42.42,0,0,0,.26-.63.09.09,0,0,0,0-.14,17.94,17.94,0,0,0-8.29-4.17c-1.8-.34-4.34.15-4.6,2.38S514.66,529.92,516.4,530.18Zm-2.07-1.93c-2.33-2.93,2.07-3.18,3.39-2.88a20.23,20.23,0,0,1,2.5.81,53.31,53.31,0,0,1,4.89,2.33c-1.45.14-2.88.4-4.32.6C519.07,529.34,515.61,529.86,514.33,528.25Z" transform="translate(-350.55 -219.78)"/><path class="cls-21" d="M438.78,368.44s39.54,67.27,40.6,72c1.63,7.26,10.25,78.94,10.25,78.94l41.15-.74s-7.09-63.2-13.81-84c-4.84-15-39.73-64.73-39.73-64.73Z" transform="translate(-350.55 -219.78)"/><path class="cls-14" d="M527,512.32c-5.91,0-26.85-.28-34.71.45a.06.06,0,0,0,0,.12c2.7.39,28.81-.22,34.71-.41A.08.08,0,1,0,527,512.32Z" transform="translate(-350.55 -219.78)"/><path class="cls-14" d="M445.53,374.61c2.59,4.07,5.32,8,8,12.07s5.3,8.07,7.9,12.13q7.82,12.17,15.27,24.56a75,75,0,0,1,6.16,12,73.26,73.26,0,0,1,3.47,12.91c.81,4.42,1.34,8.88,1.84,13.33l1.59,14.24Q491.35,490.42,493,505c.14,1.19.27,2.38.38,3.57,0,.18-.29.21-.31,0-1.21-9.65-2.22-19.33-3.32-29q-.83-7.22-1.64-14.44c-.51-4.47-1-9-1.69-13.4a88.42,88.42,0,0,0-2.9-12.95,61.94,61.94,0,0,0-5.69-12.59C473.05,418,468,409.91,463,401.85s-10.22-16.24-15.55-24.23c-.66-1-1.32-2-2-2.94C445.35,374.6,445.48,374.53,445.53,374.61Z" transform="translate(-350.55 -219.78)"/><path class="cls-18" d="M451.74,548.43c-1.87-.11-50.31-19.74-51.66-21.6a.7.7,0,0,1-.08-.36c0-1.66,3.37-7.49,6.17-15.14.18-.49,1.43-2.76,3.16-5.83,4.77-8.4,13.21-22.81,13.21-22.81l31.66,12.58L439.05,518l-2.36,5.49S451.55,538.8,452.8,541,453.61,548.54,451.74,548.43Z" transform="translate(-350.55 -219.78)"/><path class="cls-19" d="M451.74,548.43c-1.87-.11-50.31-19.74-51.66-21.6a.7.7,0,0,1-.08-.36c0-1.66,3.37-7.49,6.17-15.14.18-.49,1.43-2.76,3.16-5.83L439.05,518l-2.36,5.49S451.55,538.8,452.8,541,453.61,548.54,451.74,548.43Z" transform="translate(-350.55 -219.78)"/><path class="cls-20" d="M451.74,548.43c-1.87-.11-50.32-19.74-51.66-21.6-.52-.71,1.65-7.32,6.09-15.5l30.52,12.12S451.55,538.8,452.81,541,453.61,548.54,451.74,548.43Z" transform="translate(-350.55 -219.78)"/><path class="cls-14" d="M451.82,546.26C444,542.89,412,530,404,527.31c-.06,0-.08,0,0,.05,7.71,3.51,39.78,16.1,47.81,19C451.94,546.46,452,546.33,451.82,546.26Z" transform="translate(-350.55 -219.78)"/><path class="cls-14" d="M450.45,538.08a6.86,6.86,0,0,0-5.52,0,6.64,6.64,0,0,0-3.47,3.52c0,.05.07.09.1,0a7.92,7.92,0,0,1,8.85-3.5A.05.05,0,0,0,450.45,538.08Z" transform="translate(-350.55 -219.78)"/><path class="cls-14" d="M439.45,525.47c-3.16-1.31-7.29-1.67-10.3.14-.11.07,0,.23.1.22a47.27,47.27,0,0,1,10.09,0A.21.21,0,0,0,439.45,525.47Z" transform="translate(-350.55 -219.78)"/><path class="cls-14" d="M441.51,527.41c-3.15-1.32-7.28-1.67-10.29.13-.12.07,0,.24.1.23a47.27,47.27,0,0,1,10.09.05A.21.21,0,0,0,441.51,527.41Z" transform="translate(-350.55 -219.78)"/><path class="cls-14" d="M443.58,529.34c-3.16-1.31-7.28-1.67-10.29.14-.12.07,0,.23.09.22a46.72,46.72,0,0,1,10.1.06A.22.22,0,0,0,443.58,529.34Z" transform="translate(-350.55 -219.78)"/><path class="cls-14" d="M445.65,531.28c-3.16-1.32-7.29-1.67-10.3.14-.11.07,0,.23.1.22a47.27,47.27,0,0,1,10.09.05A.21.21,0,0,0,445.65,531.28Z" transform="translate(-350.55 -219.78)"/><path class="cls-14" d="M409,520.59c-3.57-1.42-5.77,4.12-2.2,5.54S412.59,522,409,520.59Z" transform="translate(-350.55 -219.78)"/><path class="cls-14" d="M446.27,518.38c-1.08-2-3.62-1.48-5.16-.5a18,18,0,0,0-6.14,7,.09.09,0,0,0,.06.13c0,.25.17.55.47.48,2.89-.65,6.05-1,8.65-2.52C445.67,522,447.28,520.25,446.27,518.38Zm-6.6,5.18c-1.41.36-2.83.65-4.23,1.06a51.44,51.44,0,0,1,3.68-4,17.8,17.8,0,0,1,2-1.67c1.11-.78,5.29-2.18,4.22,1.4C444.76,522.33,441.35,523.14,439.67,523.56Z" transform="translate(-350.55 -219.78)"/><path class="cls-14" d="M426.62,522.86c2.59,1.53,5.76,1.88,8.64,2.55.3.07.49-.23.47-.48a.09.09,0,0,0,.06-.13,17.82,17.82,0,0,0-6.11-7c-1.54-1-4.08-1.49-5.16.48S425.11,522,426.62,522.86Zm-1.19-2.58c-1.06-3.58,3.11-2.16,4.22-1.38a18.83,18.83,0,0,1,2,1.68c1.33,1.23,2.46,2.64,3.66,4-1.4-.41-2.82-.7-4.23-1.06C429.41,523.07,426,522.26,425.43,520.28Z" transform="translate(-350.55 -219.78)"/><path class="cls-21" d="M441.49,516.69l-35.44-14.31S450,437.77,450.32,433c.28-4.26-19-41.33-19.78-52.13-.82-11.66,4.8-20.68,11-26.28l36.56,15.54a31.89,31.89,0,0,1-9.94,9.61s18.75,42.84,17.68,56S441.49,516.69,441.49,516.69Z" transform="translate(-350.55 -219.78)"/><path class="cls-14" d="M443.06,510c-5.12-2.21-3.62-1.65-8.77-3.79-2.52-1.05-19.08-7.94-21.61-8.51-.05,0-.09.08,0,.11,2.21,1.35,18.89,7.95,21.43,8.95,5.19,2,3.72,1.4,8.93,3.39A.08.08,0,0,0,443.06,510Z" transform="translate(-350.55 -219.78)"/><path class="cls-14" d="M474.15,378.91A69.63,69.63,0,0,0,463,382.52a.12.12,0,0,0,.08.23c3.74-1.1,7.54-2.12,11.21-3.4A.23.23,0,0,0,474.15,378.91Z" transform="translate(-350.55 -219.78)"/><path class="cls-14" d="M469.81,377.41a16,16,0,0,0-.94,2,4.56,4.56,0,0,0-.48,1.64c0,.11.15.14.22.07a6,6,0,0,0,.92-1.55c.31-.6.63-1.2.93-1.81A.36.36,0,0,0,469.81,377.41Z" transform="translate(-350.55 -219.78)"/><path class="cls-14" d="M470.25,374c.23-.56.45-1.12.69-1.68s.53-1.15.73-1.74c0-.09.18,0,.14.06-.22.57-.37,1.17-.55,1.75s-.37,1.16-.56,1.73c-.36,1.08-.8,2.15-1.26,3.19a4,4,0,0,0,1.76-.31,3.13,3.13,0,0,0,1.24-1.49c.32-.63.62-1.27.95-1.89a14.18,14.18,0,0,0,1-2.12c0-.1.18,0,.14.06A25.24,25.24,0,0,1,472.6,376c-.34.56-.61,1.14-1.23,1.36a5.45,5.45,0,0,1-2.09.14c-.09,0-.2,0-.17-.14C469.44,376.25,469.81,375.08,470.25,374Z" transform="translate(-350.55 -219.78)"/><path class="cls-14" d="M468.7,381.09c1.3,2.76,2.44,5.5,3.66,8.25s2.29,5.39,3.37,8.12c2.18,5.51,4.14,11.12,5.85,16.79.85,2.81,1.63,5.63,2.34,8.48a63.84,63.84,0,0,1,1.69,8.67,23,23,0,0,1-.74,8.69,50.42,50.42,0,0,1-3.22,8.1c-.8,1.65-1.07,1.42-.69.59,1.09-2.36,4-9.52,3.74-15.53a44.54,44.54,0,0,0-1.35-8.59q-1-4.32-2.25-8.58c-1.62-5.59-3.55-11.07-5.53-16.55-1.12-3.06-2.31-6.1-3.44-9.16s-2.31-5.86-3.57-9.22A.08.08,0,0,1,468.7,381.09Z" transform="translate(-350.55 -219.78)"/><path class="cls-14" d="M441.79,372c.64-.23,1.52.16,2.16.27a19.2,19.2,0,0,0,2.52.25,18.91,18.91,0,0,0,2.49-.09,5.34,5.34,0,0,0,2.38-.63,11.85,11.85,0,0,0,3-3.23,18,18,0,0,0,2.37-4.16.08.08,0,0,1,.14.06c-.27.85-.47,1.71-.81,2.54a16,16,0,0,1-1.17,2.25,9.63,9.63,0,0,1-3.15,3.58,9.2,9.2,0,0,1-5,.69,17.86,17.86,0,0,1-2.82-.38c-.67-.14-1.8-.24-2.23-.83A.22.22,0,0,1,441.79,372Z" transform="translate(-350.55 -219.78)"/><path class="cls-14" d="M416.17,495.62q8.73-13.22,17.15-26.65t16.61-27.11a37.88,37.88,0,0,0,3.64-6.75c.92-2.61.4-5.15-.43-7.71a128.79,128.79,0,0,0-5.44-13.75c-2-4.51-4.24-8.94-6.41-13.39a128,128,0,0,1-6.06-13.47,23,23,0,0,1-1-13.61c1.18-4.55,3.74-8.64,6.42-12.46l2.13-3c.06-.08.17,0,.12.09-2.95,4-5.83,8.19-7.56,12.87a22.53,22.53,0,0,0-1.46,7.2,23.6,23.6,0,0,0,1.15,7.37,97.29,97.29,0,0,0,5.81,13.38c2.16,4.46,4.37,8.88,6.45,13.37A140.32,140.32,0,0,1,453,425.8a19.3,19.3,0,0,1,1.47,6.54c0,2.47-1.23,4.68-2.44,6.76-5.3,9-10.81,18-16.38,26.84s-11.29,17.75-17.08,26.53l-2.19,3.31C416.28,495.92,416.08,495.76,416.17,495.62Z" transform="translate(-350.55 -219.78)"/><path class="cls-18" d="M480.1,329c3.3,7.24,20,17.22,27.77,18.29,5.62.77,22.68,1,28.52.15,6.85-1.05,1.62-19.54-2.43-19.07-11.13,1.3-20.58,2.75-23.55,2.75-3.63,0-23.26-6.3-25.63-7.19C479,321.76,478.22,324.89,480.1,329Z" transform="translate(-350.55 -219.78)"/><path class="cls-8" d="M480.2,330.91c4.18,6.19,18.07,16.29,18.07,16.29l1.92-4.27,6.38-14.11s-12.75-4-21.15-5.82a17.85,17.85,0,0,0-3-.43C477.06,322.28,476.6,325.59,480.2,330.91Z" transform="translate(-350.55 -219.78)"/><path class="cls-14" d="M480.2,330.91c4.18,6.19,18.07,16.29,18.07,16.29l1.92-4.27c-5.18-6-13.17-15.12-17.77-20.36C477.06,322.28,476.6,325.59,480.2,330.91Z" transform="translate(-350.55 -219.78)"/><path class="cls-14" d="M495.76,344.35c1.06-2.6,5.77-13.06,6.94-15.26.09-.15.2-.14.14,0a154.32,154.32,0,0,1-7,15.26C495.84,344.45,495.73,344.41,495.76,344.35Z" transform="translate(-350.55 -219.78)"/><path class="cls-18" d="M531.92,328.57c6.77-.89,15.15-2.41,22.25.61a3.84,3.84,0,0,1,1.9,1.63c3.2,1.29,3.55,3.19,3.55,3.19,2.62,2.12,2.71,4.11,2.71,4.11s3.74,1.56,3.18,4c-.63,2.72-5.77,0-9.51.23-8.57.53-20.6,3.68-23.06,4.07Z" transform="translate(-350.55 -219.78)"/><path class="cls-14" d="M546.63,336.56a57.34,57.34,0,0,1,7.53,0,55.76,55.76,0,0,1,8.09,1.64.07.07,0,0,0,0-.13,29.18,29.18,0,0,0-15.67-1.58C546.5,336.47,546.5,336.57,546.63,336.56Z" transform="translate(-350.55 -219.78)"/><path class="cls-14" d="M545.56,331.43a41,41,0,0,1,14,2.65s0,0,0,0a26.11,26.11,0,0,0-14.05-2.72C545.41,331.33,545.4,331.43,545.56,331.43Z" transform="translate(-350.55 -219.78)"/><path class="cls-14" d="M545,328.67a41,41,0,0,1,11,2.15s.05,0,0-.05c-4.63-1.94-6.53-2.11-11-2.25C544.87,328.52,544.87,328.66,545,328.67Z" transform="translate(-350.55 -219.78)"/><path class="cls-18" d="M545.71,343.61c-1.08.51-.82,1.09,1.26,1.57s10.74.62,10.43,3.64-12.51,2.63-15.92,1.57a57.27,57.27,0,0,1-8.54-4C535.33,346,541,344.46,545.71,343.61Z" transform="translate(-350.55 -219.78)"/><path class="cls-14" d="M489.16,340.54c-.05,1.3-.18,2.63-.36,3.95a.88.88,0,0,0,.05-.15c.26-.68.5-1.39.81-2,0,0,.08,0,.07,0a10.62,10.62,0,0,1-.66,2.12c-.13.32-.26.65-.4,1-.1.58-.2,1.17-.32,1.74-.23,1.09-1.26,5.73-1.49,6.51-.05.17-.25.13-.23-.06.05-.85.92-5.68,1.09-6.77a61.42,61.42,0,0,1,1.36-6.3S489.16,340.5,489.16,340.54Z" transform="translate(-350.55 -219.78)"/><path class="cls-8" d="M481.21,375.2c-2,1.05-4.65,2.67-16.47.35-.74-.15-1.48-.33-2.23-.55-11.08-3.33-24.37-16.36-25.12-17.28,0,0,17.6-28.54,40.12-37.51,2.78-1.11,7.39,1,9.94,3.69.91,1,2.88,8,2.13,13.63S483.26,374.16,481.21,375.2Z" transform="translate(-350.55 -219.78)"/><path class="cls-6" d="M479.64,337.27a6.1,6.1,0,0,1,0,1.81,6,6,0,0,1-.49,1.74,5.5,5.5,0,0,1,0-1.81A6,6,0,0,1,479.64,337.27Z" transform="translate(-350.55 -219.78)"/><path class="cls-6" d="M472,356.7a6.1,6.1,0,0,1,0,1.81,5.76,5.76,0,0,1-.5,1.74,6.1,6.1,0,0,1,0-1.81A5.84,5.84,0,0,1,472,356.7Z" transform="translate(-350.55 -219.78)"/><path class="cls-6" d="M458.92,342a6.1,6.1,0,0,1,0,1.81,5.82,5.82,0,0,1-.5,1.75,6.54,6.54,0,0,1,.5-3.56Z" transform="translate(-350.55 -219.78)"/><path class="cls-6" d="M484.67,355.71a6.17,6.17,0,0,1,0,1.82,5.84,5.84,0,0,1-.5,1.74,6.1,6.1,0,0,1,0-1.81A6.22,6.22,0,0,1,484.67,355.71Z" transform="translate(-350.55 -219.78)"/><path class="cls-6" d="M467.92,339.49a6.1,6.1,0,0,1,1.81,0,5.84,5.84,0,0,1,1.74.5,6.49,6.49,0,0,1-3.55-.5Z" transform="translate(-350.55 -219.78)"/><path class="cls-6" d="M453.11,353.53a6.1,6.1,0,0,1,1.81,0,5.76,5.76,0,0,1,1.74.5,6.1,6.1,0,0,1-1.81,0A5.76,5.76,0,0,1,453.11,353.53Z" transform="translate(-350.55 -219.78)"/><path class="cls-6" d="M470.53,368.73a6.1,6.1,0,0,1,1.81,0,6,6,0,0,1,1.74.49,5.78,5.78,0,0,1-1.81,0A6,6,0,0,1,470.53,368.73Z" transform="translate(-350.55 -219.78)"/><path class="cls-6" d="M448.55,363.21a6.61,6.61,0,0,1,3.55.49,5.78,5.78,0,0,1-1.81,0A6,6,0,0,1,448.55,363.21Z" transform="translate(-350.55 -219.78)"/><path class="cls-6" d="M479.53,323.61a6.1,6.1,0,0,1,1.81,0,6,6,0,0,1,1.74.49,5.78,5.78,0,0,1-1.81,0A6,6,0,0,1,479.53,323.61Z" transform="translate(-350.55 -219.78)"/><path class="cls-6" d="M475.23,328.47a5.8,5.8,0,0,1-1.29,1.28,5.54,5.54,0,0,1-1.58.88,6.21,6.21,0,0,1,1.28-1.28A6.3,6.3,0,0,1,475.23,328.47Z" transform="translate(-350.55 -219.78)"/><path class="cls-6" d="M451.75,342.29a6.5,6.5,0,0,1-2.87,2.16,6.65,6.65,0,0,1,2.87-2.16Z" transform="translate(-350.55 -219.78)"/><path class="cls-6" d="M481.06,348.53a5.76,5.76,0,0,1-1.28,1.28,6.13,6.13,0,0,1-1.58.89,5.36,5.36,0,0,1,1.28-1.28A5.82,5.82,0,0,1,481.06,348.53Z" transform="translate(-350.55 -219.78)"/><path class="cls-6" d="M462.08,360.49a6.21,6.21,0,0,1-1.28,1.28,6.3,6.3,0,0,1-1.59.88,6.5,6.5,0,0,1,2.87-2.16Z" transform="translate(-350.55 -219.78)"/><path class="cls-6" d="M488.33,332.2a6.21,6.21,0,0,1-1.28,1.28,5.94,5.94,0,0,1-1.58.88,6.55,6.55,0,0,1,2.86-2.16Z" transform="translate(-350.55 -219.78)"/><path class="cls-6" d="M487.94,346.05a6.47,6.47,0,0,1-2.17-2.86,5.76,5.76,0,0,1,1.28,1.28A6,6,0,0,1,487.94,346.05Z" transform="translate(-350.55 -219.78)"/><path class="cls-6" d="M445.63,355.59a5.76,5.76,0,0,1-1.28-1.28,5.82,5.82,0,0,1-.89-1.58,5.76,5.76,0,0,1,1.28,1.28A6.13,6.13,0,0,1,445.63,355.59Z" transform="translate(-350.55 -219.78)"/><path class="cls-6" d="M482.79,367a6.21,6.21,0,0,1-1.28-1.28,5.94,5.94,0,0,1-.88-1.58,6.55,6.55,0,0,1,2.16,2.86Z" transform="translate(-350.55 -219.78)"/><path class="cls-6" d="M464.17,334.59a5.76,5.76,0,0,1-1.28-1.28,6,6,0,0,1-.89-1.59,5.76,5.76,0,0,1,1.28,1.28A6,6,0,0,1,464.17,334.59Z" transform="translate(-350.55 -219.78)"/><path class="cls-6" d="M464.5,373.42a5.85,5.85,0,0,1-1.29-1.29,6.07,6.07,0,0,1-.88-1.58,5.76,5.76,0,0,1,1.28,1.28A6,6,0,0,1,464.5,373.42Z" transform="translate(-350.55 -219.78)"/><path class="cls-6" d="M467.66,350.51a6.21,6.21,0,0,1-1.28-1.28,5.94,5.94,0,0,1-.88-1.58,6.55,6.55,0,0,1,2.16,2.86Z" transform="translate(-350.55 -219.78)"/><path class="cls-18" d="M483.31,331.5c-2.87-.54-5.57-6.48-5.91-10.47a57.7,57.7,0,0,1,2.87-5.17c.93-1.66,1.92-3.52,2.7-5.29.16-.36,1.1.85,1.1.85l2,1.56,6.75,5.18a30.6,30.6,0,0,0-4.07,6.31,3.91,3.91,0,0,0-.24.76s0,.08,0,.13C488.13,326.83,486.08,332,483.31,331.5Z" transform="translate(-350.55 -219.78)"/><path class="cls-14" d="M488.55,325.23s0,.08,0,.13a7.92,7.92,0,0,1-1.17-.45c-7.38-3.46-4.12-13.36-4.12-13.36l2.89,1.43,6.75,5.18a30.6,30.6,0,0,0-4.07,6.31A3.91,3.91,0,0,0,488.55,325.23Z" transform="translate(-350.55 -219.78)"/><path class="cls-14" d="M500.61,297.06a7.74,7.74,0,0,1,3.4,6c0,3.81-1.5,7.53-1.85,7.67S500.61,297.06,500.61,297.06Z" transform="translate(-350.55 -219.78)"/><path class="cls-18" d="M483.85,299c-2,4-1.92,16.62.61,19.87,3.68,4.71,10.75,6.34,15,1.68s3.71-21,.78-24C496,292.06,486.85,293.12,483.85,299Z" transform="translate(-350.55 -219.78)"/><path class="cls-22" d="M484.18,318.74h0" transform="translate(-350.55 -219.78)"/><path class="cls-14" d="M494.62,309.15s-.07,0-.07.07c.05.86,0,1.85-.81,2.16,0,0,0,.05,0,0C494.69,311.27,494.8,310,494.62,309.15Z" transform="translate(-350.55 -219.78)"/><path class="cls-14" d="M493.83,308.27c-1.38-.08-1.43,2.7-.15,2.77S495,308.33,493.83,308.27Z" transform="translate(-350.55 -219.78)"/><path class="cls-14" d="M499.32,309.11s.07.05.07.08c0,.86.05,1.85.83,2.15,0,0,0,.05,0,.05C499.26,311.24,499.15,309.92,499.32,309.11Z" transform="translate(-350.55 -219.78)"/><path class="cls-14" d="M500.11,308.23c1.38-.09,1.44,2.69.16,2.77S498.94,308.3,500.11,308.23Z" transform="translate(-350.55 -219.78)"/><path class="cls-14" d="M493,306.15a9.77,9.77,0,0,0,1.08-.36,1.78,1.78,0,0,0,1-.58.58.58,0,0,0-.08-.71,1.42,1.42,0,0,0-1.46-.17,2.12,2.12,0,0,0-1.25.9A.62.62,0,0,0,493,306.15Z" transform="translate(-350.55 -219.78)"/><path class="cls-14" d="M501.07,307.38a9.89,9.89,0,0,1-1.1-.3,1.87,1.87,0,0,1-1.06-.52.6.6,0,0,1,0-.72,1.45,1.45,0,0,1,1.46-.25,2.16,2.16,0,0,1,1.29.84A.62.62,0,0,1,501.07,307.38Z" transform="translate(-350.55 -219.78)"/><path class="cls-14" d="M492.66,317.29c.2.21.4.49.72.52a2.24,2.24,0,0,0,.92-.2s.06,0,0,0a1.14,1.14,0,0,1-1.1.45.9.9,0,0,1-.66-.77A0,0,0,0,1,492.66,317.29Z" transform="translate(-350.55 -219.78)"/><path class="cls-14" d="M497.65,313.62s0,1.28,0,1.88a12.87,12.87,0,0,0-3.51.13c-.28.06-.25-.16.06-.31a5.2,5.2,0,0,1,3-.4c.06-.16-.09-2,0-2a5.64,5.64,0,0,1,1.33.45c0-2.68-.43-5.34-.39-8a.08.08,0,0,1,.16,0,43.1,43.1,0,0,1,.78,8.61C499.06,314.33,497.88,313.74,497.65,313.62Z" transform="translate(-350.55 -219.78)"/><path class="cls-14" d="M495.94,315a3.89,3.89,0,0,1-1.6,1.92c-1.15.46-1.55-.58-.37-1.5A3.66,3.66,0,0,1,495.94,315Z" transform="translate(-350.55 -219.78)"/><path class="cls-23" d="M494.74,316.72a1.69,1.69,0,0,1-.41.24c-1.05.42-1.47-.42-.62-1.28C494.29,315.73,494.92,315.94,494.74,316.72Z" transform="translate(-350.55 -219.78)"/><path class="cls-14" d="M483.27,309.83c1.4.43,3-3.76,3.45-5.38.4-1.42.86-5.92.93-6.23s6.08,4,9.59,3,5.87-4.18,5.91-5.65-4.31-5.21-8.09-5.4-8.88,4.61-8.88,4.61a18.55,18.55,0,0,0,1.68-2.25,4.15,4.15,0,0,0-2.95,2.55,9.15,9.15,0,0,0,.3-2.23c-.19,0-2.08,1.83-1.66,3.25,0,0-2.19,1.9-2.39,4S481.63,309.33,483.27,309.83Z" transform="translate(-350.55 -219.78)"/><path class="cls-14" d="M499.74,300.45a12,12,0,0,1-3.32,1.19,8.08,8.08,0,0,1-3.79-.61,12,12,0,0,1-3.32-2c-.88-.72-1.66-1.59-2.6-2.24-.23-.16-.5.18-.36.39a12.66,12.66,0,0,0,6.38,4.7,7.24,7.24,0,0,0,7-1.43S499.76,300.44,499.74,300.45Z" transform="translate(-350.55 -219.78)"/><path class="cls-18" d="M484.73,309.46s-2.16-4.4-4.12-3.68-.75,6.78,1.25,7.89a2.17,2.17,0,0,0,3.05-.71Z" transform="translate(-350.55 -219.78)"/><path class="cls-14" d="M481,307.51s0,0,0,.05a5.51,5.51,0,0,1,2.29,3.83,1.2,1.2,0,0,0-1.73-.59s0,.08,0,.08a1.32,1.32,0,0,1,1.38.69,6.24,6.24,0,0,1,.52,1.28c0,.14.3.11.27-.05v0C484.06,310.88,483,308,481,307.51Z" transform="translate(-350.55 -219.78)"/><path class="cls-18" d="M470.43,329.06c-1.49,8.64,7.84,37.74,13.84,43.18,8.93,8.08,25.44,13.4,31.42,15.13,2.61.75,9.82-17.6,7.18-18.8-5.65-2.59-23.2-8.07-24.85-9.47s-11.74-15.92-16.22-24.28C475.79,323.59,471.19,324.7,470.43,329.06Z" transform="translate(-350.55 -219.78)"/><path class="cls-18" d="M518.43,367s7.79,2,12.81,3.52c2.81.86,7.49,2.76,9.26,4.33,2.66,2.35,12.25,13.89,9.5,16.27-2.48,2.16-9.47-8.79-9.47-8.79s8,10.43,4.56,12.48-9.72-11.38-9.72-11.38,8,10.91,4.09,12.45c-3,1.17-9.3-10.67-9.3-10.67s6.82,9.42,3.83,10.75c-3.31,1.48-9.85-9.09-9.85-9.09-8.17,2.12-12.92-.22-16.11-2.29C507.26,384,518.43,367,518.43,367Z" transform="translate(-350.55 -219.78)"/><path class="cls-14" d="M538,378.49c1,1.19,2,2.39,2.87,3.67s1.71,2.58,2.47,3.93a25.73,25.73,0,0,1,2.43,5.54,56,56,0,0,0-5.26-9.24c-.87-1.28-1.68-2.59-2.56-3.87C537.92,378.49,538,378.46,538,378.49Z" transform="translate(-350.55 -219.78)"/><path class="cls-14" d="M533.33,381.58c1.69,1.34,5.24,6.33,6.61,9.67,0,.14,0,.13-.1,0-1.08-1.65-5.4-8.05-6.55-9.65C533.27,381.58,533.31,381.56,533.33,381.58Z" transform="translate(-350.55 -219.78)"/><path class="cls-14" d="M528.85,383.51a23.72,23.72,0,0,1,4.9,7.64c.06.14,0,.11-.13,0-1.58-2.57-2.8-4.6-4.85-7.56C528.74,383.53,528.81,383.46,528.85,383.51Z" transform="translate(-350.55 -219.78)"/><path class="cls-8" d="M478.92,329.7c-7-9.85-11.12-6.2-9.73,4.49a172.38,172.38,0,0,0,4.81,21.9l17.57-8.51S483.37,336,478.92,329.7Z" transform="translate(-350.55 -219.78)"/><path class="cls-6" d="M483.17,333.57a6.14,6.14,0,0,1,.56,1.73,6.07,6.07,0,0,1,.06,1.81,5.84,5.84,0,0,1-.56-1.73A6.08,6.08,0,0,1,483.17,333.57Z" transform="translate(-350.55 -219.78)"/><path class="cls-6" d="M472.78,339.56a5.87,5.87,0,0,1,1.72-.56,6.14,6.14,0,0,1,1.82-.06,6.14,6.14,0,0,1-1.73.56A6.08,6.08,0,0,1,472.78,339.56Z" transform="translate(-350.55 -219.78)"/><path class="cls-6" d="M473.23,324.25a5.85,5.85,0,0,1-.83,1.61,6.13,6.13,0,0,1-1.23,1.32,6,6,0,0,1,.82-1.61A6.2,6.2,0,0,1,473.23,324.25Z" transform="translate(-350.55 -219.78)"/><path class="cls-6" d="M488.05,344.15a6,6,0,0,1-.82,1.61,6.25,6.25,0,0,1-1.24,1.33,5.71,5.71,0,0,1,.83-1.61A6,6,0,0,1,488.05,344.15Z" transform="translate(-350.55 -219.78)"/><path class="cls-6" d="M475.9,350.13a6.29,6.29,0,0,1-1.61-.83,6.2,6.2,0,0,1-1.32-1.24,5.85,5.85,0,0,1,1.61.83A5.94,5.94,0,0,1,475.9,350.13Z" transform="translate(-350.55 -219.78)"/><path class="cls-14" d="M481.25,332.66c.94,1.29,1.91,2.55,2.87,3.81-.24-.64-.45-1.28-.64-1.94a0,0,0,0,1,0,0c.2.51.41,1,.6,1.52.09.24.18.49.28.73l.06.16c.75,1,1.5,2,2.22,3,.86,1.21,1.69,2.43,2.53,3.65s1.68,2.73,2.6,4a10.87,10.87,0,0,1-1.71.85c-.16.08-.26-.07-.1-.12s1.45-.84,1.47-.86c-.84-1.22-1.81-2.36-2.68-3.56s-1.75-2.39-2.59-3.61c-1.72-2.46-3.3-5-5-7.5C481.18,332.66,481.23,332.63,481.25,332.66Z" transform="translate(-350.55 -219.78)"/><path class="cls-14" d="M469.63,341.26c.26.52.55,1,.79,1.57.09.22.19.44.29.66-.4-1.9-.79-3.81-1.18-5.71,0,0,0,0,0,0,.81,3.08,1.62,6.17,2.37,9.27a91.17,91.17,0,0,1,2,9,10.37,10.37,0,0,1,1.65-.56,8,8,0,0,1-1.81.88,93.33,93.33,0,0,1-2.29-9.33c-.19-.85-.37-1.71-.55-2.56-.2-.52-.44-1-.67-1.52s-.45-1.08-.67-1.62A0,0,0,0,1,469.63,341.26Z" transform="translate(-350.55 -219.78)"/><path class="cls-14" d="M474.28,353.15c2.44-1.37,12.64-6.65,14.92-7.65.16-.07.24,0,.08.11a155.73,155.73,0,0,1-14.94,7.63C474.28,353.27,474.22,353.19,474.28,353.15Z" transform="translate(-350.55 -219.78)"/></svg>