<svg id="Layer_1" data-name="Layer 1" xmlns="http://www.w3.org/2000/svg" viewBox="0 0 36.62 38.14"><defs><style>.cls-1{fill:#5a5a5a;}</style></defs><title>PolicyRelationShipManager</title><path class="cls-1" d="M878.24,384.79H872c-.56,0-1.11-.08-1.19-.75s.27-1,1-1c2.37,0,4.74,0,7.11,0,2,0,4,0,6.06,0,.59,0,1.06.1,1.13.79s-.47.91-1,.92c-2.28,0-4.56,0-6.84,0Z" transform="translate(-864.98 -365)"/><path class="cls-1" d="M882.2,395.72c-3.58,0-7.09,0-10.59,0-.28,0-.72-.48-.78-.79-.13-.62.35-.86.92-.87h10Z" transform="translate(-864.98 -365)"/><path class="cls-1" d="M881.16,388.49v1.76h-9.44c-.55,0-.9-.25-.92-.82a.82.82,0,0,1,.9-.94Z" transform="translate(-864.98 -365)"/><path class="cls-1" d="M875.56,377.53c1.23,0,2.46,0,3.68,0,.59,0,1,.23,1,.84s-.36.87-1,.86c-2.51,0-5,0-7.53,0-.59,0-1-.23-1-.87s.45-.82,1-.82Z" transform="translate(-864.98 -365)"/><path class="cls-1" d="M873.71,374.1a12.1,12.1,0,0,1-2.09,0,1.12,1.12,0,0,1-.77-.78c0-.3.44-.83.72-.84a35.24,35.24,0,0,1,4.36,0c.26,0,.66.56.68.88s-.43.7-.72.74A14.38,14.38,0,0,1,873.71,374.1Z" transform="translate(-864.98 -365)"/><path class="cls-1" d="M867.21,403.14c-1.74,0-2.21-.48-2.21-2.24v-8.66q0-12.53,0-25.05a2.1,2.1,0,0,1,1.17-2.19h18.19l2.66,2.6c2.31,2.28,4.7,4.63,7.16,6.84a3.5,3.5,0,0,1,1.28,3.23c-.06,1.05,0,2.1,0,3.22,0,.28,0,.56,0,.85h0a12.75,12.75,0,0,1-1.3-.79,1.07,1.07,0,0,1-.09-.44c0-.76,0-1.51,0-2.31v-1.35h-9.4c-1.07,0-1.25-.18-1.25-1.28v-9H866.47V401.7h8.94c2.71,0,5.41,0,8.12,0,.74,0,1,.15,1.26.62a5.12,5.12,0,0,0,.56.84H867.21Zm17.65-27.82h8.19l-8.19-7.67Z" transform="translate(-864.98 -365)"/><path class="cls-1" d="M894.13,403.14H888a1.22,1.22,0,0,1-1.34-1.33,11.61,11.61,0,0,1,.18-2.63,6.71,6.71,0,0,1,6-5.16,11.75,11.75,0,0,1,3.35.11,6.79,6.79,0,0,1,5.39,6.65c0,.37,0,.73,0,1.1a1.19,1.19,0,0,1-1.27,1.26Z" transform="translate(-864.98 -365)"/><path class="cls-1" d="M898.76,388.5a4.65,4.65,0,1,1-4.67-4.58A4.61,4.61,0,0,1,898.76,388.5Z" transform="translate(-864.98 -365)"/></svg>