<svg id="Layer_1" data-name="Layer 1" xmlns="http://www.w3.org/2000/svg" viewBox="0 0 39.72 40"><defs><style>.cls-1{fill:#5a5a5a;}</style></defs><title>PrimaryPhysician</title><path class="cls-1" d="M306.69,404.07a4.35,4.35,0,0,1-1.83-.4,4,4,0,0,1-2.36-4.43,3.86,3.86,0,0,0-.89-3.43,19.85,19.85,0,0,1,15.9-31.74,19.29,19.29,0,0,1,3.86.39,20.14,20.14,0,0,1,15.77,16.47,19.73,19.73,0,0,1-15,22.29,4.35,4.35,0,0,1-1.07.13,4.3,4.3,0,0,1-4.34-4.13c0-.76,0-1.5,0-2.3,0-.36,0-.72,0-1.08v-.34l-.77-.29c-.3-.12-.56-.22-.83-.3a9,9,0,0,1-6.83-8.56c-.13-2.33-.13-4.87,0-8,.1-2.77,1.19-4.08,4-4.86l.41-.13a3.61,3.61,0,0,1,.72-.18h.1c.44-.05,1.1-.13,1.5-.14a8.66,8.66,0,0,1,.14,2.24,2.63,2.63,0,0,1-.79.16h-.13a8.76,8.76,0,0,0-1.61-.18c-2.39,0-2.75,1.83-2.78,3.63-.05,2.73-.05,5,0,7a7.62,7.62,0,1,0,15.24-.07c0-2.89,0-5.23,0-7.36s-1-3.27-2.82-3.27a5.67,5.67,0,0,0-1.29.16,2.06,2.06,0,0,1-.39,0,4.81,4.81,0,0,1-.76-.07,9.51,9.51,0,0,1,.05-2.26c.13,0,.33,0,.56,0a5.73,5.73,0,0,1,.63,0,8.24,8.24,0,0,1,1.2.32c.27.09.54.18.81.25a4.14,4.14,0,0,1,3.5,4.08,73.15,73.15,0,0,1-.06,9.59c-.34,3.69-2.49,6.24-6.39,7.57-1.75.61-2.45,2.53-1.75,4.78a2.72,2.72,0,0,0,2.66,2.15,3.55,3.55,0,0,0,1-.14,17.83,17.83,0,0,0,12.58-11.35,18.31,18.31,0,0,0-17.13-24.62,18.43,18.43,0,0,0-13.59,6.08,18.21,18.21,0,0,0-1.12,23.06,2.17,2.17,0,0,0,1.76,1.08,2.9,2.9,0,0,0,1-.2,3.67,3.67,0,0,1,1.19-.2,4.31,4.31,0,0,1,3.13,7.18A4.26,4.26,0,0,1,306.69,404.07Zm-.07-7a2.69,2.69,0,0,0-2.66,2.58,2.54,2.54,0,0,0,.67,1.92,2.72,2.72,0,0,0,2,.89h.09a2.54,2.54,0,0,0,2.65-2.39,3.08,3.08,0,0,0-.82-2.24,2.42,2.42,0,0,0-1.73-.76Z" transform="translate(-297.68 -364.07)"/><path class="cls-1" d="M316.27,385.17h-2.44a1.22,1.22,0,0,1-1.26-1.21,1.24,1.24,0,0,1,1.27-1.22h2.42a1.28,1.28,0,0,0,0-.19c0-.77,0-1.53,0-2.3a1.12,1.12,0,0,1,.7-1.05,1.23,1.23,0,0,1,1.75,1.11v2.43h2.44a1.25,1.25,0,0,1,1.22.9,1.22,1.22,0,0,1-1.21,1.53h-2.45v2.42a1.17,1.17,0,0,1-.65,1.09,1.16,1.16,0,0,1-1.24-.05,1.12,1.12,0,0,1-.56-1c0-.76,0-1.52,0-2.28Z" transform="translate(-297.68 -364.07)"/></svg>