<svg id="Layer_1" data-name="Layer 1" xmlns="http://www.w3.org/2000/svg" viewBox="0 0 23.87 25"><defs><style>.cls-1{fill:#fff;}</style></defs><title>ProfileIcon</title><path class="cls-1" d="M667.32,414.17c-.07-.54-.1-1.08-.21-1.61a11.18,11.18,0,0,0-7-8.45l-.22-.11a7,7,0,0,0,2.26-3.19,7.21,7.21,0,0,0-1.56-7.3,7.14,7.14,0,0,0-9.5-.78,6.84,6.84,0,0,0-2.71,4.29,7.13,7.13,0,0,0,2.51,7l-.26.11a11.19,11.19,0,0,0-5.36,4.45,12.1,12.1,0,0,0-1.8,6.46v.1h0a1.2,1.2,0,0,0,2.39-.06s0-.08,0-.13a11.27,11.27,0,0,1,.36-2.64,8.53,8.53,0,0,1,6-6.22,10.09,10.09,0,0,1,8.16.77,8.53,8.53,0,0,1,4.38,6.32c.11.6.13,1.23.18,1.84v.06a1.2,1.2,0,0,0,2.39.06h0v-.74C667.35,414.32,667.33,414.25,667.32,414.17Zm-11.85-11a4.77,4.77,0,1,1,4.73-4.75A4.77,4.77,0,0,1,655.47,403.21Z" transform="translate(-643.5 -391.27)"/></svg>