<svg id="Layer_1" data-name="Layer 1" xmlns="http://www.w3.org/2000/svg" viewBox="0 0 50 34.1"><defs><style>.cls-1{fill:#fff;}</style></defs><title>rightArrow</title><path class="cls-1" d="M335.08,381.73c-.81-.78-1.64-1.55-2.44-2.35-2.79-2.78-5.59-5.57-8.37-8.38a3.9,3.9,0,0,1-.95-1.43,2,2,0,0,1,1-2.28,2.12,2.12,0,0,1,2.62.44q3.51,3.48,7,7l7.53,7.53c1.27,1.27,1.29,2.31,0,3.57L327,400.3a2.16,2.16,0,0,1-2.68.56,2,2,0,0,1-1-2.26,3.24,3.24,0,0,1,.81-1.3c3.56-3.59,7.15-7.16,10.73-10.73.06-.07.1-.15.28-.4H295.29c-.31,0-.62,0-.93,0a2.1,2.1,0,0,1,0-4.19c.31,0,.62,0,.93,0H335Z" transform="translate(-292.41 -367.01)"/><path class="cls-1" d="M335.08,381.73c-.81-.78-1.64-1.55-2.44-2.35-2.79-2.78-5.59-5.57-8.37-8.38a3.9,3.9,0,0,1-.95-1.43,2,2,0,0,1,1-2.28,2.12,2.12,0,0,1,2.62.44q3.51,3.48,7,7l7.53,7.53c1.27,1.27,1.29,2.31,0,3.57L327,400.3a2.16,2.16,0,0,1-2.68.56,2,2,0,0,1-1-2.26,3.24,3.24,0,0,1,.81-1.3c3.56-3.59,7.15-7.16,10.73-10.73.06-.07.1-.15.28-.4H295.29c-.31,0-.62,0-.93,0a2.1,2.1,0,0,1,0-4.19c.31,0,.62,0,.93,0H335Z" transform="translate(-292.41 -367.01)"/></svg>