<svg id="Layer_1" data-name="Layer 1" xmlns="http://www.w3.org/2000/svg" viewBox="0 0 29.98 40"><defs><style>.cls-1{fill:#5a5a5a;}</style></defs><title>SafetyManager</title><path class="cls-1" d="M645,366.94a9,9,0,0,1,.74.62c2.59,2.57,5.16,5.16,7.75,7.72a1.53,1.53,0,0,1,.49,1.17q0,13.44,0,26.88a3.35,3.35,0,0,1-3.6,3.61H627.54a3.35,3.35,0,0,1-3.56-3.58V370.71a3.34,3.34,0,0,1,2.86-3.7s.06-.05.09-.07Zm7.35,10h-4.69a3.37,3.37,0,0,1-3.66-3.64c0-1.41,0-2.83,0-4.25,0-.14,0-.28,0-.46H627.58a1.76,1.76,0,0,0-2,2v32.78a1.76,1.76,0,0,0,2,2h22.7c1.39,0,2-.64,2-2V376.93ZM651,375.3,645.63,370c0,1.23,0,2.55,0,3.87a1.56,1.56,0,0,0,1.55,1.44C648.47,375.33,649.74,375.3,651,375.3Z" transform="translate(-623.98 -366.94)"/><path class="cls-1" d="M635.51,399.49a11.72,11.72,0,0,1-.69,1.19,5.11,5.11,0,0,1-.91,1,1.38,1.38,0,0,1-1.52.07c-.41-.21-.8-.48-1.22-.74-.24.21-.5.44-.77.66a.82.82,0,0,1-1.22,0,.81.81,0,0,1,.17-1.2c.24-.22.61-.41.67-.67s-.25-.53-.4-.8a3.61,3.61,0,0,1,0-4,2.19,2.19,0,0,1,2.93-1,2.43,2.43,0,0,1,1.28,3,7.7,7.7,0,0,1-1.26,2.45l-.24.35s0,.07,0,.08c.66.68.81.66,1.24-.14.25-.46.48-.93.71-1.39.09-.16.17-.33.26-.48.27-.44.57-.84,1.16-.79s.83.49,1,1,.34,1,.51,1.55c.08.22.16.44.26.74.59-.49,1.13-.93,1.65-1.39s1.09-1,1.63-1.51.91-.47,1.27-.11a.83.83,0,0,1-.14,1.26c-1,.92-2,1.82-3.07,2.71a4.64,4.64,0,0,1-.93.57,1.13,1.13,0,0,1-1.64-.47,9.18,9.18,0,0,1-.56-1.28C635.63,399.86,635.59,399.7,635.51,399.49Zm-4.27-1.06a5.39,5.39,0,0,0,1.07-2.22.93.93,0,0,0-.09-.52.61.61,0,0,0-1.07-.15A2.11,2.11,0,0,0,631.24,398.43Z" transform="translate(-623.98 -366.94)"/><path class="cls-1" d="M639,380.31h9.22a.79.79,0,0,1,.23,1.53,1.64,1.64,0,0,1-.54.08H630.05a1.64,1.64,0,0,1-.54-.07A.79.79,0,0,1,629,381a.82.82,0,0,1,.74-.7H639Z" transform="translate(-623.98 -366.94)"/><path class="cls-1" d="M638.94,386.93h-8.86a1.83,1.83,0,0,1-.57-.08A.78.78,0,0,1,629,386a.83.83,0,0,1,.74-.7h18.11c.72,0,1.11.28,1.11.8s-.4.82-1.1.82Z" transform="translate(-623.98 -366.94)"/><path class="cls-1" d="M642.32,391.93h-5.7c-.61,0-1-.32-1-.84a.77.77,0,0,1,.73-.77h11.74a.81.81,0,0,1,.81.78.82.82,0,0,1-.74.82,4.85,4.85,0,0,1-.66,0h-5.23Z" transform="translate(-623.98 -366.94)"/><path class="cls-1" d="M634.8,375.31h4.84c.61,0,1,.29,1,.79s-.35.83-1,.83h-9.69c-.71,0-1.13-.54-.88-1.11a.83.83,0,0,1,.85-.5h4.89Z" transform="translate(-623.98 -366.94)"/></svg>