<svg id="Layer_1" data-name="Layer 1" xmlns="http://www.w3.org/2000/svg" viewBox="0 0 585.9 214.86"><defs><style>.cls-1{fill:#fff;}</style></defs><title>StarIcon</title><path class="cls-1" d="M483.53,413.19c-.65-.64-2.94.57-5.46,2.79-2.52-2.22-4.82-3.43-5.46-2.79s.56,2.94,2.78,5.46c-2.22,2.52-3.43,4.82-2.78,5.47s2.94-.57,5.46-2.79c2.52,2.22,4.81,3.43,5.46,2.79s-.57-2.95-2.79-5.47C483,416.13,484.17,413.84,483.53,413.19Z" transform="translate(-389.72 -276.57)"/><path class="cls-1" d="M619.47,478c-.8,0-1.46,2.15-1.65,5.07-2.92.19-5.08.85-5.08,1.65s2.16,1.46,5.08,1.65c.19,2.91.85,5.07,1.65,5.07s1.46-2.16,1.64-5.07c2.92-.19,5.08-.86,5.08-1.65s-2.16-1.46-5.08-1.65C620.93,480.14,620.26,478,619.47,478Z" transform="translate(-389.72 -276.57)"/><path class="cls-1" d="M801.72,457.08c-.8,0-1.46,2.16-1.65,5.08-2.91.18-5.07.85-5.07,1.64s2.16,1.46,5.07,1.65c.19,2.92.85,5.08,1.65,5.08s1.46-2.16,1.65-5.08c2.91-.19,5.07-.85,5.07-1.65s-2.16-1.46-5.07-1.64C803.18,459.24,802.51,457.08,801.72,457.08Z" transform="translate(-389.72 -276.57)"/><path class="cls-1" d="M831,400.09c-2.2,0-4,6-4.55,14-8.06.52-14,2.36-14,4.55s6,4,14,4.55c.51,8.06,2.35,14,4.55,14s4-6,4.55-14c8.05-.51,14-2.35,14-4.55s-6-4-14-4.55C835,406.05,833.17,400.08,831,400.09Z" transform="translate(-389.72 -276.57)"/><path class="cls-1" d="M961.65,283.73c-1.65,0-3,4.49-3.42,10.55-6.06.38-10.54,1.77-10.54,3.42s4.48,3,10.54,3.42c.38,6.06,1.77,10.54,3.42,10.54s3-4.48,3.42-10.54c6.06-.39,10.55-1.77,10.55-3.42s-4.49-3-10.55-3.42C964.69,288.22,963.3,283.73,961.65,283.73Z" transform="translate(-389.72 -276.57)"/><path class="cls-1" d="M848.08,276.57c-.85,0-1.56,2.3-1.76,5.41-3.11.19-5.41.9-5.41,1.75s2.3,1.56,5.41,1.76c.2,3.1.91,5.41,1.76,5.41s1.55-2.31,1.75-5.41c3.11-.2,5.41-.91,5.41-1.76s-2.3-1.56-5.41-1.75C849.63,278.87,848.92,276.57,848.08,276.57Z" transform="translate(-389.72 -276.57)"/><path class="cls-1" d="M399.58,301.8c-1.16,0-2.14,3.17-2.42,7.45-4.28.27-7.44,1.25-7.44,2.41s3.16,2.15,7.44,2.42c.28,4.28,1.26,7.45,2.42,7.45s2.15-3.17,2.42-7.45c4.28-.27,7.45-1.25,7.45-2.42s-3.17-2.14-7.45-2.41C401.73,305,400.75,301.8,399.58,301.8Z" transform="translate(-389.72 -276.57)"/></svg>