<svg xmlns="http://www.w3.org/2000/svg" viewBox="0 0 73.5 50"><defs><style>.cls-1{fill:#e24a28;}.cls-2{fill:#007846;}.cls-3{fill:#1dc63c;}.cls-4{fill:#ff7f04;}</style></defs><title>Asset 1</title><g id="Layer_2" data-name="Layer 2"><g id="Layer_1-2" data-name="Layer 1"><path class="cls-1" d="M21,50a4.85,4.85,0,0,1-4.55-3.1L8.32,26.43a4.91,4.91,0,0,1,9.12-3.62l8.13,20.47A4.9,4.9,0,0,1,25.51,47a4.82,4.82,0,0,1-2.69,2.61A4.9,4.9,0,0,1,21,50Z"/><path class="cls-2" d="M52.83,50a4.86,4.86,0,0,1-4.56-3.1L40.14,26.43a4.9,4.9,0,0,1,9.11-3.62l8.13,20.47A4.92,4.92,0,0,1,52.83,50Z"/><path class="cls-3" d="M73.15,6.72,57.38,46.92A4.89,4.89,0,0,1,52.82,50,5,5,0,0,1,51,49.65a4.89,4.89,0,0,1-2.74-6.37L64,3.08a4.91,4.91,0,0,1,9.11,3.64"/><path class="cls-4" d="M45.36,13,41.58,3.51h0a4.89,4.89,0,0,0-9.23-.43L16.46,43.28a4.89,4.89,0,0,0,2.74,6.37,4.9,4.9,0,0,0,6.37-2.73L36.89,18.26h0s4-6.62,10.59.08Z"/><circle class="cls-1" cx="4.91" cy="4.91" r="4.9"/><path class="cls-1" d="M.36,6.75s4.13,8.91,8.26,7.3c3.89-1.52.83-11,.83-11Z"/><circle class="cls-1" cx="4.9" cy="4.9" r="4.9"/></g></g></svg>