<svg xmlns="http://www.w3.org/2000/svg" viewBox="0 0 45 45"><defs><style>.cls-1{fill:#dc5000;}.cls-2{fill:#fff;}</style></defs><title>back-icon</title><g id="Layer_2" data-name="Layer 2"><g id="Layer_1-2" data-name="Layer 1"><rect class="cls-1" width="45" height="45" rx="22.5" transform="translate(45 45) rotate(-180)"/><path class="cls-2" d="M14.85,24.12c.56.54,1.13,1.07,1.69,1.62,1.93,1.93,3.87,3.86,5.79,5.8a2.69,2.69,0,0,1,.66,1,1.39,1.39,0,0,1-.67,1.59,1.5,1.5,0,0,1-1.82-.31c-1.62-1.61-3.23-3.23-4.85-4.85s-3.47-3.47-5.21-5.21a1.49,1.49,0,0,1,0-2.47l10-10a1.5,1.5,0,0,1,1.85-.39A1.37,1.37,0,0,1,23,12.44a2.31,2.31,0,0,1-.56.9L15,20.77s-.07.1-.2.27H33.24c.21,0,.43,0,.64,0a1.45,1.45,0,0,1,0,2.9c-.21,0-.43,0-.64,0H14.94Z"/></g></g></svg>