<svg xmlns="http://www.w3.org/2000/svg" viewBox="0 0 40.33 40"><defs><style>.cls-1{fill:#5a5a5a;}</style></defs><title>building-icon</title><g id="Layer_2" data-name="Layer 2"><g id="Layer_1-2" data-name="Layer 1"><path class="cls-1" d="M0,2A3.13,3.13,0,0,1,.91.56,3.05,3.05,0,0,1,3.53.09l13.29,2c1.49.22,3,.44,4.47.69a2.49,2.49,0,0,1,2.24,2.64v9.49l2.39.48,12.34,2.45a2.48,2.48,0,0,1,2.07,2.55V37.31a2.52,2.52,0,0,1-2,2.64l-.11,0H2.13A2.6,2.6,0,0,1,.49,39,8.42,8.42,0,0,1,0,38ZM6.71,38.3v-.49q0-3.41,0-6.81a2.52,2.52,0,0,1,2.73-2.75h4.61A2.52,2.52,0,0,1,16.8,31V38.3h5V5.38a.83.83,0,0,0-.78-.92c-.85-.14-1.71-.26-2.56-.39L2.86,1.71c-.81-.13-1.19.19-1.19,1V37.25c0,.77.32,1.07,1.08,1.08H6.34ZM23.56,16.67V38.33H37.48c.9,0,1.17-.28,1.17-1.18V20.69c0-.87-.17-1.08-1-1.25l-10.26-2ZM15.12,38.3V31c0-.73-.3-1-1-1H9.49c-.82,0-1.08.26-1.08,1.09V38.3Z"/><path class="cls-1" d="M7.58,8.08H9.19a.83.83,0,0,1,.89.84.84.84,0,0,1-.91.83H6A.84.84,0,0,1,5,8.92a.83.83,0,0,1,.89-.84Z"/><path class="cls-1" d="M7.55,14.8H6A.84.84,0,0,1,5,14a.83.83,0,0,1,.9-.82H9.17a.84.84,0,1,1,0,1.67Z"/><path class="cls-1" d="M7.57,18.16H9.14c.58,0,.94.33.94.83a.84.84,0,0,1-.93.84q-1.59,0-3.18,0A.85.85,0,0,1,5,19,.82.82,0,0,1,6,18.17Z"/><path class="cls-1" d="M7.6,23.21c.54,0,1.08,0,1.61,0a.82.82,0,0,1,.87.82.83.83,0,0,1-.89.84H5.93A.83.83,0,0,1,5,24a.82.82,0,0,1,.87-.82C6.47,23.2,7,23.21,7.6,23.21Z"/><path class="cls-1" d="M16,9.75H14.38a.83.83,0,0,1-.93-.84.82.82,0,0,1,.9-.83h3.22a.84.84,0,1,1,0,1.67Z"/><path class="cls-1" d="M15.93,14.8H14.36a.82.82,0,0,1-.91-.82.82.82,0,0,1,.91-.85h3.22a.83.83,0,1,1,0,1.66Z"/><path class="cls-1" d="M16,18.16h1.61a.83.83,0,1,1,0,1.66c-1.07,0-2.15,0-3.22,0a.83.83,0,0,1-.9-.83.8.8,0,0,1,.88-.83Z"/><path class="cls-1" d="M16,23.21c.54,0,1.07,0,1.61,0a.83.83,0,1,1,0,1.66H14.33a.82.82,0,0,1-.88-.84.8.8,0,0,1,.86-.82C14.87,23.2,15.44,23.21,16,23.21Z"/><path class="cls-1" d="M31.1,23.2h1.61a.83.83,0,1,1,0,1.66H29.45a.81.81,0,0,1-.87-.81.8.8,0,0,1,.87-.85Z"/><path class="cls-1" d="M31.07,28.25c.55,0,1.1,0,1.65,0a.83.83,0,1,1,0,1.66q-1.65,0-3.3,0a.8.8,0,0,1-.85-.83.79.79,0,0,1,.84-.83C30,28.24,30.52,28.25,31.07,28.25Z"/><path class="cls-1" d="M31.09,33.29h1.65a.83.83,0,0,1,.87.82.85.85,0,0,1-.89.85H29.46a.82.82,0,0,1-.88-.85.79.79,0,0,1,.86-.82Z"/></g></g></svg>