<svg xmlns="http://www.w3.org/2000/svg" viewBox="0 0 36.08 40"><defs><style>.cls-1{fill:#787878;}</style></defs><title>calender-icon</title><g id="Layer_2" data-name="Layer 2"><g id="Layer_1-2" data-name="Layer 1"><path class="cls-1" d="M2.91,14H27.44c.31,0,.72-.11.92,0a2.9,2.9,0,0,1,1.09,1.2,1.13,1.13,0,0,1-.91,1.42,4.1,4.1,0,0,1-1.11.09H2.82c0,.4,0,.7,0,1q0,6,0,12a12.88,12.88,0,0,0,.12,2.06c.49,3.15,2.45,4.87,6,5.23a36.07,36.07,0,0,0,3.75.17c4.68,0,9.37-.07,14.06-.12a7.54,7.54,0,0,0,1.48-.21,5.74,5.74,0,0,0,5-5.79c.11-2.15.05-4.31.06-6.47V14c0-.5,0-1,0-1.5C33.06,8.76,30.86,6.58,27,6.38c0,.39,0,.78-.07,1.17a1.26,1.26,0,0,1-1.33,1.29,1.24,1.24,0,0,1-1.35-1.27c0-2.1,0-4.19,0-6.29A1.25,1.25,0,0,1,25.47,0a1.31,1.31,0,0,1,1.41,1.21,9.5,9.5,0,0,1,0,1.6c-.05.57.21.77.74.82a10.42,10.42,0,0,1,1.56.28c4.23,1.07,6.66,4,6.76,8.55.13,6.15.16,12.31,0,18.47-.14,5.33-3.45,8.55-9,8.9-3.37.21-6.75.16-10.13.14A73,73,0,0,1,8,39.66C3,39,.2,35.87.09,30.86,0,24.73,0,18.6.09,12.48A8.4,8.4,0,0,1,4,5.07a1.42,1.42,0,0,1,2.13.28,1.45,1.45,0,0,1-.64,2.06A6.32,6.32,0,0,0,2.91,14Z"/><path class="cls-1" d="M11.83,6.14c0,.6,0,1,0,1.47a1.25,1.25,0,0,1-1.31,1.31A1.19,1.19,0,0,1,9.18,7.66c0-2.06,0-4.13,0-6.19A1.19,1.19,0,0,1,10.54.24a1.25,1.25,0,0,1,1.31,1.31c0,.56,0,1.12,0,1.78.38,0,.71.06,1,.06h6.47c1.14,0,1.73.49,1.72,1.39s-.59,1.35-1.75,1.35c-2.12,0-4.25,0-6.37,0Z"/><path class="cls-1" d="M11.45,30.17a1.76,1.76,0,0,1-1.73,1.74A1.72,1.72,0,0,1,8,30.15a1.7,1.7,0,0,1,1.72-1.73A1.72,1.72,0,0,1,11.45,30.17Z"/><path class="cls-1" d="M26.39,28.42a1.73,1.73,0,0,1,1.75,1.71,1.76,1.76,0,0,1-1.69,1.78,1.73,1.73,0,0,1-1.74-1.72A1.71,1.71,0,0,1,26.39,28.42Z"/><path class="cls-1" d="M19.77,30.19A1.72,1.72,0,0,1,18,31.91a1.75,1.75,0,0,1-1.68-1.79,1.71,1.71,0,1,1,3.42.07Z"/><path class="cls-1" d="M9.75,21.26a1.73,1.73,0,0,1,0,3.46,1.73,1.73,0,0,1,0-3.46Z"/><path class="cls-1" d="M19.77,23A1.68,1.68,0,0,1,18,24.72a1.73,1.73,0,0,1,.05-3.46A1.68,1.68,0,0,1,19.77,23Z"/><path class="cls-1" d="M28.14,23a1.72,1.72,0,0,1-1.72,1.73,1.73,1.73,0,0,1,0-3.46A1.72,1.72,0,0,1,28.14,23Z"/></g></g></svg>