<svg xmlns="http://www.w3.org/2000/svg" viewBox="0 0 40 40"><defs><style>.cls-1{fill:#ff9e00;}.cls-2{fill:#fff;}</style></defs><title>download-icon</title><g id="Layer_2" data-name="Layer 2"><g id="Layer_1-2" data-name="Layer 1"><circle class="cls-1" cx="20" cy="20" r="20"/><path class="cls-2" d="M11,27H29V22.45a1.5,1.5,0,0,1,3-.2,1,1,0,0,1,0,.24V28.4a1.51,1.51,0,0,1-.86,1.42,1.63,1.63,0,0,1-.72.15H9.51A1.5,1.5,0,0,1,8,28.44v-6a1.5,1.5,0,0,1,3-.19c0,.12,0,.24,0,.36V27Z"/><path class="cls-2" d="M21.54,18.79l1.05-1.06c.78-.78,1.56-1.57,2.34-2.34a1.5,1.5,0,0,1,2.54.69,1.45,1.45,0,0,1-.42,1.45c-1.86,1.86-3.72,3.71-5.57,5.57-.14.13-.27.26-.4.4a1.51,1.51,0,0,1-2.17,0c-2-2-4-4-6-6A1.5,1.5,0,0,1,13.6,15a1.43,1.43,0,0,1,1.46.41l3.24,3.23a1.24,1.24,0,0,1,.14.18l.06,0V7.43a1.5,1.5,0,0,1,2.95-.37,1.51,1.51,0,0,1,.05.42V18.77Z"/></g></g></svg>