<svg xmlns="http://www.w3.org/2000/svg" viewBox="0 0 29.16 40"><defs><style>.cls-1{fill:#5a5a5a;}</style></defs><title>employee-icon</title><g id="Layer_2" data-name="Layer 2"><g id="Layer_1-2" data-name="Layer 1"><path class="cls-1" d="M11,3.58V0H18.2V3.58h6.64c2.9,0,4.31,1.39,4.31,4.26q0,13.92,0,27.84c0,2.87-1.42,4.31-4.28,4.31H4.24C1.45,40,0,38.54,0,35.75V7.8C0,5,1.43,3.59,4.25,3.58ZM27.3,21.93V7.74c0-1.82-.53-2.35-2.33-2.35H4.22c-1.83,0-2.36.52-2.36,2.31V35.87c0,1.77.5,2.27,2.28,2.27H25c1.82,0,2.31-.5,2.31-2.35ZM12.82,3.52h3.49V1.87H12.82Z"/><path class="cls-1" d="M17.53,20.64c.55.13,1.12.23,1.66.41a30.25,30.25,0,0,1,3.07,1.09c2.19,1,3.59,2.54,3.26,5.2a30.57,30.57,0,0,0,0,3.46H3.74a37,37,0,0,1,.08-5.47A3.72,3.72,0,0,1,5.59,23a37.67,37.67,0,0,1,5-2,8.36,8.36,0,0,1,1.15-.23l.33-.44a4.29,4.29,0,0,1-1-.55,6.63,6.63,0,0,1-.5-8.84,4.9,4.9,0,0,1,5-1.84A5.72,5.72,0,0,1,20,13.68a6,6,0,0,1-1.72,6,2.35,2.35,0,0,1-.41.36,3.75,3.75,0,0,1-.49.25ZM5.48,29H23.85a18.43,18.43,0,0,1,0-2.11,2.63,2.63,0,0,0-1.61-2.82,10.19,10.19,0,0,0-1.88-.84c-1.46-.39-3-.69-4.49-1-.05-.23-.12-.5-.17-.79a2.24,2.24,0,0,1,.89-2.64,4.71,4.71,0,0,0,.27-6.89,3.13,3.13,0,0,0-4.5-.11,4.58,4.58,0,0,0,.32,7,2.06,2.06,0,0,1,.94,2.53c-.08.35-.15.69-.23,1a10,10,0,0,0-1.35.23,50.46,50.46,0,0,0-5.13,1.69A2.91,2.91,0,0,0,5.54,26,12.47,12.47,0,0,0,5.48,29Z"/><path class="cls-1" d="M3.69,34.45V32.77H25.43v1.68Z"/></g></g></svg>