<svg xmlns="http://www.w3.org/2000/svg" viewBox="0 0 32.31 22.03"><defs><style>.cls-1{fill:#fff;}</style></defs><title>forward-arrow-icon</title><g id="Layer_2" data-name="Layer 2"><g id="Layer_1-2" data-name="Layer 1"><path class="cls-1" d="M27.57,9.51C27.05,9,26.51,8.51,26,8c-1.81-1.8-3.62-3.6-5.41-5.41A2.49,2.49,0,0,1,20,1.65,1.27,1.27,0,0,1,20.6.18a1.38,1.38,0,0,1,1.7.28L26.82,5l4.86,4.87a1.39,1.39,0,0,1,0,2.31Q27,16.84,22.36,21.5a1.4,1.4,0,0,1-1.73.37A1.26,1.26,0,0,1,20,20.41a2,2,0,0,1,.52-.84c2.3-2.32,4.62-4.63,6.93-6.94a2.11,2.11,0,0,0,.18-.25H1.86c-.2,0-.4,0-.6,0a1.36,1.36,0,0,1,0-2.71c.2,0,.4,0,.6,0H27.49Z"/></g></g></svg>