<svg xmlns="http://www.w3.org/2000/svg" viewBox="0 0 27.2 40"><defs><style>.cls-1{fill:#5a5a5a;}</style></defs><title>location-icon</title><g id="Layer_2" data-name="Layer 2"><g id="Layer_1-2" data-name="Layer 1"><path class="cls-1" d="M13.61,37.52C8.76,31.29,4.12,25.22,1,18.12-2.34,10.48,3,1.51,11.24.19A13.56,13.56,0,0,1,27.05,11.52a11.52,11.52,0,0,1-.83,6.37,61.5,61.5,0,0,1-7.45,12.73C17.13,32.92,15.39,35.14,13.61,37.52Zm0-2.55c1.3-1.74,2.53-3.34,3.7-5a63.21,63.21,0,0,0,7.3-12.39A10.8,10.8,0,0,0,25,10.15,12,12,0,0,0,9.66,2.31c-6,2.06-9.85,9.1-7,15.45S9.4,29.42,13.58,35Z"/><path class="cls-1" d="M8.73,33.33c-1.46.31-2.58.52-3.69.8a6.17,6.17,0,0,0-1.63.62c-.37.22-.84.64-.84,1s.45.83.82,1a15.34,15.34,0,0,0,3.17,1,38.71,38.71,0,0,0,15.24-.25,6.44,6.44,0,0,0,1.83-.65c.41-.24.91-.69.95-1.1s-.52-.83-.93-1a27,27,0,0,0-3.09-1c-.59-.15-1.2-.21-1.82-.32.58-1.44.72-1.58,2.11-1.17a20.88,20.88,0,0,1,3.89,1.46c2.17,1.15,2.14,2.8,0,4.05a15.51,15.51,0,0,1-6,1.83A32.68,32.68,0,0,1,5.3,38.94a12.9,12.9,0,0,1-3.44-1.57c-1.41-.91-1.42-2.15-.12-3.19a10.91,10.91,0,0,1,5.5-2C7.63,32.07,8.12,32.81,8.73,33.33Z"/><path class="cls-1" d="M13.6,6a7.65,7.65,0,1,1-7.68,7.69A7.64,7.64,0,0,1,13.6,6Zm0,1.67a6,6,0,1,0,6,5.94A6,6,0,0,0,13.55,7.62Z"/></g></g></svg>