<svg xmlns="http://www.w3.org/2000/svg" viewBox="0 0 60 60"><defs><style>.cls-1{fill:#dc5000;}.cls-2{fill:#fff;}</style></defs><title>logout-icon</title><g id="Layer_2" data-name="Layer 2"><g id="Layer_1-2" data-name="Layer 1"><rect class="cls-1" width="60" height="60" rx="7.81"/><path class="cls-2" d="M47.36,31.9a17.32,17.32,0,0,1-6.21,12.82A16.81,16.81,0,0,1,21,46.3a17.31,17.31,0,0,1-7.76-10.63,18,18,0,0,1,6.41-18.79,2.4,2.4,0,0,1,2.8-.17,2.52,2.52,0,0,1,1.11,2.75,2.59,2.59,0,0,1-1,1.52,12.14,12.14,0,0,0-3.35,3.85,12.62,12.62,0,0,0-1.59,6.55,12.47,12.47,0,0,0,4,9.11,11.75,11.75,0,0,0,9.58,3.32,12.06,12.06,0,0,0,9-5.42,12.83,12.83,0,0,0-.06-14.69,12.59,12.59,0,0,0-3-3,2.56,2.56,0,0,1-.34-3.81,2.46,2.46,0,0,1,3.3-.22,18,18,0,0,1,5.09,5.85A18.71,18.71,0,0,1,47.36,31.9Z"/><path class="cls-2" d="M32.48,21.18v7.43A2.47,2.47,0,0,1,31.11,31a2.44,2.44,0,0,1-3.53-1.9c-.07-.8,0-1.62,0-2.43V13.78a2.6,2.6,0,0,1,1.18-2.33A2.45,2.45,0,0,1,32.4,13a3.35,3.35,0,0,1,.07.71q0,3.73,0,7.47Z"/></g></g></svg>