<svg xmlns="http://www.w3.org/2000/svg" viewBox="0 0 497.76 66.5"><defs><style>.cls-1{fill:#002d3a;}.cls-2{fill:none;stroke:#002d3a;stroke-linecap:round;stroke-linejoin:round;stroke-width:3px;}</style></defs><title>modal-head</title><g id="Layer_2" data-name="Layer 2"><g id="Layer_1-2" data-name="Layer 1"><path class="cls-1" d="M64.55,46.08a15.49,15.49,0,0,1-6.19-1.25,16.15,16.15,0,0,1-5.06-3.38,15.73,15.73,0,0,1-4.66-11.23A15.49,15.49,0,0,1,49.89,24,15.94,15.94,0,0,1,53.3,19a16.46,16.46,0,0,1,5.06-3.43,15.17,15.17,0,0,1,6.19-1.27A15.4,15.4,0,0,1,70.7,15.5a17,17,0,0,1,5.06,3.33A15.88,15.88,0,0,1,79.2,23.7a14.09,14.09,0,0,1,1.27,5.87,3.15,3.15,0,0,1-.79,2.31,3,3,0,0,1-2.2.78H55.13l.27.93a7.88,7.88,0,0,0,1,2.1A9.16,9.16,0,0,0,58.57,38a10.93,10.93,0,0,0,2.84,1.52,9.44,9.44,0,0,0,3.14.55,9.62,9.62,0,0,0,3.76-.72,9.46,9.46,0,0,0,3-2,4.6,4.6,0,0,1,1.16-.77,3,3,0,0,1,1.21-.29,2.6,2.6,0,0,1,2,.89,3,3,0,0,1,.81,2.1,4.49,4.49,0,0,1-.16,1.22,2.3,2.3,0,0,1-.62,1,13.26,13.26,0,0,1-5,3.46A16.91,16.91,0,0,1,64.55,46.08Zm0-25.8a9.2,9.2,0,0,0-3.14.56,9.36,9.36,0,0,0-2.79,1.54,10.22,10.22,0,0,0-2.13,2.32,8.24,8.24,0,0,0-1,2.07l-.31.95H73.92l-.27-.93a7.38,7.38,0,0,0-1-2.09,9.9,9.9,0,0,0-5-3.86A9.22,9.22,0,0,0,64.55,20.28Z"/><path class="cls-1" d="M88.38,46.08a3,3,0,0,1-2.17-.83A3,3,0,0,1,85.33,43V4.55a2.89,2.89,0,0,1,.88-2.22,3,3,0,0,1,2.17-.83,3.08,3.08,0,0,1,2.28.83,3,3,0,0,1,.83,2.22V43a2.87,2.87,0,0,1-3.11,3.11Z"/><path class="cls-1" d="M100.24,46.08a3,3,0,0,1-2.17-.83A3,3,0,0,1,97.19,43V4.55a2.89,2.89,0,0,1,.88-2.22,3,3,0,0,1,2.17-.83,3.1,3.1,0,0,1,2.28.83,3,3,0,0,1,.83,2.22V43a2.87,2.87,0,0,1-3.11,3.11Z"/><path class="cls-1" d="M139.51,23.87a16.12,16.12,0,0,0-8.64-8.37,15.62,15.62,0,0,0-6-1.19,12.94,12.94,0,0,0-5.4,1,10.32,10.32,0,0,0-3.79,2.84V4.58a3.05,3.05,0,0,0-.83-2.24,3.49,3.49,0,0,0-4.54,0,2.9,2.9,0,0,0-.89,2.24V43a2.93,2.93,0,0,0,.88,2.28,3,3,0,0,0,2.17.83A2.87,2.87,0,0,0,115.61,43V42a9.67,9.67,0,0,0,1.62,1.45,12.73,12.73,0,0,0,2.24,1.33,15,15,0,0,0,2.59.92,11.69,11.69,0,0,0,2.84.35,15.62,15.62,0,0,0,6-1.19,16.22,16.22,0,0,0,5.1-3.3,15.84,15.84,0,0,0,3.54-5,15.82,15.82,0,0,0,0-12.7ZM133.81,34a9.62,9.62,0,0,1-8.91,5.86,8.72,8.72,0,0,1-3.62-.75,9.31,9.31,0,0,1-2.92-2.06,9.19,9.19,0,0,1-1.94-3,10,10,0,0,1-.71-3.75,10.16,10.16,0,0,1,.71-3.78,9.46,9.46,0,0,1,1.94-3.11,9.06,9.06,0,0,1,2.92-2.08,8.73,8.73,0,0,1,3.62-.76,9.67,9.67,0,0,1,3.78.76,9.31,9.31,0,0,1,3.08,2.08,9.9,9.9,0,0,1,2.05,3.11,9.46,9.46,0,0,1,.76,3.78A9.28,9.28,0,0,1,133.81,34Z"/><path class="cls-1" d="M177.66,46.76V17.38a3,3,0,0,0-.83-2.22,3.1,3.1,0,0,0-2.28-.83,3,3,0,0,0-2.17.83,2.89,2.89,0,0,0-.88,2.22v.35h0V30.29a9.59,9.59,0,0,1-.82,3.77,9.42,9.42,0,0,1-2.09,3,9.85,9.85,0,0,1-3.08,2.06,9.83,9.83,0,0,1-7.58,0,9.59,9.59,0,0,1-5.11-5.11,9.43,9.43,0,0,1-.83-3.77V17.73h0v-.35a3,3,0,0,0-.82-2.22,3.1,3.1,0,0,0-2.28-.83,3,3,0,0,0-2.17.83,2.85,2.85,0,0,0-.88,2.22v13c0,.08,0,.14,0,.21a15.4,15.4,0,0,0,1.23,5.86,15.71,15.71,0,0,0,3.41,5,16.18,16.18,0,0,0,5.06,3.39,16.1,16.1,0,0,0,12.39,0,17,17,0,0,0,3.56-2.09v3.94h0V50.5c0,5.5-4.36,9.49-10,9.82a3.22,3.22,0,0,0-3.05,3.22,3,3,0,0,0,3.05,3,15.8,15.8,0,0,0,16.15-16V46.76Z"/><path class="cls-1" d="M13.38,46.09a3.09,3.09,0,0,1-2.9-2l-5.18-13a3.12,3.12,0,0,1,1.75-4,3.05,3.05,0,0,1,1.15-.22,3.09,3.09,0,0,1,2.9,2l5.18,13a3.14,3.14,0,0,1-1.75,4.06A3.26,3.26,0,0,1,13.38,46.09Z"/><path class="cls-1" d="M33.63,46.09a3.11,3.11,0,0,1-2.9-2l-5.18-13a3.12,3.12,0,0,1,1.75-4,3.05,3.05,0,0,1,1.15-.22,3.11,3.11,0,0,1,2.91,2l5.17,13a3.12,3.12,0,0,1-1.75,4.06A3.22,3.22,0,0,1,33.63,46.09Z"/><path class="cls-1" d="M33.63,46.09a3.26,3.26,0,0,1-1.15-.22,3.12,3.12,0,0,1-1.75-4.06l10-25.59a3.11,3.11,0,0,1,2.9-2,3,3,0,0,1,1.15.22,3.12,3.12,0,0,1,1.75,4.05l-10,25.6A3.1,3.1,0,0,1,33.63,46.09Z"/><path class="cls-1" d="M28.88,22.54l-2.41-6.05h0a3.12,3.12,0,0,0-1.83-2,3.05,3.05,0,0,0-1.15-.22,3.1,3.1,0,0,0-2.9,2L10.48,41.81a3.13,3.13,0,0,0,1.74,4.06,3.32,3.32,0,0,0,1.16.22,3.12,3.12,0,0,0,2.9-2l7.21-18.25h0s2.52-4.21,6.74.05Z"/><circle class="cls-1" cx="3.12" cy="17.38" r="3.12"/><path class="cls-1" d="M.23,18.56s2.63,5.67,5.26,4.64c2.47-1,.53-7,.53-7Z"/><circle class="cls-1" cx="3.12" cy="17.38" r="3.12"/><path class="cls-1" d="M210.7,46.08h-5.26a22.29,22.29,0,1,1,22.29-22.29v5.27a2.92,2.92,0,0,1-5.84,0V23.79a16.46,16.46,0,1,0-16.45,16.45h5.26a2.92,2.92,0,1,1,0,5.84Z"/><path class="cls-1" d="M226.87,41.1,214.74,29a10.65,10.65,0,1,0-4.12,4.13l12.13,12.12a2.91,2.91,0,0,0,4.12-4.12ZM200.61,23.79a4.83,4.83,0,1,1,4.83,4.82A4.83,4.83,0,0,1,200.61,23.79Z"/><path class="cls-1" d="M254.49,31.76A15.23,15.23,0,0,0,252.05,1.5h-9.54a9.12,9.12,0,0,0-9.11,9.11V29.06a2.92,2.92,0,0,0,5.83,0V10.61a3.27,3.27,0,0,1,3.28-3.27h9.54a9.4,9.4,0,0,1,0,18.8h-4.18A2.92,2.92,0,0,0,245,29.06s0,.06,0,.1a2.9,2.9,0,0,0,.85,2.17l13.9,13.89a2.91,2.91,0,0,0,4.12-4.12Z"/><circle class="cls-1" cx="236.31" cy="42.4" r="3.68"/><path class="cls-1" d="M334,16.82h-8.36V12.21h6.35a1.32,1.32,0,0,0,1-.42,1.4,1.4,0,0,0,0-2,1.32,1.32,0,0,0-1-.42h-6.35V4.76h8a1.4,1.4,0,0,0,1.39-1.41,1.4,1.4,0,0,0-.41-1,1.38,1.38,0,0,0-1-.41H324.2a1.4,1.4,0,0,0-1.42,1.42V18.24a1.42,1.42,0,0,0,1.42,1.42H334a1.32,1.32,0,0,0,1-.42,1.45,1.45,0,0,0,0-2A1.32,1.32,0,0,0,334,16.82Z"/><path class="cls-1" d="M355.84,1.93h-.18a1.67,1.67,0,0,0-.93.29,1.58,1.58,0,0,0-.6.77l-4.84,12.64L344.46,3.16a1.83,1.83,0,0,0-.71-.89,1.88,1.88,0,0,0-1.1-.34h-.25a1.38,1.38,0,0,0-1,.42,1.45,1.45,0,0,0-.41,1V18.24a1.32,1.32,0,0,0,.42,1,1.36,1.36,0,0,0,1,.4,1.37,1.37,0,0,0,1-.4,1.35,1.35,0,0,0,.41-1v-9l3.49,9a2,2,0,0,0,.8,1,2.21,2.21,0,0,0,1.23.36,2.18,2.18,0,0,0,2-1.36l3.41-8.9v8.87a1.32,1.32,0,0,0,.42,1,1.36,1.36,0,0,0,1,.4,1.37,1.37,0,0,0,1-.4,1.35,1.35,0,0,0,.41-1V3.62a1.63,1.63,0,0,0-.5-1.19A1.65,1.65,0,0,0,355.84,1.93Z"/><path class="cls-1" d="M375.24,16.82h-8.36V12.21h6.36a1.35,1.35,0,0,0,1-.42,1.42,1.42,0,0,0,0-2,1.35,1.35,0,0,0-1-.42h-6.36V4.76h8a1.34,1.34,0,0,0,1-.41,1.36,1.36,0,0,0,.42-1,1.37,1.37,0,0,0-.42-1,1.34,1.34,0,0,0-1-.41h-9.35a1.42,1.42,0,0,0-1.42,1.42V18.24a1.43,1.43,0,0,0,1.42,1.42h9.75a1.33,1.33,0,0,0,1-.42,1.45,1.45,0,0,0,0-2A1.34,1.34,0,0,0,375.24,16.82Z"/><path class="cls-1" d="M390.57,1.85H384a1.71,1.71,0,0,0-1.72,1.69V18.19a1.29,1.29,0,0,0,.4,1,1.32,1.32,0,0,0,1,.41h.1a1.28,1.28,0,0,0,1-.41,1.32,1.32,0,0,0,.39-1V12.94h3.67l4.29,5.85a1.84,1.84,0,0,0,1.53.77,1.32,1.32,0,0,0,1.05-2.1l-3.51-4.76a5.49,5.49,0,0,0,2.8-1.91,5.36,5.36,0,0,0,1.15-3.36v-.1a5.28,5.28,0,0,0-1.61-3.87A5.29,5.29,0,0,0,390.57,1.85Zm2.69,5.48v.1a2.66,2.66,0,0,1-2.67,2.67h-5.5V5.83a1.12,1.12,0,0,1,.34-.83,1.13,1.13,0,0,1,.82-.34h4.34a2.68,2.68,0,0,1,2.67,2.67Z"/><path class="cls-1" d="M417.69,9.27h-6a1.42,1.42,0,0,0-1.42,1.42,1.4,1.4,0,0,0,1.42,1.42h4.73a5.89,5.89,0,0,1-2.06,3.4,5.85,5.85,0,0,1-3.88,1.41h-.22a5.88,5.88,0,0,1-4.31-1.79,5.91,5.91,0,0,1-1.8-4.31v-.41a5.85,5.85,0,0,1,1.8-4.29,5.9,5.9,0,0,1,4.31-1.78h.22A6.1,6.1,0,0,1,413,4.9a6,6,0,0,1,2,1.56A1.41,1.41,0,0,0,416,7a1.52,1.52,0,0,0,1-.15,1.37,1.37,0,0,0,.69-1,1.42,1.42,0,0,0-.34-1.2,8.78,8.78,0,0,0-3-2.28,8.48,8.48,0,0,0-3.72-.84h-.5a8.63,8.63,0,0,0-4.4,1.18,8.79,8.79,0,0,0-3.19,3.19,8.63,8.63,0,0,0-1.18,4.39V11a8.6,8.6,0,0,0,1.18,4.39,8.79,8.79,0,0,0,3.19,3.19,8.63,8.63,0,0,0,4.4,1.18h.5A8.57,8.57,0,0,0,415,18.55a8.82,8.82,0,0,0,3.2-3.19A8.59,8.59,0,0,0,419.36,11a1.62,1.62,0,0,0-.49-1.19A1.57,1.57,0,0,0,417.69,9.27Z"/><path class="cls-1" d="M436.25,16.82h-8.36V12.21h6.35a1.32,1.32,0,0,0,1-.42,1.4,1.4,0,0,0,0-2,1.32,1.32,0,0,0-1-.42h-6.35V4.76h8a1.4,1.4,0,0,0,1.39-1.41,1.4,1.4,0,0,0-.41-1,1.38,1.38,0,0,0-1-.41h-9.36a1.4,1.4,0,0,0-1.41,1.42V18.24a1.42,1.42,0,0,0,1.41,1.42h9.76a1.32,1.32,0,0,0,1-.42,1.45,1.45,0,0,0,0-2A1.32,1.32,0,0,0,436.25,16.82Z"/><path class="cls-1" d="M456.19,1.93a1.4,1.4,0,0,0-1.4,1.42V14.22L446.63,2.77A1.94,1.94,0,0,0,445,1.93h-.2a1.41,1.41,0,0,0-1,.44,1.44,1.44,0,0,0-.44,1V18.21a1.41,1.41,0,0,0,.41,1,1.41,1.41,0,0,0,2,0,1.41,1.41,0,0,0,.41-1V7.13l8.39,11.66a1.93,1.93,0,0,0,1.65.84,1.47,1.47,0,0,0,1.47-1.47V3.35a1.4,1.4,0,0,0-1.41-1.42Z"/><path class="cls-1" d="M468.09,6.12a5.9,5.9,0,0,1,4.29-1.78h.25a6.13,6.13,0,0,1,2.57.56,5.91,5.91,0,0,1,2.05,1.59,1.54,1.54,0,0,0,.87.5,1.27,1.27,0,0,0,1-.16,1.39,1.39,0,0,0,.7-1,1.43,1.43,0,0,0-.35-1.2,8.65,8.65,0,0,0-3-2.28,8.48,8.48,0,0,0-3.72-.84h-.51a8.57,8.57,0,0,0-4.39,1.18,8.79,8.79,0,0,0-4.37,7.61V11a8.6,8.6,0,0,0,1.18,4.39,8.71,8.71,0,0,0,3.19,3.19,8.57,8.57,0,0,0,4.39,1.18h.51a8.7,8.7,0,0,0,6.58-3,1.47,1.47,0,0,0,.36-1.2,1.32,1.32,0,0,0-.71-1,1.35,1.35,0,0,0-1-.18,1.39,1.39,0,0,0-.85.5,6.12,6.12,0,0,1-2,1.52,6,6,0,0,1-2.52.55h-.25a6.09,6.09,0,0,1-6.08-6.08v-.43A5.84,5.84,0,0,1,468.09,6.12Z"/><path class="cls-1" d="M496.3,1.93h-.05a1.13,1.13,0,0,0-1,.51L491,8.58l-4.26-6.16a1.14,1.14,0,0,0-1-.49h0a1.33,1.33,0,0,0-1.28.76,1.31,1.31,0,0,0,.1,1.48l5.05,7.1v7.07a1.24,1.24,0,0,0,.38.91,1.19,1.19,0,0,0,.89.38h.25a1.2,1.2,0,0,0,.91-.38,1.24,1.24,0,0,0,.38-.91V11.25l5-7.08a1.33,1.33,0,0,0,.1-1.48A1.34,1.34,0,0,0,496.3,1.93Z"/><path class="cls-1" d="M332.36,29.86a2,2,0,0,0-.78-1,2.05,2.05,0,0,0-1.2-.37,2.08,2.08,0,0,0-1.21.37,2.25,2.25,0,0,0-.8,1l-5.5,14.36a1.33,1.33,0,0,0,.16,1.26,1.26,1.26,0,0,0,1.11.6,1.47,1.47,0,0,0,.85-.26,1.44,1.44,0,0,0,.53-.69l1-2.68h7.69l1,2.68a1.4,1.4,0,0,0,.54.69,1.46,1.46,0,0,0,.83.26,1.26,1.26,0,0,0,1.12-.6,1.33,1.33,0,0,0,.16-1.26Zm.78,9.8h-5.53l2.75-7.2Z"/><path class="cls-1" d="M352.81,36.4h0l-5.69-1.61a6,6,0,0,1-.56-.22,2.12,2.12,0,0,1-.54-.36,1.43,1.43,0,0,1-.43-1.44,2.21,2.21,0,0,1,1-1.46,3.86,3.86,0,0,1,2.19-.56,3.8,3.8,0,0,1,3.68,1.9,1.42,1.42,0,0,0,.62.64,1.29,1.29,0,0,0,.86.15l.15,0a1.38,1.38,0,0,0,1.06-.75,1.3,1.3,0,0,0,.05-1.25,6.12,6.12,0,0,0-2.4-2.5A7.26,7.26,0,0,0,349,28a6.84,6.84,0,0,0-4.33,1.35,4.62,4.62,0,0,0-1.9,3.43,4.33,4.33,0,0,0,1,3.34,5.89,5.89,0,0,0,3,1.65c.57.14,1.47.38,2.59.69l1.93.51c1.86.48,2.63,1.27,2.38,2.41a2.07,2.07,0,0,1-.66,1.09,2.45,2.45,0,0,1-1.21.58c-3.26.56-5.31-.13-6.1-2.07a1.32,1.32,0,0,0-.64-.68,1.47,1.47,0,0,0-.94-.16l-.06,0a1.36,1.36,0,0,0-1,.66,1.32,1.32,0,0,0-.14,1.17,5.73,5.73,0,0,0,2.33,2.9A6.92,6.92,0,0,0,349.2,46h1.34a6.15,6.15,0,0,0,4.11-1.46,5.09,5.09,0,0,0,1.87-3.62C356.66,38.75,355.41,37.23,352.81,36.4Z"/><path class="cls-1" d="M371.74,36.4h0L366,34.79l-.56-.22a2.3,2.3,0,0,1-.54-.36,1.48,1.48,0,0,1-.4-.6,1.67,1.67,0,0,1,0-.84,2.21,2.21,0,0,1,1-1.46,3.86,3.86,0,0,1,2.19-.56,3.79,3.79,0,0,1,3.68,1.9,1.47,1.47,0,0,0,.62.64,1.29,1.29,0,0,0,.86.15l.15,0a1.36,1.36,0,0,0,1.06-.75,1.3,1.3,0,0,0,.05-1.25,6.16,6.16,0,0,0-2.39-2.5A7.29,7.29,0,0,0,368,28a6.86,6.86,0,0,0-4.33,1.35,4.62,4.62,0,0,0-1.9,3.43,4.37,4.37,0,0,0,1,3.34,5.89,5.89,0,0,0,3,1.65c.57.14,1.47.38,2.6.69l1.93.51c1.85.48,2.62,1.27,2.37,2.41a2.07,2.07,0,0,1-.66,1.09,2.45,2.45,0,0,1-1.21.58c-3.26.56-5.31-.13-6.1-2.07a1.34,1.34,0,0,0-.63-.68,1.48,1.48,0,0,0-.94-.16l-.07,0a1.39,1.39,0,0,0-1,.66,1.32,1.32,0,0,0-.14,1.17,5.78,5.78,0,0,0,2.33,2.9A6.92,6.92,0,0,0,368.13,46h1.34a6.14,6.14,0,0,0,4.11-1.46,5.06,5.06,0,0,0,1.88-3.62C375.59,38.75,374.34,37.23,371.74,36.4Z"/><path class="cls-1" d="M382.59,28.41a1.36,1.36,0,0,0-1,.41,1.39,1.39,0,0,0-.41,1V44.6a1.31,1.31,0,0,0,.41,1,1.41,1.41,0,0,0,2,0h0a1.33,1.33,0,0,0,.41-1V29.82a1.4,1.4,0,0,0-1.4-1.41Z"/><path class="cls-1" d="M400,36.4h0l-5.69-1.61c-.2-.07-.39-.14-.57-.22a2.26,2.26,0,0,1-.53-.36,1.38,1.38,0,0,1-.4-.6,1.47,1.47,0,0,1,0-.84,2.21,2.21,0,0,1,1-1.46,3.84,3.84,0,0,1,2.19-.56,3.77,3.77,0,0,1,3.67,1.9,1.47,1.47,0,0,0,.62.64,1.33,1.33,0,0,0,.87.15l.15,0a1.38,1.38,0,0,0,1.06-.75,1.3,1.3,0,0,0,0-1.25,6.19,6.19,0,0,0-2.4-2.5,7.28,7.28,0,0,0-3.75-1,6.84,6.84,0,0,0-4.33,1.35,4.62,4.62,0,0,0-1.9,3.43,4.33,4.33,0,0,0,1,3.34,5.89,5.89,0,0,0,3,1.65c.57.14,1.47.38,2.59.69l1.93.51c1.85.48,2.63,1.27,2.38,2.41a2.07,2.07,0,0,1-.66,1.09A2.45,2.45,0,0,1,399,43c-3.26.56-5.31-.13-6.1-2.07a1.36,1.36,0,0,0-.64-.68,1.47,1.47,0,0,0-.94-.16l-.06,0a1.39,1.39,0,0,0-1,.66,1.31,1.31,0,0,0-.13,1.17,5.76,5.76,0,0,0,2.32,2.9A6.94,6.94,0,0,0,396.36,46h1.35a6.15,6.15,0,0,0,4.11-1.46,5.09,5.09,0,0,0,1.87-3.62C403.83,38.75,402.58,37.23,400,36.4Z"/><path class="cls-1" d="M419.45,28.41H409a1.37,1.37,0,0,0-1,.41,1.39,1.39,0,0,0-.41,1,1.31,1.31,0,0,0,.41,1,1.38,1.38,0,0,0,1,.4h3.84V44.6a1.33,1.33,0,0,0,.41,1,1.41,1.41,0,0,0,2,0,1.33,1.33,0,0,0,.41-1V31.2h3.84a1.38,1.38,0,0,0,1-.4,1.31,1.31,0,0,0,.41-1,1.4,1.4,0,0,0-1.41-1.41Z"/><path class="cls-1" d="M432.35,29.86a2.14,2.14,0,0,0-.78-1,2.08,2.08,0,0,0-1.21-.37,2.1,2.1,0,0,0-1.21.37,2.25,2.25,0,0,0-.8,1l-5.5,14.36a1.35,1.35,0,0,0,.16,1.26,1.28,1.28,0,0,0,1.12.6,1.5,1.5,0,0,0,.85-.26,1.57,1.57,0,0,0,.53-.69l1-2.68h7.69l1,2.68a1.47,1.47,0,0,0,1.38.95,1.28,1.28,0,0,0,1.12-.6,1.38,1.38,0,0,0,.16-1.26Zm.78,9.8h-5.54l2.76-7.2Z"/><path class="cls-1" d="M456.13,28.41a1.36,1.36,0,0,0-1,.41,1.39,1.39,0,0,0-.41,1V40.61l-8.1-11.36a1.91,1.91,0,0,0-1.64-.84h-.2a1.5,1.5,0,0,0-1.48,1.49V44.57a1.39,1.39,0,0,0,.41,1,1.37,1.37,0,0,0,1,.41,1.34,1.34,0,0,0,1-.41,1.39,1.39,0,0,0,.41-1v-11l8.32,11.57a1.93,1.93,0,0,0,1.64.83,1.43,1.43,0,0,0,1-.42,1.42,1.42,0,0,0,.42-1V29.82a1.4,1.4,0,0,0-1.4-1.41Z"/><path class="cls-1" d="M467.94,32.57a5.86,5.86,0,0,1,4.25-1.77h.25A6,6,0,0,1,477,32.94a1.51,1.51,0,0,0,.86.5,1.27,1.27,0,0,0,1-.16,1.44,1.44,0,0,0,.34-2.2,8.74,8.74,0,0,0-2.94-2.26,8.48,8.48,0,0,0-3.69-.83h-.5a8.46,8.46,0,0,0-4.36,1.17,8.73,8.73,0,0,0-4.34,7.55v.67a8.55,8.55,0,0,0,1.17,4.36,8.68,8.68,0,0,0,3.17,3.17,8.46,8.46,0,0,0,4.36,1.17h.5a8.6,8.6,0,0,0,6.53-3,1.46,1.46,0,0,0,.36-1.19,1.34,1.34,0,0,0-.7-1,1.4,1.4,0,0,0-1-.17,1.45,1.45,0,0,0-.85.49,6,6,0,0,1-2,1.51,5.92,5.92,0,0,1-2.5.55h-.25a6,6,0,0,1-6-6v-.42A5.82,5.82,0,0,1,467.94,32.57Z"/><path class="cls-1" d="M497.36,43.6a1.34,1.34,0,0,0-1-.41h-8.3V38.62h6.31a1.33,1.33,0,0,0,1-.42,1.35,1.35,0,0,0,.41-1,1.39,1.39,0,0,0-.41-1,1.36,1.36,0,0,0-1-.41h-6.31V31.23H496a1.36,1.36,0,0,0,1-.41,1.42,1.42,0,0,0,0-2,1.36,1.36,0,0,0-1-.41H486.7a1.37,1.37,0,0,0-1,.41,1.39,1.39,0,0,0-.41,1V44.6a1.35,1.35,0,0,0,.41,1,1.34,1.34,0,0,0,1,.41h9.68a1.31,1.31,0,0,0,1-.41,1.4,1.4,0,0,0,.4-1A1.42,1.42,0,0,0,497.36,43.6Z"/><line class="cls-2" x1="295.48" y1="1.5" x2="295.48" y2="46.09"/></g></g></svg>