<svg xmlns="http://www.w3.org/2000/svg" viewBox="0 0 533.96 500.41"><defs><style>.cls-1{isolation:isolate;}.cls-2{fill:#ececec;}.cls-3{fill:#dcdcdc;}.cls-4{mix-blend-mode:multiply;}.cls-5{fill:#1a2e35;}.cls-6{fill:#ffce00;}.cls-7{fill:#002332;}.cls-8{fill:#375a64;}.cls-9{fill:none;}.cls-10{fill:#fff;}.cls-11{fill:#2b454e;}.cls-12{fill:#c8c8c8;}.cls-13{fill:#a8a8a8;}.cls-14{fill:#c36358;}.cls-15{opacity:0.1;}</style></defs><title>Asset 1</title><g class="cls-1"><g id="Layer_2" data-name="Layer 2"><g id="Layer_1-2" data-name="Layer 1"><path class="cls-2" d="M396.62,234.1l14.46-.28,7.13-.11c2.37-.05,4.73,0,7.09-.05l-.44.44L424.81,222l.49.5L411,222.42c-4.78,0-9.56-.11-14.34-.17l.28-.27c0,2-.09,4-.14,6Zm0,0-.14-6c0-2-.11-4.07-.13-6.12v-.27h.27c4.78-.05,9.56-.16,14.34-.17l14.34-.06h.51v.5l-.05,12.12v.45h-.45c-2.41,0-4.83,0-7.24-.06l-7.21-.11Z"/><path class="cls-2" d="M412.62,249.38l14.46-.27,7.13-.12c2.37,0,4.73,0,7.09-.05l-.44.44-.06-12.12.5.5L427,237.7c-4.78,0-9.56-.11-14.34-.16l.28-.28c0,2-.09,4-.14,6Zm0,0-.14-6c0-2-.11-4.06-.13-6.12V237h.27c4.78-.05,9.56-.16,14.34-.16l14.34-.07h.51v.5l-.05,12.12v.45h-.45c-2.41,0-4.83,0-7.24-.06l-7.21-.11Z"/><path class="cls-2" d="M.28,201l14.45-.28,7.13-.11c2.37-.05,4.73,0,7.1-.06l-.45.45-.05-12.12.5.5-14.34-.07c-4.78,0-9.56-.11-14.34-.16l.27-.27c0,2-.09,4-.13,6Zm0,0-.15-6c0-2-.11-4.07-.13-6.12v-.27H.28c4.78-.06,9.56-.16,14.34-.17L29,188.33h.5v.5L29.4,201v.45H29c-2.42,0-4.84,0-7.25,0l-7.21-.11Z"/><path class="cls-2" d="M16.28,216.23,30.73,216l7.13-.11c2.37-.05,4.73,0,7.1-.05l-.45.44,0-12.12.5.5-14.34-.06c-4.78,0-9.56-.11-14.34-.17l.27-.27c0,2-.09,4-.13,6Zm0,0-.15-6c0-2-.11-4.07-.13-6.12v-.27h.28c4.78-.05,9.56-.16,14.34-.17L45,203.61h.5v.5l-.06,12.12v.45H45c-2.42,0-4.84,0-7.25-.06l-7.21-.11Z"/><path class="cls-2" d="M32.21,201l14.46-.28,7.13-.11c2.37-.05,4.73,0,7.09-.06l-.44.45-.06-12.12.5.5-14.34-.07c-4.78,0-9.56-.11-14.34-.16l.27-.27c0,2-.08,4-.13,6Zm0,0-.14-6c0-2-.11-4.07-.13-6.12v-.27h.27c4.78-.06,9.56-.16,14.34-.17l14.34-.06h.51v.5l0,12.12v.45h-.45c-2.41,0-4.83,0-7.24,0l-7.21-.11Z"/><path class="cls-2" d="M27.29,294.36l14.46-.28,7.12-.11c2.38-.05,4.74,0,7.1-.06l-.45.45-.05-12.12.5.5-14.34-.07c-4.78,0-9.56-.11-14.34-.16l.27-.27c0,2-.08,4-.13,6Zm0,0-.14-6c0-2-.12-4.07-.13-6.12V282h.28c4.78,0,9.56-.16,14.34-.16L56,281.74h.5v.51l0,12.12v.45H56c-2.41,0-4.84,0-7.24-.05l-7.22-.11Z"/><path class="cls-2" d="M49.63,53.07l14.46-.28,7.13-.11c2.37,0,4.73,0,7.09-.06l-.44.45L77.81,41l.5.5L64,41.39c-4.78,0-9.56-.12-14.34-.17L49.9,41c0,2-.08,4-.13,6Zm0,0-.14-6c-.05-2-.11-4.07-.13-6.12v-.27h.28c4.78,0,9.56-.16,14.34-.17l14.34-.06h.5V41l0,12.12v.45h-.45c-2.41,0-4.83,0-7.24-.06l-7.22-.11Z"/><path class="cls-2" d="M33.63,68.35l14.46-.28L55.22,68c2.37,0,4.73,0,7.09,0l-.44.44-.06-12.12.5.5L48,56.67c-4.78,0-9.56-.11-14.34-.16l.27-.28c0,2-.08,4-.13,6Zm0,0-.14-6c-.05-2-.11-4.06-.13-6.12V56h.28c4.78-.05,9.56-.16,14.34-.16l14.34-.07h.5v.5l-.05,12.12v.45h-.45c-2.41,0-4.83,0-7.24-.06l-7.21-.11Z"/><path class="cls-2" d="M445.25,86.31,459.7,86l7.13-.11c2.37,0,4.73,0,7.1-.06l-.45.45-.05-12.12.5.5-14.34-.06c-4.78,0-9.56-.12-14.34-.17l.27-.27c0,2-.09,4-.13,6Zm0,0-.15-6c0-2-.11-4.07-.13-6.12v-.27h.28c4.78,0,9.56-.16,14.34-.17l14.34-.06h.5v.5l-.06,12.12v.45h-.44c-2.42,0-4.84,0-7.25-.06l-7.21-.11Z"/><path class="cls-3" d="M65.2,253.72a2.72,2.72,0,0,1,2.82,0c.23.15.48.28.72.42l.75.37a2.69,2.69,0,0,1,1.57,2.34l.11,3.47L82.48,260l-.11-3.47a2.7,2.7,0,0,1,1.42-2.44,16.23,16.23,0,0,0,1.43-.89A2.69,2.69,0,0,1,88,253l3,1.64,5.35-10L93.38,243A2.68,2.68,0,0,1,92,240.6a13.47,13.47,0,0,0,0-1.68,2.67,2.67,0,0,1,1.25-2.53l2.94-1.83-6-9.62-3,1.84a2.68,2.68,0,0,1-2.81,0c-.24-.14-.48-.28-.73-.41l-.74-.38a2.71,2.71,0,0,1-1.58-2.34l-.1-3.47-11.31.35L70,224a2.67,2.67,0,0,1-1.41,2.44,15,15,0,0,0-1.44.89,2.69,2.69,0,0,1-2.81.18l-3.05-1.63-5.35,10L59,237.45a2.7,2.7,0,0,1,1.41,2.45,13.63,13.63,0,0,0,0,1.69,2.68,2.68,0,0,1-1.25,2.53l-2.94,1.82,6,9.61ZM68,235.87a9.27,9.27,0,1,1,3.79,12.54A9.27,9.27,0,0,1,68,235.87Z"/><path class="cls-3" d="M380.47,111.35a1.86,1.86,0,0,1,.92,1.75c0,.19,0,.38,0,.58s0,.39,0,.59a1.87,1.87,0,0,1-.92,1.74l-2.11,1.21,4,6.87,2.11-1.22a1.91,1.91,0,0,1,2,.07,8.69,8.69,0,0,0,1,.59,1.91,1.91,0,0,1,1,1.68v2.42h7.92v-2.42a1.9,1.9,0,0,1,1.05-1.68,8.69,8.69,0,0,0,1-.59,1.89,1.89,0,0,1,2-.07l2.11,1.22,4-6.87L404.38,116a1.87,1.87,0,0,1-.91-1.74c0-.19,0-.39,0-.58s0-.39,0-.58a1.86,1.86,0,0,1,.92-1.75l2.11-1.22-4-6.86-2.1,1.21a1.91,1.91,0,0,1-2-.06,10.47,10.47,0,0,0-1-.6,1.87,1.87,0,0,1-1.05-1.67V99.72h-7.92v2.43a1.88,1.88,0,0,1-1,1.67,9.55,9.55,0,0,0-1,.6,1.91,1.91,0,0,1-2,.06l-2.1-1.21-4,6.86Zm12-4.17a6.5,6.5,0,1,1-6.49,6.5A6.5,6.5,0,0,1,392.43,107.18Z"/><path class="cls-2" d="M420.08,179a30.87,30.87,0,1,0,30.86-30.86A30.87,30.87,0,0,0,420.08,179Zm16.45,0a14.42,14.42,0,1,1,14.41,14.41A14.41,14.41,0,0,1,436.53,179Z"/><polygon class="cls-2" points="445.01 149.45 456.88 149.45 456.22 141.05 445.67 141.05 445.01 149.45"/><polygon class="cls-2" points="467.6 153.45 475.99 161.84 481.47 155.44 474 147.98 467.6 153.45"/><polygon class="cls-2" points="480.75 172.25 480.75 184.12 489.15 183.46 489.15 172.91 480.75 172.25"/><polygon class="cls-2" points="476.75 194.84 468.36 203.23 474.76 208.71 482.22 201.25 476.75 194.84"/><polygon class="cls-2" points="457.95 207.99 446.08 207.99 446.74 216.39 457.29 216.39 457.95 207.99"/><polygon class="cls-2" points="435.36 203.99 426.97 195.6 421.49 202 428.95 209.46 435.36 203.99"/><polygon class="cls-2" points="422.21 185.19 422.21 173.32 413.81 173.98 413.81 184.53 422.21 185.19"/><polygon class="cls-2" points="426.21 162.6 434.6 154.21 428.2 148.73 420.73 156.19 426.21 162.6"/><g class="cls-4"><path class="cls-3" d="M104.47,45.75a30.86,30.86,0,1,0,30.86-30.86A30.86,30.86,0,0,0,104.47,45.75Zm16.45,0a14.42,14.42,0,1,1,14.41,14.41A14.42,14.42,0,0,1,120.92,45.75Z"/><polygon class="cls-3" points="129.4 16.17 141.27 16.17 140.61 7.76 130.05 7.76 129.4 16.17"/><polygon class="cls-3" points="151.99 20.16 160.38 28.56 165.85 22.15 158.39 14.69 151.99 20.16"/><polygon class="cls-3" points="165.13 38.96 165.13 50.83 173.53 50.18 173.53 39.62 165.13 38.96"/><polygon class="cls-3" points="161.13 61.55 152.74 69.94 159.15 75.42 166.61 67.96 161.13 61.55"/><polygon class="cls-3" points="142.33 74.7 130.47 74.7 131.12 83.1 141.68 83.1 142.33 74.7"/><polygon class="cls-3" points="119.75 70.7 111.35 62.31 105.88 68.71 113.34 76.18 119.75 70.7"/><polygon class="cls-3" points="106.6 51.9 106.6 40.03 98.2 40.69 98.2 51.24 106.6 51.9"/><polygon class="cls-3" points="110.6 29.31 118.99 20.92 112.58 15.44 105.12 22.91 110.6 29.31"/></g><g class="cls-4"><ellipse class="cls-3" cx="273.76" cy="461.71" rx="260.2" ry="38.71"/></g><polygon class="cls-5" points="498.4 411.51 441.94 411.75 385.48 411.84 272.56 412.01 159.64 411.84 103.17 411.75 46.71 411.51 103.17 411.26 159.64 411.18 272.56 411.01 385.48 411.18 441.94 411.26 498.4 411.51"/><path class="cls-6" d="M446.52,288a48.85,48.85,0,0,0,1,18.77,51.43,51.43,0,0,0,2.87,8.29c1.5,3.44,3.06,6.79,2.68,10.54-.36.25.88.21.92-.16,10-5.71,22.92-6.76,30.64-16.11,3.66-4.42,5.51-10,6.38-15.64,1-6.11,1.22-12.87-.36-18.89-1.33-5.1-4.3-10-9.09-12.5s-11.41-2.36-16.61-.74C453.68,265,448.11,277.13,446.52,288Z"/><path class="cls-7" d="M441.37,362.3c1.37-4.57,2.73-9.14,4.14-13.69,2.76-8.92,5.62-17.81,8.79-26.6q2.85-7.89,6-15.63a93.94,93.94,0,0,0-1.2-9.71c-.84-3.89-2.06-7.65-3.19-11.46-.07-.23.31-.36.4-.13,2.26,5.24,5.2,12,5.27,18.17q3.68-8.76,7.89-17.27A73.68,73.68,0,0,0,469,271.6a.17.17,0,0,1,.34-.07,51.33,51.33,0,0,1,1,12.7c2.16-4.26,4.43-8.47,6.85-12.61.22-.38.73,0,.54.37q-5.65,10.9-10.55,22.2a48.35,48.35,0,0,1,15.74-9.12c.25-.09.44.28.18.38a57.43,57.43,0,0,0-17,11.27q-3.54,8.26-6.75,16.65c6.28-6.16,14.88-10.21,23.19-12.39.28-.07.36.36.09.45-9.63,2.89-17.1,8.35-24.42,14.9q-1.27,3.39-2.5,6.8-4.65,12.9-8.86,26-2,6.26-4,12.53c-1.41,4.51-2.51,9.26-4.33,13.61-.18.41-.92.32-.83-.18A126.8,126.8,0,0,1,441.37,362.3Z"/><path class="cls-7" d="M458,279.19a24.83,24.83,0,0,1,3.61,9c0,.08-.11.13-.14,0a77.4,77.4,0,0,0-3.92-8.84C457.42,279.12,457.85,278.93,458,279.19Z"/><path class="cls-7" d="M475.93,300.11a26.38,26.38,0,0,1,9-3c.08,0,.13.11.05.14-1.45.6-3,1-4.44,1.58s-2.91,1.26-4.4,1.77A.25.25,0,0,1,475.93,300.11Z"/><path class="cls-7" d="M481,275a17.84,17.84,0,0,1,2.9-1.79.15.15,0,0,1,.17.25,18.7,18.7,0,0,1-2.86,1.86C481,275.38,480.79,275.07,481,275Z"/><path class="cls-6" d="M412.67,322.08c7.24,2.14,14.5,4.13,21.73,6.25.63.19,12.85-23.23,8.44-35.3-4.09-11.17-13.44-19.53-24.58-23.32-5.16-1.75-11.51-3.23-17-2-4.85,1.07-8.28,5-9.85,9.6-2.15,6.2-1.44,13.59-.27,19.92,1.09,5.87,3.23,11.65,7.12,16.26S407,320.41,412.67,322.08Z"/><path class="cls-7" d="M402.19,299.82a97.09,97.09,0,0,0,14.18,5.58,59.24,59.24,0,0,1,9.46,3.43c-3.05-6.81-6.4-13.48-10-20.08-4.67-1.35-9.58-3.46-13.1-6.77a.2.2,0,0,1,.26-.3c3.85,2.72,8.1,4.36,12.36,6.2q-1.44-2.67-2.92-5.33a.45.45,0,0,1,.74-.5,153.51,153.51,0,0,1,10.27,17.25,78.71,78.71,0,0,0,.74-15.81.11.11,0,0,1,.21,0,52.75,52.75,0,0,1-.17,17.37c2.53,5.06,4.84,10.25,6.92,15.5.82-3.16,1.89-6.26,2.61-9.44a43.49,43.49,0,0,0,1-13.92c0-.14.18-.15.21,0a49.07,49.07,0,0,1-3,25.55c1.21,3.16,2.36,6.34,3.42,9.51A189.57,189.57,0,0,1,445,378.2a.31.31,0,0,1-.61,0,249.42,249.42,0,0,0-10.78-49.57c-2.1-6.31-4.51-12.43-7.16-18.43-4.27-1.26-8.52-3-12.72-4.43s-8.28-3.06-11.72-5.75A.15.15,0,0,1,402.19,299.82Z"/><path class="cls-7" d="M395.45,293c4.42,1.58,8.61,3.78,13,5.37.21.08.09.41-.12.36-4.68-1-9.31-2.41-13.08-5.47C395.14,293.15,395.3,293,395.45,293Z"/><path class="cls-7" d="M431.56,283.47c-.06-.23.29-.37.36-.12,1.21,4.07,2.05,8.4.87,12.56a.16.16,0,0,1-.31,0C432.26,291.7,432.5,287.61,431.56,283.47Z"/><path class="cls-7" d="M413.29,274.06A10.78,10.78,0,0,1,415.2,281c0,.15-.25.24-.29.06-.54-2.33-1.44-4.46-2.16-6.72A.31.31,0,0,1,413.29,274.06Z"/><path class="cls-6" d="M498.68,332.41c-2.12,6.73-7.16,16-15.13,16.1-5.17.05-10.38-.56-15.57-.64-5.55-.08-11.11-.07-16.65.26-.45,0,.67-16.62,14-24.73,3.73-2.27,8.31-3,12.54-3.91A58.38,58.38,0,0,1,492.71,318c3.06.12,5.61.77,6.7,3.91S499.7,329.21,498.68,332.41Z"/><path class="cls-7" d="M492.94,324c-3.24.83-6.51,1.79-9.77,2.82a35,35,0,0,1,2.69-2.62c1.4-1.16,2.94-2.09,4.44-3.1.12-.09.05-.33-.12-.27a18.34,18.34,0,0,0-7.86,6.26c-4.06,1.31-8.07,2.75-11.94,4.34a45.07,45.07,0,0,0-7.64,4,31.46,31.46,0,0,1,2.76-4.82c1.77-2.29,4.17-3.57,6.49-5.2a.2.2,0,0,0-.21-.35,18.91,18.91,0,0,0-10.4,11.28,44.06,44.06,0,0,0-7.57,6.87c-8.83,10-15.78,23.36-15.81,37,0,.32.53.41.59.07,2.5-13.52,7.84-25.66,16.83-36.15.63-.74,1.28-1.44,1.94-2.12a61.17,61.17,0,0,1,7.29-.54c2.84,0,5.66.42,8.49.65,4.66.37,9.81.43,14-1.91.18-.11.06-.43-.15-.35-9.37,3.4-19.19-.92-28.58,1.11a43.87,43.87,0,0,1,13.85-8.92l.86-.35c6,.72,12.35,2.29,18.21.34a.15.15,0,0,0-.08-.28c-5.65,1.41-11.08-.37-16.66-.65,6.08-2.36,12.27-4.25,18.37-6.6C493.48,324.32,493.49,323.85,492.94,324Z"/><path class="cls-7" d="M495.59,329.91a80.12,80.12,0,0,1-8.75.66c-.06,0-.09.11,0,.12a18.09,18.09,0,0,0,8.82-.56C495.8,330.09,495.73,329.88,495.59,329.91Z"/><path class="cls-7" d="M475.83,324.14a14.3,14.3,0,0,0-4.33,3c-.15.13.06.41.22.28.74-.53,1.49-1,2.26-1.53a20.68,20.68,0,0,0,2.1-1.33A.26.26,0,0,0,475.83,324.14Z"/><path class="cls-6" d="M428.73,345.8c.1.22-.22.43-.35.19h0a.36.36,0,0,1-.21.14A134.71,134.71,0,0,1,411.87,349c-4.41.39-9.5.64-13.36-1.92-5.23-3.47-8.67-12.75-5.84-18.64,3.34-7,13.43-3.2,18.49-.71A37.13,37.13,0,0,1,428.73,345.8Z"/><path class="cls-7" d="M432.64,349a52.47,52.47,0,0,0-9.73-7.41A33.31,33.31,0,0,0,413,331.57c-.19-.13-.35.17-.18.3a44.73,44.73,0,0,1,8.32,8.75A92.07,92.07,0,0,0,409,335.07a16.27,16.27,0,0,0-6.56-6.57c-.05,0-.12,0-.07.09a26.61,26.61,0,0,1,5.92,6.21q-3.72-1.38-7.49-2.62c-.22-.07-.31.27-.09.35,4.46,1.75,9,3.58,13.43,5.7a51.63,51.63,0,0,1-16.27-.05.12.12,0,0,0-.06.24,32,32,0,0,0,17.26.25,80.55,80.55,0,0,1,8.18,4.59,20.35,20.35,0,0,0-6.61.54A50.66,50.66,0,0,1,405,345.12a.13.13,0,0,0,0,.26c6.74,1.16,13.12-1.91,19.8-1.11a51.37,51.37,0,0,1,7,5.69,52.28,52.28,0,0,1,10.15,14.32c2.81,5.73,4.34,11.8,6.61,17.72a.22.22,0,0,0,.42-.11C447,370.22,441.14,357.35,432.64,349Z"/><path class="cls-7" d="M412.3,333a7.55,7.55,0,0,0-1.73-2.09,6.58,6.58,0,0,0-2-1.49c-.07,0-.11.06-.07.11.56.62,1.33,1.08,1.92,1.69s1.1,1.31,1.71,1.9A.1.1,0,0,0,412.3,333Z"/><path class="cls-7" d="M401.17,336.65c-1-.25-2.05-.23-3.07-.44a27.62,27.62,0,0,1-3-.89.12.12,0,0,0-.1.22,10,10,0,0,0,6.15,1.43C401.33,336.94,401.32,336.69,401.17,336.65Z"/><polygon class="cls-8" points="460.43 367.51 459.55 377.56 456.54 411.51 429.96 411.51 426.2 377.56 425.1 367.51 460.43 367.51"/><polygon class="cls-7" points="460.43 367.51 459.55 377.56 426.2 377.56 425.1 367.51 460.43 367.51"/><rect class="cls-8" x="422.46" y="364.77" width="40.6" height="8.16"/><path class="cls-8" d="M363.1,0H180a18.7,18.7,0,0,0-18.52,18.87v420A18.71,18.71,0,0,0,180,457.74H363.1a18.73,18.73,0,0,0,18.54-18.87v-420A18.71,18.71,0,0,0,363.1,0Zm6.95,427.22c0,9.92-7.43,17.95-16.59,17.95H189.65c-9.19,0-16.62-8-16.62-17.95V33.15C173,12.94,180.46,12,189.65,12h32.82c1.9,0,3.46,2.16,3.46,4.85V18c0,6.29,3.45,6.31,7.67,6.31h75.88c4.27,0,7.69,0,7.69-6.31V16.81c0-2.69,1.54-4.85,3.48-4.85h32.81c9.16,0,16.59,2.68,16.59,21.19Z"/><line class="cls-9" x1="173.04" y1="404.97" x2="172.42" y2="404.97"/><path class="cls-10" d="M370.05,33.15V427.22c0,9.92-7.43,17.95-16.59,17.95H189.65c-9.19,0-16.62-8-16.62-17.95V33.15C173,12.94,180.46,12,189.65,12h32.82c1.9,0,3.46,2.16,3.46,4.85V18c0,6.29,3.45,6.31,7.67,6.31h75.88c4.27,0,7.69,0,7.69-6.31V16.81c0-2.69,1.54-4.85,3.48-4.85h32.81C362.62,12,370.05,14.64,370.05,33.15Z"/><path class="cls-6" d="M370.05,33.15V72.68H173V33.15C173,12.94,180.46,12,189.65,12h32.82c1.9,0,3.46,2.16,3.46,4.85V18c0,6.29,3.45,6.31,7.67,6.31h75.88c4.27,0,7.69,0,7.69-6.31V16.81c0-2.69,1.54-4.85,3.48-4.85h32.81C362.62,12,370.05,14.64,370.05,33.15Z"/><g id="u5Zjqx"><path class="cls-10" d="M216.8,19.84l-.32.32-.18.18a4.31,4.31,0,0,0-6.11,0l-.17-.18c-.11-.1-.21-.21-.31-.31h0l0,0c.13-.11.26-.24.4-.35a4.3,4.3,0,0,1,.93-.59,4.45,4.45,0,0,1,1.23-.41c.2,0,.41-.06.61-.09s.52,0,.54,0,.28,0,.42,0a4.36,4.36,0,0,1,1.12.27,4.44,4.44,0,0,1,.77.35,5.2,5.2,0,0,1,.72.51l.34.3Z"/><path class="cls-10" d="M211.2,21.33l-.51-.49a3.6,3.6,0,0,1,5.11,0l-.5.5a2.9,2.9,0,0,0-4.1,0Z"/><path class="cls-10" d="M214.79,21.83l-.49.5a1.5,1.5,0,0,0-2.1,0l-.5-.49A2.17,2.17,0,0,1,214.79,21.83Z"/><path class="cls-10" d="M213.7,22.78a.45.45,0,1,1-.9,0,.45.45,0,1,1,.9,0Z"/></g><path class="cls-10" d="M185.88,20.8a1.31,1.31,0,1,1,1.31,1.31A1.31,1.31,0,0,1,185.88,20.8Z"/><path class="cls-10" d="M190,20.8a1.31,1.31,0,1,1,1.3,1.31A1.31,1.31,0,0,1,190,20.8Z"/><path class="cls-10" d="M194.11,20.8a1.31,1.31,0,1,1,1.3,1.31A1.31,1.31,0,0,1,194.11,20.8Z"/><path class="cls-10" d="M198.22,20.8a1.31,1.31,0,1,1,1.31,1.31A1.31,1.31,0,0,1,198.22,20.8Z"/><path class="cls-10" d="M202.33,20.8a1.31,1.31,0,1,1,1.31,1.31A1.31,1.31,0,0,1,202.33,20.8Z"/><path class="cls-10" d="M355.28,23.65H344.65V18.73h10.63Zm-10.09-.54h9.55V19.27h-9.55Z"/><rect class="cls-10" x="345.53" y="19.56" width="6.85" height="3.25"/><rect class="cls-10" x="355.28" y="19.87" width="0.95" height="2.63"/><polygon class="cls-10" points="190.99 61.58 185.17 56.13 190.99 50.67 191.9 51.64 187.1 56.13 191.9 60.62 190.99 61.58"/><path class="cls-10" d="M248.21,57.89a.49.49,0,0,1,.69-.06,3.11,3.11,0,0,0,1.82.73,2.09,2.09,0,0,0,1.18-.35.85.85,0,0,0,.41-.69.51.51,0,0,0-.09-.3.84.84,0,0,0-.28-.29,3.76,3.76,0,0,0-1.3-.44h0a5.29,5.29,0,0,1-1.22-.37,2.08,2.08,0,0,1-.89-.74,1.5,1.5,0,0,1-.21-.78,1.76,1.76,0,0,1,.76-1.39,2.8,2.8,0,0,1,1.64-.5,3.7,3.7,0,0,1,2.06.76.49.49,0,0,1-.54.82,2.67,2.67,0,0,0-1.52-.61,1.84,1.84,0,0,0-1.07.32.77.77,0,0,0-.36.6.47.47,0,0,0,.07.27.88.88,0,0,0,.26.24,3.13,3.13,0,0,0,1.18.42h0a5.77,5.77,0,0,1,1.31.4,2.17,2.17,0,0,1,.95.79,1.53,1.53,0,0,1,.23.8,1.82,1.82,0,0,1-.82,1.47,3,3,0,0,1-1.75.54,4.12,4.12,0,0,1-2.43-.94A.52.52,0,0,1,248.21,57.89Z"/><path class="cls-10" d="M254.75,59v-5.6a.52.52,0,0,1,.52-.52h3.1a.53.53,0,0,1,0,1.05H255.8v1.74H258a.53.53,0,0,1,.52.52.52.52,0,0,1-.52.53H255.8v1.75h2.57a.53.53,0,0,1,.52.53.52.52,0,0,1-.52.52h-3.1A.52.52,0,0,1,254.75,59Z"/><path class="cls-10" d="M264.44,54h-1.51V59a.51.51,0,0,1-.52.52.52.52,0,0,1-.53-.52V54h-1.5a.52.52,0,0,1-.52-.53.52.52,0,0,1,.52-.52h4.06a.52.52,0,0,1,.52.52A.53.53,0,0,1,264.44,54Z"/><path class="cls-10" d="M270.58,54h-1.5V59A.53.53,0,0,1,268,59V54h-1.5a.52.52,0,0,1-.52-.53.52.52,0,0,1,.52-.52h4.05a.52.52,0,0,1,.53.52A.53.53,0,0,1,270.58,54Z"/><path class="cls-10" d="M272.74,53.42a.52.52,0,0,1,.52-.52.52.52,0,0,1,.53.52V59a.52.52,0,0,1-.53.52.51.51,0,0,1-.52-.52Z"/><path class="cls-10" d="M276.61,59a.52.52,0,0,1-.51.52.51.51,0,0,1-.52-.52V53.51h0a.52.52,0,0,1,.2-.44.53.53,0,0,1,.73.12l3.06,4.24V53.51a.52.52,0,0,1,1,0V59a.52.52,0,0,1-.52.52.51.51,0,0,1-.39-.19l0-.05-3-4.22Z"/><path class="cls-10" d="M282.11,56.14a3.46,3.46,0,0,1,3.5-3.43,3.55,3.55,0,0,1,2.17.74.54.54,0,0,1,.1.77.55.55,0,0,1-.77.09,2.41,2.41,0,0,0-1.5-.52,2.32,2.32,0,0,0-1.7.7,2.25,2.25,0,0,0,0,3.28,2.31,2.31,0,0,0,1.7.69,2.62,2.62,0,0,0,1.31-.36V56.8h-1.36a.54.54,0,0,1-.54-.54.53.53,0,0,1,.54-.53h1.89a.54.54,0,0,1,.55.53v2.1a.9.9,0,0,1,0,.16l0,0h0a.47.47,0,0,1-.18.22,3.51,3.51,0,0,1-5.66-2.66Z"/><path class="cls-10" d="M289.92,57.89a.5.5,0,0,1,.7-.06,3.06,3.06,0,0,0,1.81.73,2.09,2.09,0,0,0,1.18-.35.85.85,0,0,0,.41-.69.58.58,0,0,0-.08-.3,1,1,0,0,0-.29-.29,3.68,3.68,0,0,0-1.3-.44h0a5.44,5.44,0,0,1-1.22-.37,2,2,0,0,1-.88-.74,1.42,1.42,0,0,1-.22-.78,1.76,1.76,0,0,1,.76-1.39,2.8,2.8,0,0,1,1.64-.5,3.77,3.77,0,0,1,2.07.76.48.48,0,0,1,.13.67.48.48,0,0,1-.67.15,2.72,2.72,0,0,0-1.53-.61,1.78,1.78,0,0,0-1.06.32.76.76,0,0,0-.37.6.47.47,0,0,0,.07.27.88.88,0,0,0,.26.24,3.13,3.13,0,0,0,1.18.42h0a5.77,5.77,0,0,1,1.31.4,2.17,2.17,0,0,1,.95.79,1.53,1.53,0,0,1,.23.8,1.82,1.82,0,0,1-.82,1.47,3,3,0,0,1-1.75.54,4.12,4.12,0,0,1-2.43-.94A.52.52,0,0,1,289.92,57.89Z"/><rect class="cls-10" x="349.04" y="52.2" width="8.9" height="1.03"/><rect class="cls-10" x="349.04" y="55.61" width="8.9" height="1.03"/><rect class="cls-10" x="349.04" y="59.03" width="8.9" height="1.03"/><circle class="cls-10" cx="351.08" cy="52.71" r="1.54"/><path class="cls-10" d="M357.12,56.13a1.54,1.54,0,1,1-1.54-1.54A1.54,1.54,0,0,1,357.12,56.13Z"/><circle class="cls-10" cx="352.5" cy="59.54" r="1.54"/><path class="cls-10" d="M281.9,16.42H261.2a1.27,1.27,0,0,1-1.28-1.27h0a1.28,1.28,0,0,1,1.28-1.28h20.7a1.28,1.28,0,0,1,1.28,1.28h0A1.28,1.28,0,0,1,281.9,16.42Z"/><path class="cls-8" d="M284.31,136.37a23,23,0,0,1-6.74,2.83,23.43,23.43,0,1,1,6.74-2.83Z"/><path class="cls-10" d="M279.13,113.8a7.12,7.12,0,1,1-7.12-7.12A7.12,7.12,0,0,1,279.13,113.8Z"/><path class="cls-10" d="M284.31,133.44v2.93a23,23,0,0,1-6.74,2.83,23.24,23.24,0,0,1-17.86-2.84v-2.92a12.3,12.3,0,1,1,24.6,0Z"/><path class="cls-6" d="M289.75,129.51a9.08,9.08,0,1,0,9.07,9.08A9.08,9.08,0,0,0,289.75,129.51Zm0,13.31a4.24,4.24,0,1,1,4.24-4.23A4.23,4.23,0,0,1,289.75,142.82Z"/><polygon class="cls-6" points="291.5 129.89 288.01 129.89 288.2 127.42 291.3 127.42 291.5 129.89"/><polygon class="cls-6" points="284.85 131.06 282.39 133.53 280.78 131.65 282.97 129.46 284.85 131.06"/><polygon class="cls-6" points="280.99 136.59 280.99 140.08 278.52 139.89 278.52 136.79 280.99 136.59"/><polygon class="cls-6" points="282.16 143.24 284.63 145.7 282.75 147.31 280.55 145.12 282.16 143.24"/><polygon class="cls-6" points="287.69 147.1 291.18 147.1 290.99 149.57 287.88 149.57 287.69 147.1"/><polygon class="cls-6" points="294.33 145.92 296.8 143.46 298.41 145.34 296.22 147.53 294.33 145.92"/><polygon class="cls-6" points="298.2 140.4 298.2 136.91 300.67 137.1 300.67 140.2 298.2 140.4"/><polygon class="cls-6" points="297.02 133.75 294.56 131.29 296.44 129.68 298.63 131.87 297.02 133.75"/><rect class="cls-8" x="192.14" y="157.95" width="11.37" height="11.37"/><polygon class="cls-2" points="212.47 174.46 229.78 174.28 247.09 174.17 281.72 174.09 316.34 174.17 333.65 174.28 350.97 174.46 333.65 174.64 316.34 174.75 281.72 174.84 247.09 174.75 229.78 174.64 212.47 174.46"/><rect class="cls-2" x="212.47" y="162.41" width="52.95" height="2.46"/><path class="cls-6" d="M345.28,169.33H333.53a5.69,5.69,0,0,1-5.69-5.69h0a5.69,5.69,0,0,1,5.69-5.69h11.75a5.69,5.69,0,0,1,5.69,5.69h0A5.69,5.69,0,0,1,345.28,169.33Z"/><path class="cls-10" d="M349.85,163.64a4.56,4.56,0,1,1-4.56-4.56A4.56,4.56,0,0,1,349.85,163.64Z"/><rect class="cls-11" x="192.14" y="179.36" width="11.37" height="11.37"/><polygon class="cls-2" points="212.47 195.87 229.78 195.69 247.09 195.58 281.72 195.5 316.34 195.58 333.65 195.69 350.97 195.87 333.65 196.05 316.34 196.16 281.72 196.24 247.09 196.16 229.78 196.05 212.47 195.87"/><rect class="cls-2" x="212.47" y="183.82" width="52.95" height="2.46"/><path class="cls-6" d="M345.28,190.73H333.53a5.68,5.68,0,0,1-5.69-5.68h0a5.69,5.69,0,0,1,5.69-5.69h11.75a5.69,5.69,0,0,1,5.69,5.69h0A5.68,5.68,0,0,1,345.28,190.73Z"/><path class="cls-10" d="M349.85,185.05a4.56,4.56,0,1,1-4.56-4.56A4.56,4.56,0,0,1,349.85,185.05Z"/><rect class="cls-8" x="192.14" y="222.18" width="11.37" height="11.37"/><polygon class="cls-2" points="212.47 238.69 229.78 238.51 247.09 238.4 281.72 238.31 316.34 238.4 333.65 238.5 350.97 238.69 333.65 238.87 316.34 238.98 281.72 239.06 247.09 238.97 229.78 238.87 212.47 238.69"/><rect class="cls-2" x="212.47" y="226.64" width="52.95" height="2.46"/><path class="cls-2" d="M333.53,233.55h11.75a5.68,5.68,0,0,0,5.69-5.68h0a5.69,5.69,0,0,0-5.69-5.69H333.53a5.69,5.69,0,0,0-5.69,5.69h0A5.68,5.68,0,0,0,333.53,233.55Z"/><path class="cls-10" d="M329,227.87a4.56,4.56,0,1,0,4.56-4.56A4.56,4.56,0,0,0,329,227.87Z"/><rect class="cls-11" x="192.14" y="243.59" width="11.37" height="11.37"/><polygon class="cls-2" points="212.47 260.1 229.78 259.92 247.09 259.81 281.72 259.72 316.34 259.81 333.65 259.91 350.97 260.1 333.65 260.28 316.34 260.39 281.72 260.47 247.09 260.38 229.78 260.28 212.47 260.1"/><rect class="cls-2" x="212.47" y="248.04" width="52.95" height="2.46"/><path class="cls-6" d="M345.28,255H333.53a5.68,5.68,0,0,1-5.69-5.68h0a5.69,5.69,0,0,1,5.69-5.69h11.75a5.69,5.69,0,0,1,5.69,5.69h0A5.68,5.68,0,0,1,345.28,255Z"/><path class="cls-10" d="M349.85,249.28a4.56,4.56,0,1,1-4.56-4.56A4.56,4.56,0,0,1,349.85,249.28Z"/><rect class="cls-8" x="192.14" y="286.41" width="11.37" height="11.37"/><polygon class="cls-2" points="212.47 302.92 229.78 302.73 247.09 302.63 281.72 302.54 316.34 302.63 333.65 302.73 350.97 302.92 333.65 303.1 316.34 303.2 281.72 303.29 247.09 303.2 229.78 303.1 212.47 302.92"/><rect class="cls-2" x="212.47" y="290.86" width="52.95" height="2.46"/><path class="cls-6" d="M345.28,297.78H333.53a5.69,5.69,0,0,1-5.69-5.69h0a5.68,5.68,0,0,1,5.69-5.68h11.75a5.68,5.68,0,0,1,5.69,5.68h0A5.69,5.69,0,0,1,345.28,297.78Z"/><path class="cls-10" d="M349.85,292.09a4.56,4.56,0,1,1-4.56-4.55A4.56,4.56,0,0,1,349.85,292.09Z"/><rect class="cls-11" x="192.14" y="307.82" width="11.37" height="11.37"/><polygon class="cls-2" points="212.47 324.32 229.78 324.14 247.09 324.04 281.72 323.95 316.34 324.04 333.65 324.14 350.97 324.32 333.65 324.51 316.34 324.61 281.72 324.7 247.09 324.61 229.78 324.51 212.47 324.32"/><rect class="cls-2" x="212.47" y="312.27" width="52.95" height="2.46"/><path class="cls-6" d="M345.28,319.19H333.53a5.69,5.69,0,0,1-5.69-5.69h0a5.68,5.68,0,0,1,5.69-5.68h11.75A5.68,5.68,0,0,1,351,313.5h0A5.69,5.69,0,0,1,345.28,319.19Z"/><path class="cls-10" d="M349.85,313.5a4.56,4.56,0,1,1-4.56-4.55A4.56,4.56,0,0,1,349.85,313.5Z"/><rect class="cls-6" x="192.14" y="329.23" width="11.37" height="11.37"/><polygon class="cls-2" points="212.47 345.73 229.78 345.55 247.09 345.45 281.72 345.36 316.34 345.45 333.65 345.55 350.97 345.73 333.65 345.92 316.34 346.02 281.72 346.11 247.09 346.02 229.78 345.92 212.47 345.73"/><rect class="cls-2" x="212.47" y="333.68" width="52.95" height="2.46"/><path class="cls-2" d="M333.53,340.6h11.75a5.69,5.69,0,0,0,5.69-5.69h0a5.68,5.68,0,0,0-5.69-5.68H333.53a5.68,5.68,0,0,0-5.69,5.68h0A5.69,5.69,0,0,0,333.53,340.6Z"/><circle class="cls-10" cx="333.52" cy="334.91" r="4.56"/><rect class="cls-8" x="192.14" y="350.64" width="11.37" height="11.37"/><polygon class="cls-2" points="212.47 367.14 229.78 366.96 247.09 366.86 281.72 366.77 316.34 366.86 333.65 366.96 350.97 367.14 333.65 367.33 316.34 367.43 281.72 367.52 247.09 367.43 229.78 367.33 212.47 367.14"/><rect class="cls-2" x="212.47" y="355.09" width="52.95" height="2.46"/><path class="cls-6" d="M345.28,362H333.53a5.69,5.69,0,0,1-5.69-5.69h0a5.68,5.68,0,0,1,5.69-5.68h11.75a5.68,5.68,0,0,1,5.69,5.68h0A5.69,5.69,0,0,1,345.28,362Z"/><path class="cls-10" d="M349.85,356.32a4.56,4.56,0,1,1-4.56-4.55A4.56,4.56,0,0,1,349.85,356.32Z"/><rect class="cls-6" x="192.13" y="200.77" width="11.37" height="11.37"/><polygon class="cls-2" points="212.47 217.28 229.78 217.1 247.09 216.99 281.71 216.91 316.34 216.99 333.65 217.1 350.96 217.28 333.65 217.46 316.34 217.57 281.71 217.65 247.09 217.57 229.78 217.46 212.47 217.28"/><rect class="cls-2" x="212.47" y="205.23" width="52.95" height="2.46"/><path class="cls-6" d="M345.28,212.14H333.53a5.68,5.68,0,0,1-5.69-5.68h0a5.69,5.69,0,0,1,5.69-5.69h11.75a5.68,5.68,0,0,1,5.68,5.69h0A5.68,5.68,0,0,1,345.28,212.14Z"/><path class="cls-10" d="M349.85,206.46a4.56,4.56,0,1,1-4.56-4.56A4.56,4.56,0,0,1,349.85,206.46Z"/><rect class="cls-6" x="292.27" y="404.88" width="58.7" height="15.99"/><path class="cls-10" d="M311.26,414.26a.46.46,0,0,1,.64-.06,2.93,2.93,0,0,0,1.68.68,1.91,1.91,0,0,0,1.1-.33.79.79,0,0,0,.38-.63.49.49,0,0,0-.08-.28.86.86,0,0,0-.27-.27,3.68,3.68,0,0,0-1.2-.41h0a5.16,5.16,0,0,1-1.13-.34,1.85,1.85,0,0,1-.82-.69,1.37,1.37,0,0,1-.2-.72,1.61,1.61,0,0,1,.7-1.28,2.59,2.59,0,0,1,1.52-.47,3.44,3.44,0,0,1,1.92.7.46.46,0,0,1,.12.63.44.44,0,0,1-.62.13,2.55,2.55,0,0,0-1.42-.56,1.7,1.7,0,0,0-1,.29.72.72,0,0,0-.34.56.49.49,0,0,0,.06.25,1.06,1.06,0,0,0,.24.22,3.08,3.08,0,0,0,1.1.39h0a5.06,5.06,0,0,1,1.21.37,2,2,0,0,1,.88.73,1.46,1.46,0,0,1,.21.75,1.7,1.7,0,0,1-.75,1.36,2.74,2.74,0,0,1-1.63.5,3.76,3.76,0,0,1-2.25-.88A.46.46,0,0,1,311.26,414.26Z"/><path class="cls-10" d="M320.32,414.34h-2.13l-.43,1.14a.49.49,0,0,1-.46.31.47.47,0,0,1-.17,0,.49.49,0,0,1-.29-.63l1.94-5.18a.52.52,0,0,1,.47-.31.51.51,0,0,1,.47.31l1.94,5.18a.49.49,0,0,1-.29.63.43.43,0,0,1-.17,0,.47.47,0,0,1-.45-.31Zm-.36-1-.71-1.89-.71,1.89Z"/><path class="cls-10" d="M324.08,415.7l-.06,0s0,0,0,0l-.05-.05h0a.13.13,0,0,0,0-.07l-2.15-5.13a.48.48,0,1,1,.88-.37l1.72,4.07,1.71-4.07a.5.5,0,0,1,.64-.26.49.49,0,0,1,.26.63l-2.17,5.13a.25.25,0,0,1,0,.07h0l0,.05,0,0s0,0-.05,0h0a.21.21,0,0,1-.07.05h0l-.07,0h-.21l-.07,0h0l-.08-.06Z"/><path class="cls-10" d="M328.4,415.31v-5.19a.48.48,0,0,1,.49-.48h2.87a.49.49,0,0,1,.49.48.5.5,0,0,1-.49.49h-2.38v1.61h2.05a.49.49,0,0,1,0,1h-2.05v1.61h2.38a.49.49,0,1,1,0,1h-2.85a0,0,0,0,1,0,0h0A.48.48,0,0,1,328.4,415.31Z"/><rect class="cls-2" x="192.14" y="404.88" width="58.7" height="15.99"/><path class="cls-10" d="M203.11,415.31v-5.19a.48.48,0,0,1,.49-.48h1a3.08,3.08,0,0,1,0,6.15h-1A.49.49,0,0,1,203.11,415.31Zm1-.5h.55a2.1,2.1,0,0,0,0-4.2h-.55Z"/><path class="cls-10" d="M209.06,410.12a.47.47,0,0,1,.48-.48.48.48,0,0,1,.49.48v5.19a.48.48,0,0,1-.49.48.47.47,0,0,1-.48-.48Z"/><path class="cls-10" d="M211.49,414.26a.46.46,0,0,1,.64-.06,2.87,2.87,0,0,0,1.68.68,1.94,1.94,0,0,0,1.1-.33.78.78,0,0,0,.37-.63.42.42,0,0,0-.08-.28.81.81,0,0,0-.26-.27,3.76,3.76,0,0,0-1.2-.41h0a5.43,5.43,0,0,1-1.14-.34,1.88,1.88,0,0,1-.81-.69,1.29,1.29,0,0,1-.21-.72,1.59,1.59,0,0,1,.71-1.28,2.59,2.59,0,0,1,1.52-.47,3.47,3.47,0,0,1,1.92.7.46.46,0,0,1,.12.63.45.45,0,0,1-.63.13,2.49,2.49,0,0,0-1.41-.56,1.73,1.73,0,0,0-1,.29.74.74,0,0,0-.33.56.49.49,0,0,0,.06.25.88.88,0,0,0,.24.22,3,3,0,0,0,1.1.39h0a5.2,5.2,0,0,1,1.21.37,2,2,0,0,1,.88.73,1.46,1.46,0,0,1,.21.75,1.71,1.71,0,0,1-.76,1.36,2.71,2.71,0,0,1-1.62.5,3.76,3.76,0,0,1-2.25-.88A.46.46,0,0,1,211.49,414.26Z"/><path class="cls-10" d="M217.27,412.62a3.26,3.26,0,0,1,5.26-2.47.52.52,0,0,1,.09.7.53.53,0,0,1-.71.1,2.16,2.16,0,0,0-1.41-.49,2.38,2.38,0,0,0-1.59.63,2.22,2.22,0,0,0-.64,1.53,2.14,2.14,0,0,0,.64,1.53,2.34,2.34,0,0,0,1.59.64,2.18,2.18,0,0,0,1.41-.49.54.54,0,0,1,.71.1.52.52,0,0,1-.09.7,3.25,3.25,0,0,1-2,.69A3.22,3.22,0,0,1,217.27,412.62Z"/><path class="cls-10" d="M227.33,414.34h-2.14l-.43,1.14a.48.48,0,0,1-.45.31.43.43,0,0,1-.17,0,.49.49,0,0,1-.29-.63l1.94-5.18a.51.51,0,0,1,.47-.31.5.5,0,0,1,.46.31l1.95,5.18a.5.5,0,0,1-.29.63.48.48,0,0,1-.62-.28Zm-.36-1-.71-1.89-.71,1.89Z"/><path class="cls-10" d="M233.94,415.06a.48.48,0,0,1-.31.62l-.19,0h0a.69.69,0,0,1-.34-.09.84.84,0,0,1-.28-.31,2.28,2.28,0,0,1-.19-1.06.74.74,0,0,0-.1-.37.84.84,0,0,0-.27-.26,1.75,1.75,0,0,0-.49-.21h-1v1.91a.49.49,0,0,1-.49.48.48.48,0,0,1-.48-.48v-5.19a.47.47,0,0,1,.48-.48h1.57A1.88,1.88,0,0,1,233,413a1.58,1.58,0,0,1,.31.32,1.72,1.72,0,0,1,.29.95,2.79,2.79,0,0,0,0,.52A.49.49,0,0,1,233.94,415.06Zm-1.23-3.53a.91.91,0,0,0-.91-.92h-1.08v1.81h1.08A.9.9,0,0,0,232.71,411.53Z"/><path class="cls-10" d="M235.37,415.31v-5.19a.47.47,0,0,1,.48-.48h1a3.08,3.08,0,0,1,0,6.15h-1A.48.48,0,0,1,235.37,415.31Zm1-.5h.55a2.1,2.1,0,0,0,0-4.2h-.55Z"/><rect class="cls-12" x="63.01" y="226.2" width="76" height="15.74" transform="translate(202.01 468.14) rotate(-180)"/><polygon class="cls-12" points="118.61 241.81 120.74 261.92 147.01 450.21 154.52 450.21 133.79 261.92 132.1 241.81 118.61 241.81"/><polygon class="cls-12" points="47.48 450.21 55.01 450.21 81.27 261.92 83.4 241.81 69.91 241.81 68.22 261.92 47.48 450.21"/><rect class="cls-12" x="60.16" y="383.97" width="83.83" height="4.72" transform="translate(204.16 772.67) rotate(-180)"/><polygon class="cls-13" points="133.79 261.21 120.74 261.21 118.61 241.81 132.1 241.81 133.79 261.21"/><polygon class="cls-13" points="68.22 261.21 81.27 261.21 83.4 241.81 69.91 241.81 68.22 261.21"/><path class="cls-14" d="M181.27,407.92c-2.66-.32-68.44-31.69-70.19-34.47-.67-1.05,3.34-10.9,8.52-22.65,1.12-2.54,2.29-5.16,3.5-7.81,7.79-17.21,16.47-35.29,16.47-35.29l44.05,20.86-17.68,34.71-3.87,7.62s19.81,23.28,21.4,26.53S183.93,408.25,181.27,407.92Z"/><path class="cls-10" d="M181.27,407.92c-2.66-.32-68.44-31.69-70.19-34.47-.81-1.28,5.28-15.55,12-30.46l42.84,20.28-3.87,7.62s19.81,23.28,21.4,26.53S183.93,408.25,181.27,407.92Z"/><path class="cls-6" d="M181.27,407.92c-2.66-.32-68.44-31.69-70.19-34.47-.67-1.05,3.34-10.9,8.52-22.65l42.47,20.09s19.81,23.28,21.4,26.53S183.93,408.25,181.27,407.92Z"/><path class="cls-7" d="M181.58,404.84c-10.9-5.53-55.36-26.79-66.56-31.43-.09,0-.12,0,0,.07,10.68,5.71,55.32,26.62,66.5,31.54C181.73,405.13,181.81,405,181.58,404.84Z"/><path class="cls-7" d="M180.37,393a9.82,9.82,0,0,0-7.88-.45,9.47,9.47,0,0,0-5.27,4.71c0,.06.09.12.13.06a11.34,11.34,0,0,1,13-4.18C180.39,393.21,180.46,393.09,180.37,393Z"/><path class="cls-7" d="M165.82,374c-4.38-2.17-10.24-3-14.71-.75-.17.09,0,.34.12.33a67.61,67.61,0,0,1,14.41,1A.31.31,0,0,0,165.82,374Z"/><path class="cls-7" d="M168.59,377c-4.38-2.16-10.24-3-14.7-.74-.18.09,0,.33.12.33a67.51,67.51,0,0,1,14.4,1A.31.31,0,0,0,168.59,377Z"/><path class="cls-7" d="M171.37,379.94c-4.39-2.17-10.25-3.05-14.71-.75-.17.09,0,.33.12.33a66.87,66.87,0,0,1,14.4,1A.31.31,0,0,0,171.37,379.94Z"/><path class="cls-7" d="M174.14,382.89c-4.38-2.17-10.24-3.05-14.71-.75-.17.09,0,.34.12.33a67.61,67.61,0,0,1,14.41,1A.31.31,0,0,0,174.14,382.89Z"/><path class="cls-11" d="M152.1,268.72c-.43,12.53-32.72,79.33-32.72,79.33l46.52,20.7s38.17-74.05,35-101.78c-2.71-23.53-44.93-51.38-71.4-79.3H90.13c14.69,31.15,58.59,68.52,61.84,79.49a5,5,0,0,1,.13,1.54Z"/><path class="cls-7" d="M165.53,359.67c-7.63-3.64-5.4-2.7-13.06-6.26-3.76-1.74-22.6-10.54-26.37-11.58a.09.09,0,0,0-.07.15c3.27,2.15,22.3,10.53,26.08,12.21,7.74,3.42,5.55,2.35,13.32,5.69A.12.12,0,1,0,165.53,359.67Z"/><path class="cls-7" d="M99.84,194.24a403.34,403.34,0,0,0,38.79,50.07c3.48,3.81,7.07,7.51,10.66,11.21,3,3.13,6.12,6.61,6.88,11.06.84,4.95-1.1,9.9-2.64,14.52-1.7,5.09-3.4,10.18-5.21,15.23-2,5.45-4,10.86-6.34,16.17-1.19,2.71-8.4,16-9.72,18.69-.65,1.32-1.33,2.64-2,3.95L127.08,341c-.12.21-.43.48-.13-.07.66-1.23,3.4-6.33,4-7.58,2.47-4.94,10.62-20.65,12.67-25.78s4-10.45,5.8-15.74,3.66-10.45,5.21-15.76a22.19,22.19,0,0,0,1.12-8.4,15.18,15.18,0,0,0-3.17-7.49c-3.11-4.16-7.17-7.68-10.71-11.48q-11-11.79-21-24.49a355.52,355.52,0,0,1-21.19-29.84C99.66,194.24,99.79,194.16,99.84,194.24Z"/><path class="cls-14" d="M152.63,475.3c-2.56.78-75.41-1.14-78.14-3-1-.69-1.38-11.31-1.42-24.16,0-2.78,0-5.64,0-8.55.13-18.9.7-38.94.7-38.94l48.73,1.15-2,38.9-.44,8.54s27.56,13.21,30.34,15.54S155.2,474.51,152.63,475.3Z"/><path class="cls-10" d="M152.63,475.3c-2.56.78-75.41-1.14-78.14-3-1.26-.84-1.5-16.35-1.4-32.71l47.39,1.11-.44,8.54s27.56,13.21,30.34,15.54S155.2,474.51,152.63,475.3Z"/><path class="cls-6" d="M152.63,475.3c-2.56.78-75.41-1.14-78.14-3-1-.69-1.38-11.31-1.42-24.16l47,1.1s27.56,13.21,30.34,15.54S155.2,474.51,152.63,475.3Z"/><path class="cls-7" d="M151.67,472.36c-12.21-.62-61.48-2-73.59-1.67-.1,0-.1.07,0,.08,12.08.88,61.36,1.84,73.58,1.79C151.92,472.56,151.92,472.37,151.67,472.36Z"/><path class="cls-7" d="M145.76,462.07a9.79,9.79,0,0,0-7.38,2.78,9.53,9.53,0,0,0-2.9,6.45c0,.07.13.08.14,0a11.34,11.34,0,0,1,10.14-9.09C145.85,462.21,145.86,462.07,145.76,462.07Z"/><path class="cls-7" d="M124.74,450.61c-4.89-.2-10.6,1.38-13.74,5.3-.12.15.1.32.24.25a67.38,67.38,0,0,1,13.57-4.94A.31.31,0,0,0,124.74,450.61Z"/><path class="cls-7" d="M128.47,452.18c-4.88-.19-10.59,1.38-13.74,5.3-.12.15.1.32.25.25a67.3,67.3,0,0,1,13.56-4.94A.31.31,0,0,0,128.47,452.18Z"/><path class="cls-7" d="M132.21,453.75c-4.89-.19-10.6,1.38-13.74,5.3-.12.15.09.32.24.25a67.16,67.16,0,0,1,13.57-4.94A.31.31,0,0,0,132.21,453.75Z"/><path class="cls-7" d="M135.94,455.32c-4.88-.19-10.59,1.38-13.74,5.3-.12.15.1.32.25.25A67.08,67.08,0,0,1,136,455.93.31.31,0,0,0,135.94,455.32Z"/><path class="cls-11" d="M124.77,448.45l-55.62-.69s13.18-207,9.21-214.22c-6.1-11-10.32-25.9-1.88-46h43.05s-2.28,21.41-2.07,22.29C130.67,267.61,124.77,448.45,124.77,448.45Z"/><path class="cls-7" d="M122.16,438.78c-11.07-.82-45.65-1.07-49.33-.56a.09.09,0,0,0,0,.17c3.65.7,21.85,1.09,49.33.63A.12.12,0,0,0,122.16,438.78Z"/><path class="cls-7" d="M120.31,190.36c-.43,5.46-.21,14.76-3.37,14.9s-2.6-11.23-2.68-13.85c-.08-2.37-.9-2-1,.75-.24,7.59,0,14.28,4,14s4-12.07,3.9-14.76C121.11,190,120.45,188.64,120.31,190.36Z"/><path class="cls-7" d="M117.15,205.62a23.76,23.76,0,0,0,.12,5.75c0,.15.66,0,.72-.09.38-.79.08-4.53.18-5.53A.51.51,0,0,0,117.15,205.62Z"/><path class="cls-7" d="M118.48,212.33c1.35,4.77,2.73,13.89,2.4,16.29,0,.22-.35.29-.39.06-.43-2.55-2.34-14.84-2.53-16.13S118.11,211,118.48,212.33Z"/><path class="cls-7" d="M110.2,216.09a17.2,17.2,0,0,1,2-1.7c.71-.55,1.41-1.09,2.15-1.61,1.49-1.05,3-2,4.6-2.95s3.11-1.75,4.71-2.56,3.45-1.48,5.12-2.32c.09,0,.18.09.09.15-1.59.87-3.06,2-4.6,2.93s-3.08,2-4.62,2.92-3,1.91-4.53,2.84c-.8.49-1.6,1-2.41,1.44a19.3,19.3,0,0,1-2.27,1.26C110.21,216.59,110.05,216.26,110.2,216.09Z"/><path class="cls-7" d="M78.77,399.7q1-11.55,1.93-23.13,1.77-23.15,2.81-46.34t1.39-46.41q.16-11.61.17-23.22c0-7.67.05-17.93-.35-25.6-.21-3.9-7.07-6.9-8.47-18.26a43.25,43.25,0,0,1,1.51-19.29A39.32,39.32,0,0,1,79.48,193c0-.1.18,0,.14.08a42.49,42.49,0,0,0-3.33,20.25,34.63,34.63,0,0,0,2.13,10.19c1.84,4.58,6.38,8.3,6.62,10.73.35,3.64.41,6.78.46,10.42,0,3.79.08,7.59.1,11.38q.06,11.61-.07,23.22-.24,23.09-1.21,46.18t-2.66,46.12c-1.12,15.37-2.49,43.13-4.09,58.45-.19,1.76-.4,3.5-.66,5.25,0,.19-.35.15-.33,0C77.1,427.52,78.07,407.4,78.77,399.7Z"/><path class="cls-11" d="M172.11,89.3l-9.33,29.77a1.08,1.08,0,0,0,.9,1.66l15.59.89a2.51,2.51,0,0,0,2.25-1.48l9.34-29.77c.37-.87,0-1.61-.9-1.66l-15.59-.89A2.54,2.54,0,0,0,172.11,89.3Z"/><path class="cls-8" d="M174,89.39l-9.34,29.77c-.37.87,0,1.61.9,1.66l15.59.89a2.51,2.51,0,0,0,2.25-1.48l9.34-29.77c.37-.87,0-1.61-.9-1.66l-15.59-.89A2.51,2.51,0,0,0,174,89.39Z"/><path class="cls-7" d="M178.16,91a1.32,1.32,0,1,1-2.64-.21,1.32,1.32,0,0,1,2.64.21Z"/><path class="cls-14" d="M119.26,132.17c7.57,19.35,25.76,45,33.94,45.69,3.89.31,10.79,1.7,16.2-2.44,11.8-9,22.36-27.1,25-37.68.92-3.76-17-13.22-20-10.3-6.88,6.83-15.26,20.57-16.38,20.41-4.17-.59-19.66-15.32-30.47-25.69C114.42,109.58,116.24,124.45,119.26,132.17Z"/><path class="cls-14" d="M196.12,118.11c-1.45-7.85-3-9.64-.73-16.92,1.51-4.78-.89-7.79-4.59-4.12-6.05,6-6.31,16.52-5.34,20.2Z"/><path class="cls-14" d="M193.24,141s4.16-10.54,3.45-19.06c-.5-5.89-3-18.59-18.9-26.26-3.78-1.82-10.44-1.73-5.36,3.47,3.61,3.7,7,5,8.73,7.49,0,0-8.47,1.11-10.14,5A77.67,77.67,0,0,0,167.36,122a15.4,15.4,0,0,0,1.88.86s-1.45,3.65,1,9.13Z"/><path class="cls-14" d="M195.32,116.39c-2.23-2.15-7-6.65-12.23-9-5.77-2.57-17.59-6-19.44-1.67-1.36,3.14,3,4.83,3,4.83s-5.18-.37-5.78,2.74c-.55,2.83,2.93,3.93,2.93,3.93s-3.18.32-3.19,3.14c0,3.41,6.66,2.18,9.63,5.64C171,126.82,195.32,116.39,195.32,116.39Z"/><path class="cls-7" d="M181.4,114a25.24,25.24,0,0,0-14.6-3.47c-.13,0-.19.12-.07.13a61.71,61.71,0,0,1,14.65,3.4S181.43,114,181.4,114Z"/><path class="cls-7" d="M178.64,119.75c-2.24-1.24-9-3.43-14.78-2.6-.13,0-.18.13-.06.14a66.73,66.73,0,0,1,14.82,2.51A0,0,0,1,0,178.64,119.75Z"/><path class="cls-6" d="M194,145.59s-17.18,28.94-26.21,31.82-14.28,1.76-17.52,1.05a8.85,8.85,0,0,1-3.36-1.91c-8.47-6.93-22.88-30.43-28.5-43.47-4.22-9.81-3.11-18.36,4-15.11a25,25,0,0,1,6.5,4.79c12.75,12.22,27.71,24,28.48,23.7s9.36-12.13,9.36-12.13Z"/><path class="cls-7" d="M189.91,150.8c-1-.63-10.23-5-12.26-5.86s-10.31-4.65-12.48-5.4a.08.08,0,1,0-.07.14c2,1.14,10.33,4.95,12.38,5.91s11.31,5,12.38,5.35C190,151,190,150.84,189.91,150.8Z"/><path class="cls-2" d="M150.83,141.82A141.62,141.62,0,0,1,131,156.05c-2-3.16-3.94-6.41-5.71-9.56a123.29,123.29,0,0,0,17-11.73C145.45,137.47,148.39,139.89,150.83,141.82Z"/><path class="cls-15" d="M169.69,176.53a9,9,0,0,1-1.87.89c-9,2.88-14.28,1.75-17.53,1a8.8,8.8,0,0,1-3.34-1.91c-8.47-6.93-22.89-30.44-28.51-43.48-2.17-5-2.93-9.73-2.18-12.68C130,134.6,155.6,161.78,169.69,176.53Z"/><path class="cls-6" d="M137.73,194.07c-1.58,1.41-68.66,4.61-69,4.16s15.77-72.27,40-82c3.85-1.53,14-.89,15.19.55C133.53,128.74,138.73,193.19,137.73,194.07Z"/><path class="cls-14" d="M119.92,126.73c-3.77.31-9.17-6.19-11-11.06-.12-.34.85-3.52,1.83-7.44.59-2.39,1.2-5,1.57-7.53l14.94,6.11a40.32,40.32,0,0,0-2.93,9.27,5.16,5.16,0,0,0,0,1s0,.11,0,.17C124.35,119.26,123.56,126.42,119.92,126.73Z"/><path class="cls-7" d="M127.31,106.81a39.89,39.89,0,0,0-2.94,9.28,5.06,5.06,0,0,0,0,1,1,1,0,0,1,0,.17,7.9,7.9,0,0,1-1.61-.16c-9-1.56-9.85-13.12-9.92-16.24Z"/><path class="cls-14" d="M110.55,83.12c-1.63,5.58,1.48,21.61,5.47,25.15,5.79,5.14,15.19,5.53,19.53-1.41,4.2-6.73-.22-27.56-4.68-30.76C124.31,71.37,113,74.87,110.55,83.12Z"/><path class="cls-7" d="M109.7,98.42c4.44-.24,6.08-5.77,4.53-9.86,0,0,11.88.09,11.27-9.36a9.3,9.3,0,0,0,8.13,3.26l1.74,3.3c1.15-.5,2-4.07-1.26-6.37,0,0-.79-4.66-4.59-7a6.43,6.43,0,0,0-7-.11,9.74,9.74,0,0,0-7.27-.86,8.31,8.31,0,0,0-5.52,5.24s-5.66,1.83-6.13,6.07a8.62,8.62,0,0,0,2,6.73s-1.26,1.79-.08,5.21C106.29,96.84,108.37,98.49,109.7,98.42Z"/><path class="cls-7" d="M125.14,78.39a11.26,11.26,0,0,1,.31,2.29A9,9,0,0,1,125.3,83,5.94,5.94,0,0,1,123,86.66a9.58,9.58,0,0,1-4.18,1.62c-.76.07-1.52.2-2.29.23s-1.54,0-2.32,0c.77.09,1.54.14,2.32.21s1.56,0,2.35-.07a9.66,9.66,0,0,0,4.45-1.6A6.26,6.26,0,0,0,125.72,83,9.49,9.49,0,0,0,125.14,78.39Z"/><path class="cls-7" d="M109.74,76.63a10.82,10.82,0,0,0-4.2,1.47,6.56,6.56,0,0,0-2.89,3.45,7.64,7.64,0,0,0-.28,2.27,6.76,6.76,0,0,0,.4,2.23,6.06,6.06,0,0,0,2.84,3.38,6.68,6.68,0,0,1-2.44-3.51,7.41,7.41,0,0,1,0-4.2,5.53,5.53,0,0,1,1-1.84,8.34,8.34,0,0,1,1.59-1.43A13.66,13.66,0,0,1,109.74,76.63Z"/><path class="cls-7" d="M122.53,72.25a11,11,0,0,1,3.35-1.09,6.71,6.71,0,0,1,3.39.32,6.9,6.9,0,0,1,2.73,2,12,12,0,0,1,1.79,3,8.73,8.73,0,0,0-1.46-3.3,6.08,6.08,0,0,0-6.53-2.51A8.28,8.28,0,0,0,122.53,72.25Z"/><path class="cls-7" d="M131.84,83.07a12.1,12.1,0,0,1-3.78-1.47,7.5,7.5,0,0,1-1.55-1.26,9.19,9.19,0,0,1-1.2-1.65,5,5,0,0,0,.88,1.92,5.47,5.47,0,0,0,1.58,1.45,6.64,6.64,0,0,0,2,.82A6.22,6.22,0,0,0,131.84,83.07Z"/><path class="cls-7" d="M126.73,93s-.08.06-.07.11c.27,1.06.39,2.32-.5,2.88,0,0,0,.07,0,.06C127.33,95.6,127.15,93.93,126.73,93Z"/><path class="cls-7" d="M125.53,92.06c-1.74.24-1.14,3.71.48,3.49S127,91.85,125.53,92.06Z"/><path class="cls-7" d="M133.05,91.85s.09,0,.09.08c.16,1.08.52,2.29,1.55,2.48,0,0,0,.06,0,.06C133.48,94.51,133,92.9,133.05,91.85Z"/><path class="cls-7" d="M133.81,90.55c1.71-.43,2.45,3,.87,3.42S132.38,90.92,133.81,90.55Z"/><path class="cls-7" d="M123.88,89.3a12,12,0,0,0,1.26-.71c.49-.28.9-.45,1.15-1a.74.74,0,0,0-.27-.87,1.85,1.85,0,0,0-1.87.14,2.73,2.73,0,0,0-1.34,1.42A.8.8,0,0,0,123.88,89.3Z"/><path class="cls-7" d="M135,89.28a11.64,11.64,0,0,1-1.45-.08,2.27,2.27,0,0,1-1.46-.36.76.76,0,0,1-.14-.9,1.84,1.84,0,0,1,1.74-.7,2.66,2.66,0,0,1,1.83.68A.79.79,0,0,1,135,89.28Z"/><path class="cls-7" d="M127.25,102.67c.26.27.51.62.91.66a3,3,0,0,0,1.18-.24,0,0,0,0,1,0,0,1.45,1.45,0,0,1-1.39.57,1.16,1.16,0,0,1-.84-1C127.13,102.66,127.22,102.64,127.25,102.67Z"/><path class="cls-7" d="M128.07,99.34a3.67,3.67,0,0,0,2.73,1.2,4.67,4.67,0,0,0,1.33-.17,2.84,2.84,0,0,0,.47-.15.26.26,0,0,0,.18-.28h0s-.47-2.29-.47-2.29c.33.1,2,.52,1.9.09a56.22,56.22,0,0,0-3.37-10.84.1.1,0,0,0-.19.06c.67,3.44,2,6.74,2.68,10.19a6.35,6.35,0,0,0-1.82-.23c-.06,0,.65,2.8.65,2.82a5.16,5.16,0,0,1-4-.51C128.06,99.18,128,99.27,128.07,99.34Z"/><path class="cls-6" d="M132.65,92.63c-.48-2.94.71-5.6,2.65-5.92s3.92,1.82,4.41,4.76-.71,5.59-2.65,5.91S133.14,95.57,132.65,92.63Zm.72-.12c.42,2.54,2,4.41,3.57,4.15s2.47-2.53,2.05-5.08-2-4.41-3.57-4.15S133,90,133.37,92.51Z"/><path class="cls-6" d="M120.89,94.83a5.05,5.05,0,1,1,5.85,4.51A5.23,5.23,0,0,1,120.89,94.83Zm.71-.12a4.34,4.34,0,1,0,3.51-5.32A4.52,4.52,0,0,0,121.6,94.71Z"/><path class="cls-6" d="M130.49,92.68c1.63-1.12,2.55-.48,2.56-.47l.21-.54s-1.15-.85-3,.44Z"/><path class="cls-6" d="M121.34,94.12l0-.63c-.41,0-10.12.72-11.14.93s-3.18,2.28-3.42,2.51l.44.46a11.83,11.83,0,0,1,3.06-2.33h0C111.06,94.89,117.86,94.37,121.34,94.12Z"/><path class="cls-14" d="M114.78,97.14s-3.79-5.08-6.11-3.71.65,8.81,3.45,9.75a2.81,2.81,0,0,0,3.72-1.63Z"/><path class="cls-7" d="M109.57,95.54a0,0,0,0,0,0,.07c2,.73,3,2.5,3.81,4.34A1.54,1.54,0,0,0,111,99.6c-.05,0,0,.11,0,.1a1.73,1.73,0,0,1,1.93.54,8.49,8.49,0,0,1,1,1.52c.09.17.4.07.33-.13l0,0C114.27,99.11,112.24,95.71,109.57,95.54Z"/><path class="cls-7" d="M125.23,122.1a0,0,0,0,0-.06,0c.2,3.08.46,10.21-4.37,9.79a10.2,10.2,0,0,1-5.2-2.57,27.34,27.34,0,0,1-4.11-4.15,39.75,39.75,0,0,1-3.82-5.32c0-.08-.17,0-.12.08,1.15,1.88,2.11,3.83,3.44,5.6a23.22,23.22,0,0,0,4.43,4.59,10.17,10.17,0,0,0,5.53,2.51,3.88,3.88,0,0,0,4-2.94A17.26,17.26,0,0,0,125.23,122.1Z"/><path class="cls-2" d="M124.17,116.94l-3.74,9.1-11.25-11.63-3.24,3.69s11,18.42,11,17.59l3.81-7.84,5.39,5.51-.34-13.74Z"/><path class="cls-7" d="M126.4,126.56c-.13-2.27-.21-4.55-.44-6.81,0-.08-.14-.12-.16,0-.47,2.18.09,10.85.06,12.93l0,0c-.23-.24-5-4.85-5-4.78-.82,1.25-3.62,7-3.82,7.48-1.73-2.93-9.09-14.47-11.15-17.24a.08.08,0,0,0-.14.08c1.53,3.08,11,18.31,11.18,18.27a88.68,88.68,0,0,0,4-8.29c.81,1,5.62,6.21,5.64,5.87A71.41,71.41,0,0,0,126.4,126.56Z"/><path class="cls-14" d="M104.82,131.57c-5.5,18.72-18.33,39.74-26.59,45.52-5,3.52-20.43,2.67-20.55-7.33S92.2,129.31,97.5,124C103.14,118.24,109.78,114.68,104.82,131.57Z"/><path class="cls-6" d="M105.68,132.07c-5.49,18.72-19.19,39.24-27.45,45-5,3.52-20.43,2.67-20.55-7.33s33.87-41.29,39.41-46.41C103.64,117.28,110.65,115.18,105.68,132.07Z"/><path class="cls-2" d="M100.22,146.24c-1.58,3.36-3.31,6.63-5.13,9.74A137.51,137.51,0,0,1,78,141.85c2.68-2.79,5.37-5.46,7.86-7.89A124.07,124.07,0,0,0,100.22,146.24Z"/><path class="cls-7" d="M65.5,177.78a20.57,20.57,0,0,0,6.26.4,17,17,0,0,0,5.9-1.74c3.89-1.95,6.63-5.47,9.08-9q4-5.73,7.61-11.77c2.39-4,4.6-8.14,6.76-12.29,1.08-2.1,2.09-4.23,3.12-6.34s2-4.21,3-6.36c.23-.54.45-1.08.68-1.63,0-.05.1,0,.08,0-.85,2.23-1.66,4.48-2.56,6.69-.11.28-.24.57-.35.85.89-1.65,1.8-3.29,2.75-4.91.06-.1.19,0,.14.1q-1.29,2.53-2.66,5l-1.36,2.44c-.44,1-.9,2-1.37,3.05q-3,6.49-6.66,12.68c-2.41,4.12-5,8.16-7.69,12.08-2.51,3.61-5.19,7.33-9,9.61a16.17,16.17,0,0,1-12.25,1.75,12.77,12.77,0,0,1-1.47-.51A.1.1,0,0,1,65.5,177.78Z"/><path class="cls-14" d="M78.2,104.25c3.13-6.53,8.11-15.43,11.19-16.64,3.23-1.28,14.77-5.3,17.75-5.37s13.34,3.62,15.13,5.6c1.43,1.58-1.4,5-7.38,4.13-5.58-.8-6.88-1.26-8.51-1.1S99.7,94.63,100,97c.17,1.42,3.3,4,5.85,3.72s4.23-2.69,7.45-4,7.63.42,7.5,1.72-1.8,1.39-5.42,4.78c-2.33,2.18-4.18,6.66-9,10.15a84,84,0,0,0-7.32,6.92Z"/><path class="cls-14" d="M89.39,87.61c3.26-2.72,10.77-7.08,17-7.44,4.17-.23,15,10.08,13.82,12.41s-3.34,1.64-6.46.22c-1.13-.52-6.65-4.75-8.13-3.78-2.13,1.39-6.12,7.19-6.12,7.19Z"/><path class="cls-7" d="M120.15,91.52c-.75-3.12-3.78-5.63-6.88-7.83,0,0-.1,0-.06.07.79.56,5.6,4.95,6.88,7.79C120.11,91.59,120.15,91.56,120.15,91.52Z"/><path class="cls-14" d="M89.39,87.61c3.26-2.72,10.77-7.08,17-7.44,4.17-.23,11.74,11,10.59,13.3s-4.36,1.52-7.44-.8c-1-.75-3.91-4.6-5.39-3.63-2.13,1.39-7.35,4.87-7.35,4.87Z"/><path class="cls-7" d="M99.83,91.7c.52-.42.69-.57,1.22-1s1.06-.82,1.62-1.2a5.09,5.09,0,0,1,1.53-.84,2.55,2.55,0,0,1,1.63.19,9.15,9.15,0,0,1,2.85,2.52c.93,1,2.95,2.83,4.82,3.22a3.86,3.86,0,0,0,1.55.07,2.43,2.43,0,0,0,1.08-.41c1.21-1.08.71-2.92.06-4.31a24.15,24.15,0,0,0-5.34-6.84c-.5-.49-1-1-1.54-1.43a5.71,5.71,0,0,0-2-1.33c-1.26-.41-3.73.21-4.49.39-.06,0-.07-.08,0-.09.93-.24,3.34-1.19,5.34-.44a6.69,6.69,0,0,1,1.89,1.39c.6.53,1.2,1.08,1.78,1.64A30,30,0,0,1,115,86.77a12.46,12.46,0,0,1,2.21,4,3.71,3.71,0,0,1-.93,3.69,3.24,3.24,0,0,1-2.67.49,6.4,6.4,0,0,1-1.6-.53,26.58,26.58,0,0,1-3.15-2.13c-1-.79-1.72-1.85-2.74-2.55a2.2,2.2,0,0,0-1.68-.42,6,6,0,0,0-1.58.73A17.65,17.65,0,0,0,100,91.82C99.75,92,99.61,91.88,99.83,91.7Z"/><path class="cls-14" d="M86.83,90.06c1.31-1.36,4.79-7.61,6.74-9.25s10.09-6.84,12.74-5.65c3.34,1.49-2.25,6.56-4.88,8.55s-3.72,6.44-3.72,6.44Z"/><path class="cls-7" d="M105.31,80.26c-.9.61-1.76,1.33-2.6,2a21.94,21.94,0,0,0-2.36,2A9.26,9.26,0,0,0,98.77,87a14.17,14.17,0,0,0-.52,1.42c-.18.53-.3,1.07-.48,1.59,0,.06.07.09.09,0a22.16,22.16,0,0,1,1.29-2.75,12.63,12.63,0,0,1,1.77-2.57c1.39-1.55,3.09-2.79,4.49-4.33C105.46,80.3,105.37,80.22,105.31,80.26Z"/><path class="cls-7" d="M104.57,100.65a4.51,4.51,0,0,0,3.25-.9c.86-.57,1.69-1.2,2.56-1.77a11.21,11.21,0,0,1,2.75-1.42,12.51,12.51,0,0,1,3.45-.37,6.8,6.8,0,0,1,3.26.67c.81.44,1.64,1.36,1.13,2.36a4.11,4.11,0,0,1-1,1.15,10.48,10.48,0,0,1-1.22.88c-.86.55-1.77,1-2.58,1.66a16.19,16.19,0,0,0-2.67,3.1c-.3.4-2.26,3.15-3,4.07a17,17,0,0,1-2,2.19,23.79,23.79,0,0,1-2.31,1.67,14.62,14.62,0,0,0-2.43,1.93s-.08,0-.06-.05a12.88,12.88,0,0,1,4.09-3.5c1.93-1.26,6.43-8.08,7.23-9,1.33-1.53,3.25-2.18,4.74-3.49.34-.3.86-.73.88-1.23a1.39,1.39,0,0,0-.78-1.12,5.67,5.67,0,0,0-3.2-.56,14.16,14.16,0,0,0-3.31.35,10.7,10.7,0,0,0-2.69,1.22c-1,.58-1.89,1.2-2.89,1.71a4.49,4.49,0,0,1-3.17.52C104.48,100.72,104.51,100.64,104.57,100.65Z"/><path class="cls-7" d="M120.56,86.86c-.72-.41-1.43-.84-2.16-1.23,0,0,0,0,0,0,.87.41,1.77.75,2.65,1.15a2.85,2.85,0,0,1,1.66,1.51,2.11,2.11,0,0,1-.54,2,5.62,5.62,0,0,1-2,1.21,0,0,0,1,1,0-.06c1.11-.56,2.85-1.72,2.06-3.2A3.89,3.89,0,0,0,120.56,86.86Z"/><path class="cls-7" d="M116.55,93.83a4.62,4.62,0,0,0,2.55-.3,1.87,1.87,0,0,0,.8-.75,2.2,2.2,0,0,0,.2-.56.88.88,0,0,0,0-.62s0-.08.06,0,.09.22.12.33a1.57,1.57,0,0,1,0,.3,1.49,1.49,0,0,1-.09.59,1.9,1.9,0,0,1-.8,1,3.2,3.2,0,0,1-2.86.1S116.51,93.82,116.55,93.83Z"/><path class="cls-14" d="M100.42,118.6c-2.54,7.49-20.87,49.05-25.68,54.52s-15.67,6.08-18.09-4.44S75,110.74,78.72,103.19C80.82,99,101.34,115.89,100.42,118.6Z"/><path class="cls-6" d="M103.66,125.83,74.73,106.77s-17.05,40.1-18.63,58.61c-.88,10.2,11,18.54,21.5,5.29S103.66,125.83,103.66,125.83Z"/><path class="cls-7" d="M99,131.19c-4.26-2.44-21.27-13-24.77-15.58-.24-.18-.17-.38.11-.23,13,7,20.73,13,24.77,15.63C99.25,131.08,99.15,131.25,99,131.19Z"/><path class="cls-7" d="M87.55,155.08c3.68-6,7.23-12.17,10.47-18.46q1.37-2.64,2.67-5.31c.84-1.71,1.69-3.42,2.45-5.17-.63-.49-3.41-2.55-3.71-2.86-.09-.09,0-.25.15-.2.37.17,3.61,2.3,4.3,2.87.09.08-1.54,3.48-2.28,5.1s-1.51,3.24-2.3,4.84q-2.34,4.77-4.91,9.41-2.76,5-5.78,9.86C86.88,157.93,82.82,162.87,87.55,155.08Z"/></g></g></g></svg>