<svg xmlns="http://www.w3.org/2000/svg" viewBox="0 0 267.29 65"><defs><style>.cls-1{fill:#002d3a;}</style></defs><title>title-logo</title><g id="Layer_2" data-name="Layer 2"><g id="Layer_1-2" data-name="Layer 1"><path class="cls-1" d="M64.55,44.58a15.49,15.49,0,0,1-6.19-1.25A16.15,16.15,0,0,1,53.3,40a15.73,15.73,0,0,1-4.66-11.23,15.49,15.49,0,0,1,1.25-6.19,15.94,15.94,0,0,1,3.41-5.07A16.46,16.46,0,0,1,58.36,14a15.17,15.17,0,0,1,6.19-1.27A15.4,15.4,0,0,1,70.7,14a17,17,0,0,1,5.06,3.33A15.88,15.88,0,0,1,79.2,22.2a14.09,14.09,0,0,1,1.27,5.87,3.15,3.15,0,0,1-.79,2.31,3,3,0,0,1-2.2.78H55.13l.27.93a7.88,7.88,0,0,0,1,2.1,9.16,9.16,0,0,0,2.19,2.29A10.93,10.93,0,0,0,61.41,38a9.44,9.44,0,0,0,3.14.55,9.62,9.62,0,0,0,3.76-.72,9.46,9.46,0,0,0,3-2A4.6,4.6,0,0,1,72.51,35a3,3,0,0,1,1.21-.29,2.6,2.6,0,0,1,2,.89,3,3,0,0,1,.81,2.1,4.49,4.49,0,0,1-.16,1.22,2.3,2.3,0,0,1-.62,1,13.26,13.26,0,0,1-5,3.46A16.91,16.91,0,0,1,64.55,44.58Zm0-25.8a9.2,9.2,0,0,0-3.14.56,9.36,9.36,0,0,0-2.79,1.54,10.22,10.22,0,0,0-2.13,2.32,8.24,8.24,0,0,0-1,2.07l-.31.95H73.92l-.27-.93a7.38,7.38,0,0,0-1-2.09,9.9,9.9,0,0,0-5-3.86A9.22,9.22,0,0,0,64.55,18.78Z"/><path class="cls-1" d="M88.38,44.58a3,3,0,0,1-2.17-.83,3,3,0,0,1-.88-2.28V3.05A2.89,2.89,0,0,1,86.21.83,3,3,0,0,1,88.38,0a3.08,3.08,0,0,1,2.28.83,3,3,0,0,1,.83,2.22V41.47a2.87,2.87,0,0,1-3.11,3.11Z"/><path class="cls-1" d="M100.24,44.58a3,3,0,0,1-2.17-.83,3,3,0,0,1-.88-2.28V3.05A2.89,2.89,0,0,1,98.07.83,3,3,0,0,1,100.24,0a3.1,3.1,0,0,1,2.28.83,3,3,0,0,1,.83,2.22V41.47a2.87,2.87,0,0,1-3.11,3.11Z"/><path class="cls-1" d="M139.51,22.37A16.12,16.12,0,0,0,130.87,14a15.62,15.62,0,0,0-6-1.19,12.94,12.94,0,0,0-5.4,1,10.32,10.32,0,0,0-3.79,2.84V3.08a3.05,3.05,0,0,0-.83-2.24,3.49,3.49,0,0,0-4.54,0,2.9,2.9,0,0,0-.89,2.24V41.47a2.93,2.93,0,0,0,.88,2.28,3,3,0,0,0,2.17.83,2.87,2.87,0,0,0,3.11-3.11v-.94A9.67,9.67,0,0,0,117.23,42a12.73,12.73,0,0,0,2.24,1.33,15,15,0,0,0,2.59.92,11.69,11.69,0,0,0,2.84.35,15.62,15.62,0,0,0,6-1.19,16.22,16.22,0,0,0,5.1-3.3,15.84,15.84,0,0,0,3.54-5,15.82,15.82,0,0,0,0-12.7Zm-5.7,10.13a9.62,9.62,0,0,1-8.91,5.86,8.72,8.72,0,0,1-3.62-.75,9.31,9.31,0,0,1-2.92-2.06,9.19,9.19,0,0,1-1.94-3,10,10,0,0,1-.71-3.75,10.16,10.16,0,0,1,.71-3.78,9.46,9.46,0,0,1,1.94-3.11,9.06,9.06,0,0,1,2.92-2.08A8.73,8.73,0,0,1,124.9,19a9.67,9.67,0,0,1,3.78.76,9.31,9.31,0,0,1,3.08,2.08A9.9,9.9,0,0,1,133.81,25a9.46,9.46,0,0,1,.76,3.78A9.28,9.28,0,0,1,133.81,32.5Z"/><path class="cls-1" d="M177.66,45.26V15.88a3,3,0,0,0-.83-2.22,3.1,3.1,0,0,0-2.28-.83,3,3,0,0,0-2.17.83,2.89,2.89,0,0,0-.88,2.22v.35h0V28.79a9.59,9.59,0,0,1-.82,3.77,9.42,9.42,0,0,1-2.09,3,9.85,9.85,0,0,1-3.08,2.06,9.83,9.83,0,0,1-7.58,0,9.59,9.59,0,0,1-5.11-5.11,9.43,9.43,0,0,1-.83-3.77V16.23h0v-.35a3,3,0,0,0-.82-2.22,3.1,3.1,0,0,0-2.28-.83,3,3,0,0,0-2.17.83,2.85,2.85,0,0,0-.88,2.22v13c0,.08,0,.14,0,.21A15.4,15.4,0,0,0,147.08,35a15.71,15.71,0,0,0,3.41,5,16.18,16.18,0,0,0,5.06,3.39,16.1,16.1,0,0,0,12.39,0,17,17,0,0,0,3.56-2.09v3.94h0V49c0,5.5-4.36,9.49-10,9.82A3.22,3.22,0,0,0,158.48,62a3,3,0,0,0,3.05,3,15.8,15.8,0,0,0,16.15-16V45.26Z"/><path class="cls-1" d="M13.38,44.59a3.09,3.09,0,0,1-2.9-2l-5.18-13a3.12,3.12,0,0,1,1.75-4,3.05,3.05,0,0,1,1.15-.22,3.09,3.09,0,0,1,2.9,2l5.18,13a3.14,3.14,0,0,1-1.75,4.06A3.26,3.26,0,0,1,13.38,44.59Z"/><path class="cls-1" d="M33.63,44.59a3.11,3.11,0,0,1-2.9-2l-5.18-13a3.12,3.12,0,0,1,1.75-4,3.05,3.05,0,0,1,1.15-.22,3.11,3.11,0,0,1,2.91,2l5.17,13a3.12,3.12,0,0,1-1.75,4.06A3.22,3.22,0,0,1,33.63,44.59Z"/><path class="cls-1" d="M33.63,44.59a3.26,3.26,0,0,1-1.15-.22,3.12,3.12,0,0,1-1.75-4.06l10-25.59a3.11,3.11,0,0,1,2.9-2,3,3,0,0,1,1.15.22A3.12,3.12,0,0,1,46.57,17l-10,25.6A3.1,3.1,0,0,1,33.63,44.59Z"/><path class="cls-1" d="M28.88,21l-2.41-6h0a3.12,3.12,0,0,0-1.83-2,3.05,3.05,0,0,0-1.15-.22,3.1,3.1,0,0,0-2.9,2L10.48,40.31a3.13,3.13,0,0,0,1.74,4.06,3.32,3.32,0,0,0,1.16.22,3.12,3.12,0,0,0,2.9-2l7.21-18.25h0s2.52-4.21,6.74.05Z"/><circle class="cls-1" cx="3.12" cy="15.88" r="3.12"/><path class="cls-1" d="M.23,17.06s2.63,5.67,5.26,4.64c2.47-1,.53-7,.53-7Z"/><circle class="cls-1" cx="3.12" cy="15.88" r="3.12"/><path class="cls-1" d="M210.7,44.58h-5.26a22.29,22.29,0,1,1,22.29-22.29v5.27a2.92,2.92,0,0,1-5.84,0V22.29a16.46,16.46,0,1,0-16.45,16.45h5.26a2.92,2.92,0,1,1,0,5.84Z"/><path class="cls-1" d="M226.87,39.6,214.74,27.47a10.65,10.65,0,1,0-4.12,4.13l12.13,12.12a2.91,2.91,0,0,0,4.12-4.12ZM200.61,22.29a4.83,4.83,0,1,1,4.83,4.82A4.83,4.83,0,0,1,200.61,22.29Z"/><path class="cls-1" d="M254.49,30.26A15.23,15.23,0,0,0,252.05,0h-9.54a9.12,9.12,0,0,0-9.11,9.11V27.56a2.92,2.92,0,0,0,5.83,0V9.11a3.27,3.27,0,0,1,3.28-3.27h9.54a9.4,9.4,0,0,1,0,18.8h-4.18A2.92,2.92,0,0,0,245,27.56s0,.06,0,.1a2.9,2.9,0,0,0,.85,2.17l13.9,13.89a2.91,2.91,0,0,0,4.12-4.12Z"/><circle class="cls-1" cx="236.31" cy="40.9" r="3.68"/></g></g></svg>