<svg xmlns="http://www.w3.org/2000/svg" viewBox="0 0 40 40"><defs><style>.cls-1{fill:#ff9e00;}.cls-2{fill:#fff;}</style></defs><title>view-icon</title><g id="Layer_2" data-name="Layer 2"><g id="Layer_1-2" data-name="Layer 1"><circle class="cls-1" cx="20" cy="20" r="20"/><path class="cls-2" d="M20,29.29A13.44,13.44,0,0,1,8.07,22a4,4,0,0,1,0-4.09c2.61-4.68,6.59-7.22,12-7.22s9.27,2.52,11.89,7.13a4.07,4.07,0,0,1,0,4.24A13.45,13.45,0,0,1,20,29.29Zm0-16.86a11.7,11.7,0,0,0-10.19,6,2.7,2.7,0,0,0,0,3,11.34,11.34,0,0,0,10.23,6,11.36,11.36,0,0,0,10.2-6,2.64,2.64,0,0,0,0-2.94A11.7,11.7,0,0,0,20,12.43Z"/><path class="cls-2" d="M15.32,18.05c1.14,1,2.34,1.38,3.59.47s1.3-2.22.65-3.56a4.85,4.85,0,0,1,5.1,3,5.08,5.08,0,0,1-1.49,6,5.15,5.15,0,0,1-6.29.08A5,5,0,0,1,15.32,18.05Z"/></g></g></svg>